{"_v":2,"glyphs":{"0":{"ha":414,"x_min":45,"x_max":368,"o":"m 207 -9 l 207 -9 q 151 -9 116 30 q 80 69 63 150 q 45 231 45 358 l 45 358 q 45 477 62 559 q 78 641 114 683 q 149 725 207 725 l 207 725 q 265 725 301 682 q 336 639 352 558 q 368 476 368 359 l 368 359 q 368 272 360 204 q 351 136 332 89 q 313 41 282 16 q 251 -9 207 -9 z m 207 42 l 207 42 q 236 42 257 64 q 277 85 290 126 q 302 167 308 226 q 313 284 313 358 l 313 358 q 313 431 308 490 q 302 548 290 589 q 277 630 257 652 q 236 674 207 674 l 207 674 q 177 674 157 653 q 136 631 124 591 q 112 550 107 492 q 101 433 101 358 l 101 358 q 101 285 107 227 q 112 168 125 127 q 137 86 157 64 q 177 42 207 42 z"},"1":{"ha":414,"x_min":64,"x_max":271,"o":"m 271 714 l 271 0 l 217 0 l 217 525 q 217 557 218 587 q 218 616 219 649 l 219 649 q 211 639 201 628 q 191 616 177 602 l 177 602 l 97 521 l 64 555 l 224 714 l 271 714 z"},"2":{"ha":414,"x_min":35,"x_max":365,"o":"m 365 0 l 35 0 l 35 42 l 181 262 q 220 319 245 364 q 270 409 283 452 q 295 494 295 543 l 295 543 q 295 586 280 616 q 265 645 240 660 q 214 674 180 674 l 180 674 q 145 674 117 662 q 89 650 65 633 l 65 633 l 38 675 q 59 689 82 700 q 104 711 130 718 q 156 725 185 725 l 185 725 q 234 725 271 703 q 308 681 329 641 q 350 601 350 545 l 350 545 q 350 487 335 438 q 319 389 292 342 q 265 294 229 242 l 229 242 l 102 53 l 102 51 l 364 51 l 365 0 z"},"3":{"ha":414,"x_min":25,"x_max":356,"o":"m 170 -11 l 170 -11 q 132 -11 96 -5 q 59 0 28 12 l 28 12 l 28 65 q 58 53 90 46 q 121 39 165 39 l 165 39 q 231 39 265 81 q 299 122 299 196 l 299 196 q 299 248 279 281 q 259 313 223 329 q 187 345 137 345 l 137 345 l 102 345 l 102 394 l 142 394 q 188 394 221 414 q 254 434 272 469 q 290 503 290 547 l 290 547 q 290 610 261 643 q 232 675 180 675 l 180 675 q 142 675 112 662 q 81 649 52 629 l 52 629 l 25 670 q 65 698 103 712 q 141 725 185 725 l 185 725 q 234 725 270 705 q 306 684 326 646 q 345 607 345 553 l 345 553 q 345 505 330 469 q 314 433 287 410 q 260 386 224 373 l 224 373 l 224 370 q 286 358 321 313 q 356 268 356 193 l 356 193 q 356 132 335 86 q 313 40 272 15 q 230 -11 170 -11 z"},"4":{"ha":414,"x_min":19,"x_max":399,"o":"m 319 0 l 265 0 l 265 166 l 19 166 l 19 212 l 261 719 l 319 719 l 319 214 l 399 214 l 399 166 l 319 166 l 319 0 z m 227 549 l 71 214 l 265 214 l 265 554 q 265 569 266 584 q 266 599 267 614 q 267 628 267 641 l 267 641 l 265 641 q 256 616 247 593 q 237 570 227 549 l 227 549 z"},"5":{"ha":414,"x_min":48,"x_max":368,"o":"m 171 -10 l 171 -10 q 134 -10 103 -4 q 72 2 48 11 l 48 11 l 48 66 q 72 53 101 46 q 130 39 168 39 l 168 39 q 219 39 251 64 q 282 88 297 130 q 312 172 312 224 l 312 224 q 312 300 281 342 q 249 384 181 384 l 181 384 q 154 384 128 379 q 101 374 80 366 l 80 366 l 55 389 l 77 714 l 330 714 l 330 663 l 125 663 l 107 421 q 126 426 149 429 q 172 432 195 432 l 195 432 q 253 432 292 406 q 330 380 349 334 q 368 287 368 226 l 368 226 q 368 157 347 104 q 325 50 281 20 q 237 -10 171 -10 z"},"6":{"ha":414,"x_min":50,"x_max":372,"o":"m 216 -11 l 216 -11 q 173 -11 142 9 q 111 29 91 69 q 70 109 60 169 q 50 228 50 307 l 50 307 q 50 395 60 463 q 69 530 87 580 q 105 630 132 662 q 159 693 195 709 q 230 725 273 725 l 273 725 q 291 725 308 723 q 325 721 341 716 l 341 716 l 341 666 q 325 670 308 673 q 291 675 274 675 l 274 675 q 219 675 182 639 q 144 602 125 531 q 105 460 103 355 l 103 355 l 105 355 q 114 379 130 400 q 146 420 170 433 q 194 446 226 446 l 226 446 q 276 446 309 418 q 341 390 357 340 q 372 290 372 224 l 372 224 q 372 153 354 100 q 336 47 301 18 q 266 -11 216 -11 z m 214 40 l 214 40 q 264 40 291 87 q 317 133 317 224 l 317 224 q 317 304 294 350 q 270 396 216 396 l 216 396 q 182 396 158 377 q 133 358 120 326 q 107 293 107 252 l 107 252 q 107 220 112 183 q 116 146 128 114 q 140 81 161 61 q 182 40 214 40 z"},"7":{"ha":414,"x_min":29,"x_max":378,"o":"m 152 0 l 94 0 l 321 663 l 29 663 l 29 714 l 378 714 l 378 672 l 152 0 z"},"8":{"ha":414,"x_min":37,"x_max":378,"o":"m 211 -11 l 211 -11 q 156 -11 117 12 q 78 35 58 77 q 37 118 37 173 l 37 173 q 37 221 53 258 q 68 294 97 323 q 125 352 163 376 l 163 376 q 129 401 105 429 q 80 457 67 490 q 54 523 54 561 l 54 561 q 54 610 73 647 q 92 683 127 704 q 162 724 210 724 l 210 724 q 259 724 293 704 q 327 684 345 648 q 363 611 363 562 l 363 562 q 363 517 349 484 q 335 450 309 424 q 283 398 246 376 l 246 376 q 285 350 315 322 q 344 293 361 258 q 378 223 378 176 l 378 176 q 378 122 358 80 q 337 38 300 14 q 263 -11 211 -11 z m 208 37 l 208 37 q 264 37 294 76 q 323 114 323 175 l 323 175 q 323 205 313 233 q 303 261 280 288 q 257 314 220 338 l 220 338 l 203 350 q 169 329 144 304 q 119 279 105 247 q 91 215 91 172 l 91 172 q 91 110 123 74 q 155 37 208 37 z m 207 402 l 207 402 q 240 424 263 446 q 285 467 297 495 q 308 522 308 560 l 308 560 q 308 616 283 646 q 257 676 209 676 l 209 676 q 162 676 135 645 q 108 613 108 557 l 108 557 q 108 524 119 497 q 130 470 153 447 q 175 424 207 402 z"},"9":{"ha":414,"x_min":43,"x_max":365,"o":"m 142 -11 l 142 -11 q 126 -11 107 -8 q 87 -6 74 -2 l 74 -2 l 74 49 q 88 44 105 42 q 122 39 141 39 l 141 39 q 186 39 218 62 q 250 85 271 128 q 291 170 301 229 q 311 288 312 359 l 312 359 l 310 359 q 301 336 285 315 q 269 294 246 281 q 222 268 189 268 l 189 268 q 139 268 107 297 q 74 325 59 375 q 43 425 43 491 l 43 491 q 43 562 61 615 q 79 667 115 696 q 150 725 202 725 l 202 725 q 244 725 275 705 q 305 685 326 646 q 346 606 356 547 q 365 488 365 410 l 365 410 q 365 322 356 254 q 347 185 328 135 q 309 85 282 53 q 255 20 220 5 q 185 -11 142 -11 z m 199 318 l 199 318 q 234 318 259 338 q 283 358 296 392 q 309 425 309 467 l 309 467 q 309 496 305 532 q 301 567 290 600 q 278 633 257 654 q 236 674 202 674 l 202 674 q 151 674 125 628 q 98 582 98 491 l 98 491 q 98 410 122 364 q 146 318 199 318 z"},"\r":{"ha":221,"x_min":0,"x_max":0,"o":""}," ":{"ha":221,"x_min":0,"x_max":0,"o":""},"ഀ":{"ha":0,"x_min":-390,"x_max":-167,"o":"m -390 724 l -390 724 q -390 792 -358 828 q -327 864 -279 864 l -279 864 q -230 864 -198 828 q -167 792 -167 725 l -167 725 q -167 658 -198 622 q -229 585 -279 585 l -279 585 q -328 585 -359 621 q -390 657 -390 724 z m -343 725 l -343 725 q -343 681 -327 655 q -311 628 -279 628 l -279 628 q -247 628 -230 655 q -213 681 -213 725 l -213 725 q -213 769 -230 795 q -247 821 -279 821 l -279 821 q -310 821 -326 795 q -343 769 -343 725 z"},"ഁ":{"ha":0,"x_min":-406,"x_max":-150,"o":"m -278 664 l -278 664 q -335 664 -370 699 q -406 733 -406 809 l -406 809 q -406 821 -404 835 q -403 849 -400 861 l -400 861 l -356 855 q -358 845 -359 832 q -361 819 -361 809 l -361 809 q -361 773 -351 751 q -341 728 -322 718 q -304 708 -279 708 l -279 708 q -252 708 -233 719 q -215 729 -205 752 q -195 774 -195 810 l -195 810 q -195 819 -196 832 q -198 845 -200 856 l -200 856 l -156 861 q -153 849 -151 835 q -150 821 -150 810 l -150 810 q -150 735 -186 700 q -222 664 -278 664 z m -278 770 l -278 770 q -296 770 -304 781 q -312 792 -312 810 l -312 810 q -312 827 -304 839 q -296 850 -278 850 l -278 850 q -260 850 -252 839 q -244 827 -244 810 l -244 810 q -244 792 -252 781 q -260 770 -278 770 z"},"ം":{"ha":342,"x_min":34,"x_max":308,"o":"m 171 -12 l 171 -12 q 128 -12 98 10 q 67 31 51 72 q 34 113 34 171 l 34 171 q 34 231 51 272 q 68 312 99 333 q 130 354 172 354 l 172 354 q 213 354 244 334 q 274 313 291 273 q 308 232 308 172 l 308 172 q 308 112 291 71 q 274 30 244 9 q 213 -12 171 -12 z m 172 309 l 172 309 q 131 309 109 276 q 86 243 86 171 l 86 171 q 86 99 109 66 q 131 33 171 33 l 171 33 q 211 33 234 67 q 257 100 257 172 l 257 172 q 257 243 235 276 q 212 309 172 309 z"},"ഃ":{"ha":263,"x_min":32,"x_max":231,"o":"m 32 435 l 32 435 q 32 496 60 529 q 88 562 131 562 l 131 562 q 175 562 203 530 q 231 497 231 435 l 231 435 q 231 374 204 341 q 176 308 131 308 l 131 308 q 87 308 60 341 q 32 374 32 435 z m 78 436 l 78 436 q 78 395 92 373 q 106 351 131 351 l 131 351 q 157 351 172 373 q 186 395 186 436 l 186 436 q 186 476 172 498 q 157 519 131 519 l 131 519 q 106 519 92 498 q 78 476 78 436 z m 32 115 l 32 115 q 32 176 60 209 q 88 242 131 242 l 131 242 q 175 242 203 210 q 231 177 231 115 l 231 115 q 231 54 204 21 q 176 -12 131 -12 l 131 -12 q 87 -12 60 21 q 32 54 32 115 z m 78 115 l 78 115 q 78 74 92 53 q 106 31 131 31 l 131 31 q 157 31 172 53 q 186 74 186 115 l 186 115 q 186 156 172 178 q 157 199 131 199 l 131 199 q 106 199 92 178 q 78 156 78 115 z"},"ഄ":{"ha":457,"x_min":38,"x_max":419,"o":"m 51 311 l 51 311 l 102 301 q 96 277 94 254 q 91 230 91 204 l 91 204 q 91 129 121 84 q 151 39 228 39 l 228 39 q 306 39 337 84 q 367 129 367 203 l 367 203 q 367 229 365 253 q 362 277 356 301 l 356 301 l 406 311 q 411 290 415 262 q 419 234 419 203 l 419 203 q 419 141 401 93 q 382 45 340 18 q 298 -9 228 -9 l 228 -9 q 159 -9 117 18 q 75 45 57 93 q 38 141 38 203 l 38 203 q 38 234 42 262 q 46 290 51 311 z m 206 165 l 206 397 l 254 397 l 254 165 l 206 165 z"},"അ":{"ha":1089,"x_min":39,"x_max":1050,"o":"m 285 562 l 285 562 q 314 562 345 557 q 376 551 406 535 l 406 535 q 410 534 413 531 q 416 527 420 524 l 420 524 q 449 510 470 489 q 491 467 503 438 q 514 409 514 372 l 514 372 q 514 340 504 315 q 494 290 473 273 q 451 256 415 247 l 415 247 l 413 256 q 464 248 493 215 q 522 182 522 127 l 522 127 q 522 86 507 55 q 492 23 463 6 q 433 -12 390 -12 l 390 -12 q 336 -12 301 17 q 266 45 249 99 q 231 153 231 231 l 231 231 q 231 286 243 340 q 255 393 282 439 q 308 484 348 512 l 348 512 q 352 515 356 520 q 360 524 364 527 l 364 527 q 391 544 422 553 q 452 562 488 562 l 488 562 q 542 562 578 544 q 613 526 635 494 q 656 461 667 418 l 667 418 l 680 281 l 680 0 l 627 0 l 627 305 q 627 378 618 418 q 609 457 585 482 l 585 482 q 568 500 544 509 q 519 518 484 518 l 484 518 q 461 518 442 513 q 423 507 406 499 l 406 499 q 374 483 351 456 q 327 428 312 392 q 297 356 290 315 q 282 273 282 229 l 282 229 q 282 131 309 82 q 335 33 389 33 l 389 33 q 428 33 449 56 q 470 79 470 127 l 470 127 q 470 172 444 201 q 417 229 367 229 l 367 229 l 363 229 l 363 275 l 366 275 q 413 275 438 302 q 462 329 462 372 l 462 372 q 462 423 438 455 q 414 486 372 501 l 372 501 q 349 511 329 514 q 308 517 288 517 l 288 517 q 220 517 177 486 q 134 455 114 403 q 94 351 94 286 l 94 286 q 94 223 107 176 q 119 128 142 93 q 164 58 191 30 l 191 30 l 153 -7 q 125 22 99 62 q 73 102 56 158 q 39 214 39 290 l 39 290 q 39 346 54 396 q 69 445 99 483 q 129 520 176 541 q 222 562 285 562 z m 906 -12 l 906 -12 q 858 -12 828 14 q 798 40 784 87 q 769 133 769 194 l 769 194 q 769 293 805 342 q 841 391 902 391 l 902 391 q 935 391 959 378 q 982 364 1000 340 q 1018 315 1032 281 l 1032 281 l 1016 260 q 1007 280 993 300 q 979 319 960 333 q 940 346 912 346 l 912 346 q 865 346 843 307 q 821 267 821 193 l 821 193 q 821 143 830 108 q 838 72 857 53 q 876 34 907 34 l 907 34 q 935 34 956 54 q 976 73 988 119 q 999 165 999 242 l 999 242 q 999 252 998 273 q 997 294 995 308 l 995 308 q 995 312 996 317 q 996 321 994 325 l 994 325 q 987 374 966 418 q 945 461 909 488 q 872 515 816 515 l 816 515 q 785 515 763 508 q 741 500 725 485 l 725 485 q 709 471 699 450 q 689 428 685 398 q 680 368 680 325 l 680 325 l 680 235 l 643 422 q 654 467 676 499 q 698 530 732 546 q 766 562 813 562 l 813 562 q 872 562 917 539 q 961 516 991 473 q 1020 430 1035 371 q 1050 312 1050 239 l 1050 239 q 1050 143 1032 88 q 1013 33 981 11 q 948 -12 906 -12 z"},"ആ":{"ha":1192,"x_min":39,"x_max":1167,"o":"m 285 562 l 285 562 q 314 562 345 557 q 376 551 406 535 l 406 535 q 410 534 413 531 q 416 527 420 524 l 420 524 q 449 510 470 489 q 491 467 503 438 q 514 409 514 372 l 514 372 q 514 340 504 315 q 494 290 473 273 q 451 256 415 247 l 415 247 l 413 256 q 464 248 493 215 q 522 182 522 127 l 522 127 q 522 86 507 55 q 492 23 463 6 q 433 -12 390 -12 l 390 -12 q 336 -12 301 17 q 266 45 249 99 q 231 153 231 231 l 231 231 q 231 286 243 340 q 255 393 282 439 q 308 484 348 512 l 348 512 q 352 515 356 520 q 360 524 364 527 l 364 527 q 391 544 422 553 q 452 562 488 562 l 488 562 q 542 562 578 544 q 613 526 635 494 q 656 461 667 418 l 667 418 l 680 281 l 680 0 l 627 0 l 627 305 q 627 378 618 418 q 609 457 585 482 l 585 482 q 568 500 544 509 q 519 518 484 518 l 484 518 q 461 518 442 513 q 423 507 406 499 l 406 499 q 374 483 351 456 q 327 428 312 392 q 297 356 290 315 q 282 273 282 229 l 282 229 q 282 131 309 82 q 335 33 389 33 l 389 33 q 428 33 449 56 q 470 79 470 127 l 470 127 q 470 172 444 201 q 417 229 367 229 l 367 229 l 363 229 l 363 275 l 366 275 q 413 275 438 302 q 462 329 462 372 l 462 372 q 462 423 438 455 q 414 486 372 501 l 372 501 q 349 511 329 514 q 308 517 288 517 l 288 517 q 220 517 177 486 q 134 455 114 403 q 94 351 94 286 l 94 286 q 94 223 107 176 q 119 128 142 93 q 164 58 191 30 l 191 30 l 153 -7 q 125 22 99 62 q 73 102 56 158 q 39 214 39 290 l 39 290 q 39 346 54 396 q 69 445 99 483 q 129 520 176 541 q 222 562 285 562 z m 809 562 l 809 562 q 880 562 925 531 q 969 499 994 447 q 1019 395 1028 334 l 1028 334 q 1032 308 1034 280 q 1036 252 1036 226 l 1036 226 q 1036 137 1018 85 q 999 33 967 11 q 935 -12 891 -12 l 891 -12 q 845 -12 816 12 q 787 36 774 76 q 760 116 760 164 l 760 164 q 760 265 813 317 q 866 369 951 369 l 951 369 q 961 369 972 368 q 983 367 992 365 l 992 365 l 1006 364 q 1059 350 1095 311 q 1131 271 1149 213 q 1167 155 1167 86 l 1167 86 q 1167 19 1153 -34 q 1138 -88 1108 -125 q 1078 -162 1033 -181 q 988 -201 928 -201 l 928 -201 q 901 -201 877 -197 q 853 -193 827 -185 l 827 -185 l 842 -140 q 863 -147 884 -150 q 905 -153 929 -153 l 929 -153 q 980 -153 1016 -135 q 1052 -117 1074 -85 q 1096 -53 1106 -8 q 1115 37 1115 90 l 1115 90 q 1115 139 1105 184 q 1095 228 1074 262 q 1052 295 1018 311 l 1018 311 l 1000 315 q 988 319 977 321 q 965 323 955 323 l 955 323 q 913 323 881 307 q 849 291 831 257 q 813 222 813 166 l 813 166 q 813 130 820 100 q 827 70 845 52 q 862 34 892 34 l 892 34 q 938 34 961 80 q 984 125 984 230 l 984 230 q 984 255 983 283 q 981 311 976 339 l 976 339 l 973 356 q 964 398 945 435 q 926 471 894 493 q 861 515 811 515 l 811 515 q 784 515 763 508 q 741 500 724 485 l 724 485 q 709 471 699 450 q 689 428 685 398 q 680 368 680 325 l 680 325 l 680 235 l 644 423 q 654 468 676 499 q 698 530 732 546 q 765 562 809 562 z"},"ഇ":{"ha":709,"x_min":37,"x_max":670,"o":"m 235 562 l 235 562 q 282 562 313 548 q 343 533 363 507 q 383 481 395 443 l 395 443 l 380 450 q 399 510 431 536 q 463 562 507 562 l 507 562 q 549 562 580 543 q 610 523 631 488 q 651 453 661 407 q 670 361 670 307 l 670 307 q 670 223 652 162 q 634 100 591 61 l 591 61 q 566 40 535 26 q 504 12 460 6 q 416 0 351 0 l 351 0 l 232 0 q 187 0 163 -4 q 138 -8 122 -21 l 122 -21 q 109 -29 103 -43 q 96 -57 96 -75 l 96 -75 q 96 -94 103 -108 q 110 -122 122 -132 l 122 -132 q 138 -143 164 -148 q 189 -154 231 -154 l 231 -154 l 657 -154 l 657 -201 l 226 -201 q 179 -201 147 -194 q 114 -187 89 -170 l 89 -170 q 67 -155 55 -132 q 43 -109 43 -77 l 43 -77 q 43 -48 53 -25 q 63 -3 82 12 l 82 12 q 96 24 115 32 q 133 39 160 43 q 186 46 224 46 l 224 46 l 346 46 q 406 46 444 52 q 482 57 507 67 q 532 77 550 93 l 550 93 q 589 125 603 181 q 616 237 616 306 l 616 306 q 616 359 605 407 q 593 455 569 486 q 545 516 505 516 l 505 516 q 487 516 474 510 q 460 504 450 492 l 450 492 q 430 470 422 434 q 413 397 413 336 l 413 336 l 413 121 l 361 121 l 361 331 q 361 392 353 428 q 344 464 322 485 l 322 485 q 307 501 287 509 q 267 516 236 516 l 236 516 q 202 516 176 503 q 150 489 132 466 q 114 443 103 415 q 92 386 86 356 l 86 356 q 85 353 87 349 q 88 344 87 341 l 87 341 q 86 333 86 324 q 85 315 85 304 l 85 304 q 85 230 103 192 q 120 154 160 154 l 160 154 q 191 154 206 183 q 220 211 220 258 l 220 258 q 220 286 214 308 q 208 330 194 343 q 180 356 156 356 l 156 356 q 127 356 106 340 q 85 324 66 301 l 66 301 l 49 333 q 64 353 81 368 q 98 383 119 392 q 140 401 165 401 l 165 401 q 202 401 226 382 q 250 362 262 330 q 273 298 273 258 l 273 258 q 273 212 260 179 q 247 145 222 127 q 197 109 160 109 l 160 109 q 123 109 95 130 q 67 151 52 196 q 37 240 37 310 l 37 310 q 37 382 61 439 q 85 496 130 529 q 174 562 235 562 z"},"ഈ":{"ha":1269,"x_min":37,"x_max":1228,"o":"m 235 562 l 235 562 q 282 562 313 548 q 343 533 363 507 q 383 481 395 443 l 395 443 l 380 450 q 399 510 431 536 q 463 562 507 562 l 507 562 q 549 562 580 543 q 610 523 631 488 q 651 453 661 407 q 670 361 670 307 l 670 307 q 670 223 652 162 q 634 100 591 61 l 591 61 q 566 40 535 26 q 504 12 460 6 q 416 0 351 0 l 351 0 l 232 0 q 187 0 163 -4 q 138 -8 122 -21 l 122 -21 q 109 -29 103 -43 q 96 -57 96 -75 l 96 -75 q 96 -94 103 -108 q 110 -122 122 -132 l 122 -132 q 138 -143 164 -148 q 189 -154 231 -154 l 231 -154 l 657 -154 l 657 -201 l 226 -201 q 179 -201 147 -194 q 114 -187 89 -170 l 89 -170 q 67 -155 55 -132 q 43 -109 43 -77 l 43 -77 q 43 -48 53 -25 q 63 -3 82 12 l 82 12 q 96 24 115 32 q 133 39 160 43 q 186 46 224 46 l 224 46 l 346 46 q 406 46 444 52 q 482 57 507 67 q 532 77 550 93 l 550 93 q 589 125 603 181 q 616 237 616 306 l 616 306 q 616 359 605 407 q 593 455 569 486 q 545 516 505 516 l 505 516 q 487 516 474 510 q 460 504 450 492 l 450 492 q 430 470 422 434 q 413 397 413 336 l 413 336 l 413 121 l 361 121 l 361 331 q 361 392 353 428 q 344 464 322 485 l 322 485 q 307 501 287 509 q 267 516 236 516 l 236 516 q 202 516 176 503 q 150 489 132 466 q 114 443 103 415 q 92 386 86 356 l 86 356 q 85 353 87 349 q 88 344 87 341 l 87 341 q 86 333 86 324 q 85 315 85 304 l 85 304 q 85 230 103 192 q 120 154 160 154 l 160 154 q 191 154 206 183 q 220 211 220 258 l 220 258 q 220 286 214 308 q 208 330 194 343 q 180 356 156 356 l 156 356 q 127 356 106 340 q 85 324 66 301 l 66 301 l 49 333 q 64 353 81 368 q 98 383 119 392 q 140 401 165 401 l 165 401 q 202 401 226 382 q 250 362 262 330 q 273 298 273 258 l 273 258 q 273 212 260 179 q 247 145 222 127 q 197 109 160 109 l 160 109 q 123 109 95 130 q 67 151 52 196 q 37 240 37 310 l 37 310 q 37 382 61 439 q 85 496 130 529 q 174 562 235 562 z m 1085 562 l 1085 562 q 1130 562 1162 534 q 1194 505 1211 448 q 1228 390 1228 304 l 1228 304 q 1228 195 1205 125 q 1182 55 1134 22 q 1085 -12 1009 -12 l 1009 -12 q 975 -12 937 -4 q 898 3 860 23 l 860 23 l 885 67 q 914 53 943 45 q 972 37 1007 37 l 1007 37 q 1071 37 1107 66 q 1143 95 1158 154 q 1173 213 1173 304 l 1173 304 q 1173 409 1149 462 q 1124 515 1081 515 l 1081 515 q 1064 515 1053 509 q 1042 502 1033 490 l 1033 490 q 1018 468 1013 436 q 1008 403 1008 353 l 1008 353 l 1008 258 l 956 258 l 956 356 q 956 406 951 437 q 946 467 933 486 l 933 486 q 925 500 912 508 q 898 515 880 515 l 880 515 q 840 515 820 481 q 799 446 799 393 l 799 393 q 799 359 803 327 q 807 295 814 266 l 814 266 l 765 255 q 757 287 751 322 q 745 356 745 396 l 745 396 q 745 443 760 480 q 775 517 804 540 q 833 562 876 562 l 876 562 q 916 562 944 539 q 972 516 985 465 l 985 465 l 976 465 q 991 517 1019 540 q 1046 562 1085 562 z"},"ഉ":{"ha":506,"x_min":37,"x_max":467,"o":"m 254 562 l 254 562 q 309 562 350 541 q 390 519 416 482 q 442 444 455 394 q 467 344 467 287 l 467 287 q 467 207 452 151 q 436 94 401 59 l 401 59 q 380 38 354 25 q 327 12 294 6 q 261 0 219 0 l 219 0 l 209 0 q 182 0 160 -3 q 138 -7 122 -20 l 122 -20 q 109 -29 103 -43 q 96 -57 96 -75 l 96 -75 q 96 -94 103 -108 q 110 -122 122 -132 l 122 -132 q 138 -143 164 -148 q 189 -154 231 -154 l 231 -154 l 453 -154 l 453 -201 l 226 -201 q 179 -201 147 -194 q 114 -187 89 -170 l 89 -170 q 67 -155 55 -132 q 43 -109 43 -77 l 43 -77 q 43 -48 53 -25 q 63 -2 82 13 l 82 13 q 103 30 134 38 q 165 46 208 46 l 208 46 l 211 46 q 253 47 282 52 q 310 57 329 67 q 348 77 362 92 l 362 92 q 393 124 403 174 q 413 224 413 288 l 413 288 q 413 334 404 375 q 394 416 375 448 q 355 480 325 498 q 294 516 252 516 l 252 516 q 212 516 184 503 q 155 489 135 466 q 115 443 104 415 q 92 386 86 356 l 86 356 q 85 353 87 349 q 88 344 87 341 l 87 341 q 86 333 86 324 q 85 315 85 304 l 85 304 q 85 230 103 192 q 120 154 160 154 l 160 154 q 191 154 206 183 q 220 211 220 258 l 220 258 q 220 286 214 308 q 208 330 194 343 q 180 356 156 356 l 156 356 q 128 356 107 340 q 85 324 66 301 l 66 301 l 49 333 q 64 353 81 368 q 98 383 119 392 q 140 401 165 401 l 165 401 q 202 401 226 382 q 250 362 262 330 q 273 298 273 258 l 273 258 q 273 212 260 179 q 247 145 222 127 q 197 109 160 109 l 160 109 q 123 109 95 130 q 67 151 52 196 q 37 240 37 310 l 37 310 q 37 365 52 411 q 66 457 94 491 q 121 525 161 544 q 201 562 254 562 z"},"ഊ":{"ha":1064,"x_min":37,"x_max":1023,"o":"m 254 562 l 254 562 q 309 562 350 541 q 390 519 416 482 q 442 444 455 394 q 467 344 467 287 l 467 287 q 467 207 452 151 q 436 94 401 59 l 401 59 q 380 38 354 25 q 327 12 294 6 q 261 0 219 0 l 219 0 l 209 0 q 182 0 160 -3 q 138 -7 122 -20 l 122 -20 q 109 -29 103 -43 q 96 -57 96 -75 l 96 -75 q 96 -94 103 -108 q 110 -122 122 -132 l 122 -132 q 138 -143 164 -148 q 189 -154 231 -154 l 231 -154 l 453 -154 l 453 -201 l 226 -201 q 179 -201 147 -194 q 114 -187 89 -170 l 89 -170 q 67 -155 55 -132 q 43 -109 43 -77 l 43 -77 q 43 -48 53 -25 q 63 -2 82 13 l 82 13 q 103 30 134 38 q 165 46 208 46 l 208 46 l 211 46 q 253 47 282 52 q 310 57 329 67 q 348 77 362 92 l 362 92 q 393 124 403 174 q 413 224 413 288 l 413 288 q 413 334 404 375 q 394 416 375 448 q 355 480 325 498 q 294 516 252 516 l 252 516 q 212 516 184 503 q 155 489 135 466 q 115 443 104 415 q 92 386 86 356 l 86 356 q 85 353 87 349 q 88 344 87 341 l 87 341 q 86 333 86 324 q 85 315 85 304 l 85 304 q 85 230 103 192 q 120 154 160 154 l 160 154 q 191 154 206 183 q 220 211 220 258 l 220 258 q 220 286 214 308 q 208 330 194 343 q 180 356 156 356 l 156 356 q 128 356 107 340 q 85 324 66 301 l 66 301 l 49 333 q 64 353 81 368 q 98 383 119 392 q 140 401 165 401 l 165 401 q 202 401 226 382 q 250 362 262 330 q 273 298 273 258 l 273 258 q 273 212 260 179 q 247 145 222 127 q 197 109 160 109 l 160 109 q 123 109 95 130 q 67 151 52 196 q 37 240 37 310 l 37 310 q 37 365 52 411 q 66 457 94 491 q 121 525 161 544 q 201 562 254 562 z m 880 562 l 880 562 q 925 562 957 534 q 989 505 1006 448 q 1023 390 1023 304 l 1023 304 q 1023 195 1000 125 q 977 55 929 22 q 880 -12 804 -12 l 804 -12 q 770 -12 732 -4 q 693 3 655 23 l 655 23 l 680 67 q 709 53 738 45 q 767 37 802 37 l 802 37 q 866 37 902 66 q 938 95 953 154 q 968 213 968 304 l 968 304 q 968 409 944 462 q 919 515 876 515 l 876 515 q 859 515 848 509 q 837 502 828 490 l 828 490 q 813 468 808 436 q 803 403 803 353 l 803 353 l 803 258 l 751 258 l 751 356 q 751 406 746 437 q 741 467 728 486 l 728 486 q 720 500 707 508 q 693 515 675 515 l 675 515 q 635 515 615 481 q 594 446 594 393 l 594 393 q 594 359 598 327 q 602 295 609 266 l 609 266 l 560 255 q 552 287 546 322 q 540 356 540 396 l 540 396 q 540 443 555 480 q 570 517 599 540 q 628 562 671 562 l 671 562 q 711 562 739 539 q 767 516 780 465 l 780 465 l 771 465 q 786 517 814 540 q 841 562 880 562 z"},"ഋ":{"ha":650,"x_min":37,"x_max":613,"o":"m 484 562 l 484 562 q 545 562 579 511 q 613 459 613 364 l 613 364 q 613 308 601 265 q 589 221 564 188 l 564 188 q 530 145 477 123 q 423 101 349 101 l 349 101 l 304 101 q 254 101 213 111 q 171 120 140 140 q 109 159 87 188 l 87 188 q 62 221 50 264 q 37 307 37 361 l 37 361 q 37 423 53 468 q 69 513 100 538 q 131 562 174 562 l 174 562 q 213 562 238 543 q 263 523 276 490 q 288 457 288 414 l 288 414 q 288 367 275 334 q 262 300 236 283 q 209 265 169 265 l 169 265 q 146 265 126 273 q 106 280 88 294 q 70 308 53 325 l 53 325 l 69 363 q 83 347 97 335 q 110 322 126 316 q 141 310 160 310 l 160 310 q 200 310 219 337 q 237 363 237 415 l 237 415 q 237 461 221 489 q 204 516 172 516 l 172 516 q 143 516 124 498 q 105 479 96 445 q 86 410 86 363 l 86 363 q 86 352 87 340 q 88 328 90 316 l 90 316 l 90 301 q 97 258 117 228 q 137 197 167 178 q 196 158 234 149 q 271 139 314 139 l 314 139 l 336 139 q 379 139 417 149 q 454 158 484 178 q 514 197 534 228 q 553 259 561 302 l 561 302 l 560 317 q 562 327 563 340 q 564 353 564 365 l 564 365 q 564 413 556 447 q 547 481 530 499 q 512 516 484 516 l 484 516 q 449 516 432 487 q 414 457 414 409 l 414 409 q 414 361 432 336 q 449 310 487 310 l 487 310 q 507 310 523 316 q 539 322 553 334 q 567 346 581 362 l 581 362 l 597 324 q 581 308 563 294 q 545 280 524 273 q 503 265 479 265 l 479 265 q 440 265 414 283 q 388 301 375 334 q 362 366 362 410 l 362 410 q 362 454 376 488 q 389 522 417 542 q 444 562 484 562 z m 325 -208 l 325 -208 q 238 -208 180 -188 q 121 -169 92 -130 q 62 -92 62 -36 l 62 -36 q 62 7 80 37 q 97 67 128 87 q 158 106 198 115 q 238 124 284 124 l 284 124 l 366 124 q 412 124 452 115 q 492 106 523 87 q 553 68 571 38 q 588 7 588 -35 l 588 -35 q 588 -91 560 -129 q 531 -168 473 -188 q 414 -208 325 -208 z m 326 -161 l 326 -161 q 399 -161 445 -146 q 490 -132 512 -104 q 534 -76 534 -34 l 534 -34 q 534 -1 521 23 q 507 47 481 63 q 455 78 418 85 q 380 92 332 92 l 332 92 l 319 92 q 255 92 210 79 q 165 65 141 38 q 116 10 116 -34 l 116 -34 q 116 -76 138 -104 q 159 -132 206 -146 q 252 -161 326 -161 z"},"ഌ":{"ha":845,"x_min":41,"x_max":806,"o":"m 261 562 l 261 562 q 325 562 362 532 q 398 501 417 443 l 417 443 l 426 394 l 436 280 l 436 0 l 383 0 l 383 326 q 383 388 375 425 q 367 462 345 485 l 345 485 q 331 499 311 507 q 291 515 262 515 l 262 515 q 211 515 173 481 q 134 446 113 385 q 92 324 92 244 l 92 244 l 92 222 q 92 153 103 112 q 113 70 132 53 q 151 35 178 35 l 178 35 q 197 35 212 46 q 227 57 236 83 q 245 109 245 154 l 245 154 q 245 212 227 240 q 208 268 171 268 l 171 268 q 141 268 118 253 q 95 238 72 208 l 72 208 l 57 246 q 84 278 115 296 q 146 314 180 314 l 180 314 q 215 314 242 298 q 268 281 283 246 q 297 210 297 156 l 297 156 q 297 96 282 59 q 267 22 241 5 q 214 -12 178 -12 l 178 -12 q 140 -12 109 11 q 78 33 60 87 q 41 140 41 233 l 41 233 q 41 343 70 416 q 99 489 149 526 q 198 562 261 562 z m 662 -12 l 662 -12 q 614 -12 584 14 q 554 40 540 87 q 525 133 525 194 l 525 194 q 525 293 561 342 q 597 391 658 391 l 658 391 q 691 391 715 378 q 738 364 756 340 q 774 315 788 281 l 788 281 l 772 260 q 763 280 749 300 q 735 319 716 333 q 696 346 668 346 l 668 346 q 621 346 599 307 q 577 267 577 193 l 577 193 q 577 143 586 108 q 594 72 613 53 q 632 34 663 34 l 663 34 q 691 34 712 54 q 732 73 744 119 q 755 165 755 242 l 755 242 q 755 252 754 273 q 753 294 751 308 l 751 308 q 751 312 752 317 q 752 321 750 325 l 750 325 q 743 374 722 418 q 701 461 665 488 q 628 515 572 515 l 572 515 q 541 515 519 508 q 497 500 481 485 l 481 485 q 465 471 455 450 q 445 428 441 398 q 436 368 436 325 l 436 325 l 436 235 l 399 422 q 410 467 432 499 q 454 530 488 546 q 522 562 569 562 l 569 562 q 628 562 673 539 q 717 516 747 473 q 776 430 791 371 q 806 312 806 239 l 806 239 q 806 143 788 88 q 769 33 737 11 q 704 -12 662 -12 z"},"എ":{"ha":915,"x_min":33,"x_max":874,"o":"m 171 337 l 171 337 q 216 337 247 316 q 277 295 294 259 q 310 222 310 175 l 310 175 q 310 129 295 93 q 280 56 261 34 l 261 34 l 256 46 l 628 46 l 628 0 l 235 0 l 213 36 q 232 62 245 96 q 258 129 258 169 l 258 169 q 258 230 235 261 q 212 291 172 291 l 172 291 q 145 291 125 277 q 105 262 95 236 q 85 209 85 173 l 85 173 q 85 125 101 90 q 117 54 140 23 l 140 23 l 102 -7 q 74 28 54 72 q 33 116 33 174 l 33 174 q 33 224 51 261 q 68 297 99 317 q 130 337 171 337 z m 648 562 l 648 562 q 705 562 748 537 q 790 512 818 464 q 846 416 860 347 q 874 278 874 189 l 874 189 q 874 108 860 33 q 846 -42 820 -107 q 794 -173 757 -228 l 757 -228 l 714 -200 q 746 -151 770 -93 q 793 -35 807 35 q 820 104 820 188 l 820 188 q 820 256 811 315 q 802 374 782 420 q 761 465 729 490 q 696 515 647 515 l 647 515 q 590 515 550 472 q 510 429 489 347 q 467 265 467 147 l 467 147 q 467 114 468 87 q 469 60 471 36 l 471 36 q 471 33 471 29 q 471 24 471 20 l 471 20 q 476 -54 489 -98 q 502 -143 522 -162 q 541 -182 565 -182 l 565 -182 q 584 -182 594 -172 l 594 -172 q 605 -162 609 -144 q 612 -126 612 -92 l 612 -92 l 612 411 l 665 411 l 665 -81 q 665 -124 659 -152 q 653 -181 637 -199 l 637 -199 q 626 -211 610 -219 q 593 -228 568 -228 l 568 -228 q 520 -228 486 -192 q 451 -156 433 -73 q 414 9 414 148 l 414 148 q 414 251 430 329 q 446 406 477 458 q 507 510 551 536 q 594 562 648 562 z"},"ഏ":{"ha":919,"x_min":33,"x_max":887,"o":"m 171 337 l 171 337 q 216 337 247 316 q 277 295 294 259 q 310 222 310 175 l 310 175 q 310 129 295 93 q 280 56 261 34 l 261 34 l 256 46 l 628 46 l 628 0 l 235 0 l 213 36 q 232 62 245 96 q 258 129 258 169 l 258 169 q 258 230 235 261 q 212 291 172 291 l 172 291 q 145 291 125 277 q 105 262 95 236 q 85 209 85 173 l 85 173 q 85 125 101 90 q 117 54 140 23 l 140 23 l 102 -7 q 74 28 54 72 q 33 116 33 174 l 33 174 q 33 224 51 261 q 68 297 99 317 q 130 337 171 337 z m 678 562 l 678 562 q 731 562 770 544 q 808 525 833 494 q 857 462 869 423 q 880 383 880 341 l 880 341 q 880 284 865 244 q 850 204 823 178 q 796 152 761 135 l 761 135 l 761 146 q 815 131 851 86 q 887 40 887 -38 l 887 -38 q 887 -108 869 -150 q 850 -192 818 -210 q 786 -228 745 -228 l 745 -228 q 728 -228 713 -226 q 698 -224 686 -221 l 686 -221 l 697 -176 q 707 -179 718 -180 q 729 -181 740 -181 l 740 -181 q 769 -181 790 -168 q 810 -155 822 -124 q 833 -93 833 -38 l 833 -38 q 833 30 803 71 q 773 111 716 114 l 716 114 l 716 160 q 747 171 772 192 q 797 212 812 248 q 826 284 826 339 l 826 339 q 826 389 810 429 q 794 469 761 492 q 728 515 677 515 l 677 515 q 606 515 560 471 q 513 427 490 345 q 467 262 467 147 l 467 147 q 467 114 468 87 q 469 60 471 36 l 471 36 q 471 33 471 29 q 471 24 471 20 l 471 20 q 476 -54 489 -98 q 502 -143 522 -162 q 541 -182 565 -182 l 565 -182 q 584 -182 594 -172 l 594 -172 q 605 -162 609 -144 q 612 -126 612 -92 l 612 -92 l 612 411 l 665 411 l 665 -81 q 665 -124 659 -152 q 653 -181 637 -199 l 637 -199 q 626 -211 610 -219 q 593 -228 568 -228 l 568 -228 q 521 -228 487 -192 q 452 -156 433 -73 q 414 9 414 148 l 414 148 q 414 251 432 329 q 450 406 484 458 q 518 510 567 536 q 616 562 678 562 z"},"ഐ":{"ha":1438,"x_min":39,"x_max":1397,"o":"m 176 -12 l 176 -12 q 138 -12 107 10 q 76 32 58 86 q 39 139 39 232 l 39 232 q 39 313 57 375 q 74 436 106 478 q 137 520 180 541 q 222 562 273 562 l 273 562 q 326 562 366 542 q 406 522 433 485 q 459 448 472 399 q 485 349 485 291 l 485 291 q 485 215 469 160 q 452 104 426 64 q 400 24 370 -8 l 370 -8 l 332 29 q 356 53 379 88 q 401 122 416 171 q 430 219 430 285 l 430 285 q 430 356 412 408 q 394 459 359 487 q 323 515 272 515 l 272 515 q 219 515 178 481 q 136 447 113 384 q 90 320 90 230 l 90 230 q 90 157 101 114 q 111 71 130 53 q 149 35 176 35 l 176 35 q 195 35 210 46 q 225 57 234 83 q 243 109 243 154 l 243 154 q 243 212 225 240 q 206 268 169 268 l 169 268 q 139 268 116 253 q 93 238 70 208 l 70 208 l 55 246 q 82 278 113 296 q 144 314 178 314 l 178 314 q 213 314 240 298 q 266 281 281 246 q 295 210 295 156 l 295 156 q 295 96 280 59 q 265 22 239 5 q 212 -12 176 -12 z m 695 337 l 695 337 q 740 337 771 316 q 801 295 818 259 q 834 222 834 175 l 834 175 q 834 129 819 93 q 804 56 785 34 l 785 34 l 780 46 l 1152 46 l 1152 0 l 759 0 l 737 36 q 756 62 769 96 q 782 129 782 169 l 782 169 q 782 230 759 261 q 736 291 696 291 l 696 291 q 669 291 649 277 q 629 262 619 236 q 609 209 609 173 l 609 173 q 609 125 625 90 q 641 54 664 23 l 664 23 l 626 -7 q 598 28 578 72 q 557 116 557 174 l 557 174 q 557 224 575 261 q 592 297 623 317 q 654 337 695 337 z m 1172 562 l 1172 562 q 1229 562 1272 537 q 1314 512 1342 464 q 1370 416 1384 347 q 1398 278 1398 189 l 1398 189 q 1398 108 1384 33 q 1370 -42 1344 -107 q 1318 -173 1281 -228 l 1281 -228 l 1238 -200 q 1270 -151 1294 -93 q 1317 -35 1331 35 q 1344 104 1344 188 l 1344 188 q 1344 256 1335 315 q 1326 374 1306 420 q 1285 465 1253 490 q 1220 515 1171 515 l 1171 515 q 1114 515 1074 472 q 1034 429 1013 347 q 991 265 991 147 l 991 147 q 991 114 992 87 q 993 60 995 36 l 995 36 q 995 33 995 29 q 995 24 995 20 l 995 20 q 1000 -54 1013 -98 q 1026 -143 1046 -162 q 1065 -182 1089 -182 l 1089 -182 q 1108 -182 1118 -172 l 1118 -172 q 1129 -162 1133 -144 q 1136 -126 1136 -92 l 1136 -92 l 1136 411 l 1189 411 l 1189 -81 q 1189 -124 1183 -152 q 1177 -181 1161 -199 l 1161 -199 q 1150 -211 1134 -219 q 1117 -228 1092 -228 l 1092 -228 q 1044 -228 1010 -192 q 975 -156 957 -73 q 938 9 938 148 l 938 148 q 938 251 954 329 q 970 406 1001 458 q 1031 510 1075 536 q 1118 562 1172 562 z"},"ഒ":{"ha":561,"x_min":38,"x_max":526,"o":"m 336 562 l 336 562 q 399 562 440 541 q 480 519 500 483 q 520 446 520 403 l 520 403 q 520 371 509 345 q 498 318 475 299 q 451 280 413 271 l 413 271 l 412 277 q 463 269 495 231 q 526 193 526 136 l 526 136 q 526 67 491 29 q 455 -10 391 -10 l 391 -10 q 374 -10 356 -7 q 337 -4 322 0 l 322 0 l 332 44 q 346 40 360 38 q 373 36 384 36 l 384 36 q 427 36 450 60 q 472 83 472 135 l 472 135 q 472 164 464 185 q 456 206 440 221 l 440 221 q 424 236 401 244 q 378 251 345 251 l 345 251 l 343 251 l 343 297 l 345 297 q 377 297 400 304 q 422 310 438 325 l 438 325 q 452 338 459 357 q 466 376 466 401 l 466 401 q 466 457 431 486 q 395 515 334 515 l 334 515 q 277 515 232 493 q 186 471 155 433 q 123 394 106 343 q 89 291 89 231 l 89 231 l 89 214 q 89 149 99 110 q 109 70 129 53 q 148 35 175 35 l 175 35 q 194 35 209 46 q 224 56 233 83 q 242 109 242 154 l 242 154 q 242 212 224 240 q 205 268 168 268 l 168 268 q 138 268 115 253 q 92 238 69 208 l 69 208 l 54 246 q 81 278 112 296 q 143 314 177 314 l 177 314 q 212 314 239 298 q 265 281 280 246 q 294 210 294 155 l 294 155 q 294 96 279 59 q 264 22 238 5 q 211 -12 175 -12 l 175 -12 q 137 -12 106 10 q 75 32 57 83 q 38 134 38 220 l 38 220 q 38 295 58 358 q 78 420 116 466 q 153 512 209 537 q 264 562 336 562 z"},"ഓ":{"ha":942,"x_min":38,"x_max":900,"o":"m 336 562 l 336 562 q 399 562 440 541 q 480 519 500 483 q 520 446 520 403 l 520 403 q 520 371 509 345 q 498 318 475 299 q 451 280 413 271 l 413 271 l 412 277 q 463 269 495 231 q 526 193 526 136 l 526 136 q 526 67 491 29 q 455 -10 391 -10 l 391 -10 q 374 -10 356 -7 q 337 -4 322 0 l 322 0 l 332 44 q 346 40 360 38 q 373 36 384 36 l 384 36 q 427 36 450 60 q 472 83 472 135 l 472 135 q 472 164 464 185 q 456 206 440 221 l 440 221 q 424 236 401 244 q 378 251 345 251 l 345 251 l 343 251 l 343 297 l 345 297 q 377 297 400 304 q 422 310 438 325 l 438 325 q 452 338 459 357 q 466 376 466 401 l 466 401 q 466 457 431 486 q 395 515 334 515 l 334 515 q 277 515 232 493 q 186 471 155 433 q 123 394 106 343 q 89 291 89 231 l 89 231 l 89 214 q 89 149 99 110 q 109 70 129 53 q 148 35 175 35 l 175 35 q 194 35 209 46 q 224 56 233 83 q 242 109 242 154 l 242 154 q 242 212 224 240 q 205 268 168 268 l 168 268 q 138 268 115 253 q 92 238 69 208 l 69 208 l 54 246 q 81 278 112 296 q 143 314 177 314 l 177 314 q 212 314 239 298 q 265 281 280 246 q 294 210 294 155 l 294 155 q 294 96 279 59 q 264 22 238 5 q 211 -12 175 -12 l 175 -12 q 137 -12 106 10 q 75 32 57 83 q 38 134 38 220 l 38 220 q 38 295 58 358 q 78 420 116 466 q 153 512 209 537 q 264 562 336 562 z m 901 277 l 901 277 q 901 210 893 156 q 884 102 866 65 q 847 28 817 8 q 787 -12 744 -12 l 744 -12 q 706 -12 679 3 q 651 17 633 42 q 614 67 603 99 q 591 131 585 166 l 585 166 l 638 176 q 645 141 657 109 q 668 76 689 55 q 709 34 741 34 l 741 34 q 779 34 802 62 q 825 89 836 143 q 847 197 847 277 l 847 277 q 847 356 836 409 q 825 462 803 489 q 780 516 743 516 l 743 516 q 713 516 693 497 q 672 477 660 446 q 648 414 640 376 l 640 376 l 588 387 q 595 422 607 454 q 619 485 638 510 q 656 534 683 548 q 710 562 747 562 l 747 562 q 789 562 818 543 q 847 523 866 486 q 884 449 893 396 q 901 343 901 277 z"},"ഔ":{"ha":1118,"x_min":38,"x_max":1076,"o":"m 336 562 l 336 562 q 399 562 440 541 q 480 519 500 483 q 520 446 520 403 l 520 403 q 520 371 509 345 q 498 318 475 299 q 451 280 413 271 l 413 271 l 412 277 q 463 269 495 231 q 526 193 526 136 l 526 136 q 526 67 491 29 q 455 -10 391 -10 l 391 -10 q 374 -10 356 -7 q 337 -4 322 0 l 322 0 l 332 44 q 346 40 360 38 q 373 36 384 36 l 384 36 q 427 36 450 60 q 472 83 472 135 l 472 135 q 472 164 464 185 q 456 206 440 221 l 440 221 q 424 236 401 244 q 378 251 345 251 l 345 251 l 343 251 l 343 297 l 345 297 q 377 297 400 304 q 422 310 438 325 l 438 325 q 452 338 459 357 q 466 376 466 401 l 466 401 q 466 457 431 486 q 395 515 334 515 l 334 515 q 277 515 232 493 q 186 471 155 433 q 123 394 106 343 q 89 291 89 231 l 89 231 l 89 214 q 89 149 99 110 q 109 70 129 53 q 148 35 175 35 l 175 35 q 194 35 209 46 q 224 56 233 83 q 242 109 242 154 l 242 154 q 242 212 224 240 q 205 268 168 268 l 168 268 q 138 268 115 253 q 92 238 69 208 l 69 208 l 54 246 q 81 278 112 296 q 143 314 177 314 l 177 314 q 212 314 239 298 q 265 281 280 246 q 294 210 294 155 l 294 155 q 294 96 279 59 q 264 22 238 5 q 211 -12 175 -12 l 175 -12 q 137 -12 106 10 q 75 32 57 83 q 38 134 38 220 l 38 220 q 38 295 58 358 q 78 420 116 466 q 153 512 209 537 q 264 562 336 562 z m 934 562 l 934 562 q 979 562 1011 534 q 1043 505 1060 448 q 1077 390 1077 304 l 1077 304 q 1077 195 1054 125 q 1031 55 983 22 q 934 -12 858 -12 l 858 -12 q 824 -12 786 -4 q 747 3 709 23 l 709 23 l 734 67 q 763 53 792 45 q 821 37 856 37 l 856 37 q 920 37 956 66 q 992 95 1007 154 q 1022 213 1022 304 l 1022 304 q 1022 409 998 462 q 973 515 930 515 l 930 515 q 913 515 902 509 q 891 502 882 490 l 882 490 q 867 468 862 436 q 857 403 857 353 l 857 353 l 857 258 l 805 258 l 805 356 q 805 406 800 437 q 795 467 782 486 l 782 486 q 774 500 761 508 q 747 515 729 515 l 729 515 q 689 515 669 481 q 648 446 648 393 l 648 393 q 648 359 652 327 q 656 295 663 266 l 663 266 l 614 255 q 606 287 600 322 q 594 356 594 396 l 594 396 q 594 443 609 480 q 624 517 653 540 q 682 562 725 562 l 725 562 q 765 562 793 539 q 821 516 834 465 l 834 465 l 825 465 q 840 517 868 540 q 895 562 934 562 z"},"ക":{"ha":765,"x_min":32,"x_max":733,"o":"m 171 -12 l 171 -12 q 109 -12 71 29 q 32 70 32 147 l 32 147 q 32 191 48 221 q 64 251 93 272 l 93 272 q 113 287 139 296 q 164 305 199 310 q 234 314 283 314 l 283 314 l 491 314 q 563 314 605 305 q 647 296 676 274 l 676 274 q 703 254 718 222 q 733 189 733 144 l 733 144 q 733 73 697 31 q 661 -12 596 -12 l 596 -12 q 582 -12 567 -10 q 551 -8 534 -3 l 534 -3 l 545 42 q 557 39 569 38 q 580 36 592 36 l 592 36 q 636 36 659 64 q 681 91 681 144 l 681 144 q 681 175 672 198 q 662 221 643 236 l 643 236 q 621 253 589 261 q 556 268 491 268 l 491 268 l 273 268 q 216 268 181 261 q 145 253 122 234 l 122 234 q 103 218 94 197 q 84 175 84 146 l 84 146 q 84 106 97 82 q 109 57 130 46 q 150 35 176 35 l 176 35 q 204 35 228 45 q 251 54 280 78 l 280 78 l 307 41 q 282 21 261 10 q 239 -2 218 -7 q 196 -12 171 -12 z m 383 562 l 383 562 q 440 562 476 530 q 511 497 529 434 q 546 371 546 278 l 546 278 q 546 172 526 109 q 506 45 469 17 q 432 -12 382 -12 l 382 -12 q 341 -12 313 5 q 285 21 266 50 l 266 50 q 241 89 231 149 q 220 208 220 277 l 220 277 q 220 423 262 493 q 304 562 383 562 z m 383 516 l 383 516 q 328 516 300 460 q 272 404 272 276 l 272 276 q 272 186 285 133 q 297 80 322 57 q 347 34 382 34 l 382 34 q 418 34 443 57 q 468 80 481 134 q 494 187 494 277 l 494 277 q 494 364 481 417 q 468 469 444 493 q 419 516 383 516 z"},"ഖ":{"ha":735,"x_min":40,"x_max":673,"o":"m 274 562 l 274 562 q 327 562 367 542 q 406 522 432 486 q 458 449 471 400 q 484 350 484 291 l 484 291 q 484 225 471 175 q 457 125 437 91 q 416 56 395 32 l 395 32 l 395 0 l 366 0 l 341 38 q 361 59 382 93 q 402 126 416 174 q 430 222 430 286 l 430 286 q 430 357 412 408 q 393 459 359 487 q 324 515 273 515 l 273 515 q 216 515 175 479 q 134 443 112 380 q 90 317 90 237 l 90 237 l 90 218 q 90 151 101 111 q 111 70 131 53 q 150 35 176 35 l 176 35 q 195 35 211 46 q 226 57 235 83 q 243 109 243 154 l 243 154 q 243 212 225 240 q 206 268 170 268 l 170 268 q 140 268 117 253 q 94 238 71 208 l 71 208 l 56 246 q 83 278 114 296 q 144 314 179 314 l 179 314 q 214 314 240 298 q 266 281 281 246 q 296 210 296 156 l 296 156 q 296 96 281 59 q 266 22 240 5 q 213 -12 177 -12 l 177 -12 q 139 -12 108 11 q 76 33 58 86 q 40 138 40 229 l 40 229 q 40 337 70 412 q 99 486 153 524 q 206 562 274 562 z m 620 550 l 673 550 l 673 0 l 379 0 l 389 46 l 620 46 l 620 550 z"},"ഗ":{"ha":654,"x_min":39,"x_max":615,"o":"m 446 562 l 446 562 q 500 562 538 532 q 576 501 596 443 q 615 385 615 304 l 615 304 q 615 226 600 170 q 585 113 561 71 q 536 28 508 -8 l 508 -8 l 467 26 q 492 58 514 97 q 535 135 548 186 q 561 236 561 302 l 561 302 q 561 366 548 414 q 535 462 510 489 q 484 515 446 515 l 446 515 q 425 515 410 509 q 395 502 384 489 l 384 489 q 366 467 360 432 q 354 396 354 335 l 354 335 l 354 198 q 354 161 351 130 q 347 98 338 73 q 328 48 310 28 l 310 28 q 292 10 268 -1 q 243 -12 208 -12 l 208 -12 q 155 -12 117 19 q 79 50 59 108 q 39 166 39 247 l 39 247 q 39 325 55 382 q 70 438 95 481 q 119 524 147 560 l 147 560 l 188 525 q 163 494 142 455 q 120 416 107 366 q 94 315 94 248 l 94 248 q 94 185 107 137 q 120 89 146 62 q 171 35 208 35 l 208 35 q 230 35 245 42 q 260 49 270 61 l 270 61 q 288 83 295 121 q 301 158 301 224 l 301 224 l 301 351 q 301 409 309 451 q 317 493 345 522 l 345 522 q 362 541 387 552 q 412 562 446 562 z"},"ഘ":{"ha":959,"x_min":31,"x_max":897,"o":"m 170 562 l 170 562 q 215 562 246 542 q 276 521 292 485 q 308 449 308 402 l 308 402 q 308 358 294 322 q 280 285 261 264 l 261 264 l 257 276 l 410 276 l 414 230 l 235 230 l 212 266 q 231 291 244 324 q 256 357 256 398 l 256 398 q 256 457 233 487 q 210 516 170 516 l 170 516 q 143 516 124 502 q 104 488 94 462 q 83 436 83 401 l 83 401 q 83 354 99 319 q 114 283 137 253 l 137 253 l 99 223 q 71 258 51 301 q 31 344 31 401 l 31 401 q 31 451 49 487 q 66 523 98 543 q 129 562 170 562 z m 844 550 l 897 550 l 897 0 l 386 0 l 386 337 q 386 409 400 453 q 414 496 444 522 l 444 522 q 464 542 491 552 q 518 562 554 562 l 554 562 q 588 562 615 553 q 642 543 661 524 l 661 524 q 691 498 705 455 q 718 411 718 343 l 718 343 l 718 230 l 439 230 l 439 46 l 844 46 l 844 550 z m 553 516 l 553 516 q 494 516 467 474 q 439 431 439 335 l 439 335 l 439 276 l 666 276 l 666 335 q 666 431 639 474 q 611 516 553 516 z"},"ങ":{"ha":771,"x_min":41,"x_max":737,"o":"m 261 562 l 261 562 q 325 562 362 531 q 399 500 418 440 l 418 440 l 426 394 l 436 280 l 436 0 l 383 0 l 383 326 q 383 388 375 425 q 367 462 345 485 l 345 485 q 331 499 311 507 q 291 515 262 515 l 262 515 q 211 515 173 481 q 134 446 113 385 q 92 324 92 244 l 92 244 l 92 222 q 92 153 103 112 q 113 70 132 53 q 151 35 178 35 l 178 35 q 197 35 212 46 q 227 57 236 83 q 245 109 245 154 l 245 154 q 245 212 227 240 q 208 268 171 268 l 171 268 q 141 268 118 253 q 95 238 72 208 l 72 208 l 57 246 q 84 278 115 296 q 146 314 180 314 l 180 314 q 215 314 242 298 q 268 281 283 246 q 297 210 297 156 l 297 156 q 297 96 282 59 q 267 22 241 5 q 214 -12 178 -12 l 178 -12 q 140 -12 109 11 q 78 33 60 87 q 41 140 41 233 l 41 233 q 41 343 70 416 q 99 489 149 526 q 198 562 261 562 z m 581 562 l 581 562 q 628 562 662 543 q 695 524 713 490 q 730 456 730 413 l 730 413 q 730 376 720 348 q 709 319 686 300 q 662 281 623 272 l 623 272 l 622 277 q 673 269 705 232 q 737 194 737 136 l 737 136 q 737 66 701 28 q 665 -10 601 -10 l 601 -10 q 584 -10 566 -7 q 547 -4 532 0 l 532 0 l 543 44 q 557 40 570 38 q 583 36 595 36 l 595 36 q 634 36 659 58 q 683 79 683 135 l 683 135 q 683 164 675 185 q 666 206 650 221 l 650 221 q 634 236 611 244 q 588 251 553 251 l 553 251 l 549 251 l 549 297 l 554 297 q 587 297 610 304 q 632 310 647 325 l 647 325 q 661 338 669 359 q 676 379 676 409 l 676 409 q 676 462 649 489 q 621 515 579 515 l 579 515 q 552 515 531 507 q 509 499 491 483 l 491 483 q 473 467 461 443 q 448 419 442 387 q 436 355 436 312 l 436 312 l 436 241 l 405 244 l 396 321 l 401 408 q 412 456 437 491 q 461 525 499 544 q 536 562 581 562 z"},"ച":{"ha":682,"x_min":17,"x_max":620,"o":"m 567 550 l 620 550 l 620 0 l 17 0 l 17 46 l 300 46 l 269 32 q 295 61 314 103 q 333 144 333 196 l 333 196 q 333 250 312 280 q 291 309 252 309 l 252 309 q 214 309 193 281 q 171 252 171 198 l 171 198 q 171 187 172 173 q 173 159 175 148 l 175 148 l 124 142 q 122 154 120 170 q 118 185 118 201 l 118 201 q 118 275 156 315 q 193 355 251 355 l 251 355 q 286 355 311 343 q 336 331 353 310 q 369 288 377 259 q 385 230 385 197 l 385 197 q 385 160 377 130 q 368 99 355 75 q 341 50 326 31 l 326 31 l 312 46 l 567 46 l 567 550 z"},"ഛ":{"ha":979,"x_min":17,"x_max":940,"o":"m 251 355 l 251 355 q 286 355 311 343 q 336 331 353 310 q 369 288 377 259 q 385 230 385 197 l 385 197 q 385 160 377 130 q 368 99 355 75 q 341 50 326 31 l 326 31 l 312 46 l 576 46 l 589 0 l 17 0 l 17 46 l 300 46 l 269 32 q 295 61 314 103 q 333 144 333 196 l 333 196 q 333 250 312 280 q 291 309 252 309 l 252 309 q 214 309 193 281 q 171 252 171 198 l 171 198 q 171 187 172 173 q 173 159 175 148 l 175 148 l 124 142 q 122 154 120 170 q 118 185 118 201 l 118 201 q 118 275 156 315 q 193 355 251 355 z m 705 562 l 705 562 q 764 562 808 539 q 852 516 882 473 q 911 430 926 371 q 940 312 940 239 l 940 239 q 940 143 922 88 q 903 33 871 11 q 839 -12 796 -12 l 796 -12 q 749 -12 719 14 q 688 40 674 87 q 659 133 659 194 l 659 194 q 659 293 696 342 q 732 391 793 391 l 793 391 q 826 391 849 378 q 872 364 890 340 q 908 315 923 281 l 923 281 l 907 260 q 897 280 884 300 q 870 319 850 333 q 830 346 803 346 l 803 346 q 756 346 734 307 q 712 267 712 193 l 712 193 q 712 143 721 108 q 729 72 748 53 q 767 34 797 34 l 797 34 q 826 34 847 54 q 867 73 878 119 q 889 165 889 242 l 889 242 q 889 252 888 273 q 887 294 885 308 l 885 308 q 885 312 886 317 q 886 321 885 325 l 885 325 q 877 374 857 418 q 836 461 800 488 q 763 515 707 515 l 707 515 q 650 515 611 485 q 572 455 553 404 q 533 352 533 286 l 533 286 q 533 228 545 182 q 557 135 578 100 q 598 65 622 38 l 622 38 l 596 0 l 568 0 l 562 38 q 542 62 523 97 q 504 131 492 179 q 479 226 479 290 l 479 290 q 479 346 493 396 q 507 445 536 483 q 564 520 607 541 q 649 562 705 562 z"},"ജ":{"ha":686,"x_min":32,"x_max":647,"o":"m 220 562 l 220 562 q 261 562 292 550 q 323 537 344 512 q 365 486 378 446 l 378 446 l 357 435 q 375 506 412 534 q 449 562 497 562 l 497 562 q 548 562 581 537 q 614 511 631 469 q 647 427 647 380 l 647 380 q 647 335 635 302 q 623 269 601 247 q 578 224 547 210 l 547 210 l 502 199 l 458 187 q 438 183 410 181 q 381 178 346 178 l 346 178 l 214 178 q 171 178 149 174 q 126 169 111 159 l 111 159 q 98 151 92 138 q 85 125 85 107 l 85 107 q 85 82 95 66 q 104 49 121 42 q 138 34 158 34 l 158 34 q 182 34 204 40 q 225 45 252 61 q 278 77 317 107 l 317 107 q 342 127 360 141 q 377 154 391 163 q 404 172 416 179 q 428 186 443 193 l 443 193 q 452 198 464 204 q 475 209 488 214 q 500 219 512 222 q 523 225 532 225 l 532 225 q 559 225 581 214 q 603 203 617 178 q 630 153 630 110 l 630 110 q 630 49 601 19 q 572 -12 525 -12 l 525 -12 q 487 -12 464 6 q 441 23 431 51 q 421 78 421 109 l 421 109 q 421 143 431 167 q 441 191 466 215 l 466 215 l 499 213 q 490 201 483 186 q 475 170 470 152 q 465 134 465 111 l 465 111 q 465 71 480 51 q 495 31 523 31 l 523 31 q 554 31 568 52 q 582 72 582 112 l 582 112 q 582 142 574 160 q 566 177 553 184 q 539 191 523 191 l 523 191 q 508 191 493 183 q 477 175 460 160 l 460 160 l 452 166 q 442 157 429 145 q 416 132 396 115 q 376 98 346 73 l 346 73 q 307 42 276 23 q 245 4 217 -4 q 189 -12 156 -12 l 156 -12 q 123 -12 95 1 q 66 13 49 39 q 32 65 32 105 l 32 105 q 32 135 43 158 q 54 180 75 194 l 75 194 q 96 209 124 216 q 152 222 205 222 l 205 222 l 388 222 q 426 222 456 226 q 485 229 507 237 q 529 245 546 258 l 546 258 q 569 277 581 306 q 593 335 593 377 l 593 377 q 593 411 584 443 q 574 475 552 496 q 530 517 493 517 l 493 517 q 470 517 456 511 q 441 504 431 494 l 431 494 q 410 471 403 433 q 395 395 395 338 l 395 338 l 395 260 l 344 260 l 344 333 q 344 389 337 426 q 329 463 306 487 l 306 487 q 291 502 270 510 q 248 517 218 517 l 218 517 q 175 517 144 500 q 112 482 96 449 l 96 449 q 94 445 94 441 q 94 436 92 432 l 92 432 q 88 421 87 408 q 85 394 85 379 l 85 379 q 85 326 103 306 q 121 285 146 285 l 146 285 q 168 285 180 297 q 192 308 197 327 q 202 345 202 366 l 202 366 q 202 405 188 423 q 174 441 145 441 l 145 441 q 122 441 102 429 q 81 417 64 396 l 64 396 l 59 427 q 77 449 103 463 q 128 477 156 477 l 156 477 q 187 477 209 463 q 230 449 241 425 q 252 400 252 367 l 252 367 q 252 329 240 301 q 228 273 205 258 q 181 243 147 243 l 147 243 q 99 243 70 278 q 40 313 40 382 l 40 382 q 40 433 61 474 q 82 514 122 538 q 162 562 220 562 z"},"ഝ":{"ha":1202,"x_min":39,"x_max":1163,"o":"m 489 562 l 489 562 q 525 562 553 552 q 581 542 602 523 l 602 523 q 637 491 649 443 q 660 394 660 317 l 660 317 l 660 204 q 660 150 666 116 q 672 82 690 61 l 690 61 q 701 49 717 42 q 732 35 753 35 l 753 35 q 774 35 790 43 q 805 50 815 64 l 815 64 q 832 85 838 121 q 843 157 843 216 l 843 216 l 843 550 l 896 550 l 896 216 q 896 155 905 118 q 913 81 932 61 l 932 61 q 943 48 958 42 q 973 35 993 35 l 993 35 q 1029 35 1055 64 q 1081 92 1095 141 q 1109 189 1109 248 l 1109 248 q 1109 314 1096 365 q 1083 415 1062 454 q 1040 492 1014 523 l 1014 523 l 1056 557 q 1083 522 1108 480 q 1133 437 1148 381 q 1163 324 1163 246 l 1163 246 q 1163 171 1143 113 q 1123 54 1085 21 q 1047 -12 993 -12 l 993 -12 q 946 -12 915 15 q 884 41 865 100 l 865 100 l 875 104 q 866 65 850 39 q 834 13 809 1 q 784 -12 750 -12 l 750 -12 q 717 -12 693 -1 q 668 10 652 27 l 652 27 q 636 45 626 67 q 616 88 612 119 q 608 150 608 195 l 608 195 l 608 313 q 608 357 605 390 q 601 422 592 446 q 583 469 567 484 l 567 484 q 553 500 532 509 q 511 517 482 517 l 482 517 q 459 517 438 510 q 417 503 399 489 l 399 489 l 385 478 q 351 452 329 409 q 307 365 296 313 q 284 261 284 207 l 284 207 q 284 139 296 101 q 307 63 327 49 q 346 34 370 34 l 370 34 q 396 34 416 49 q 435 63 446 101 q 457 139 457 207 l 457 207 q 457 261 446 314 q 434 367 411 411 q 388 455 354 481 l 354 481 l 343 489 q 325 504 305 511 q 285 517 262 517 l 262 517 q 207 517 169 487 q 131 456 113 404 q 94 352 94 286 l 94 286 q 94 223 107 176 q 119 128 142 93 q 164 58 191 30 l 191 30 l 153 -7 q 125 22 99 62 q 73 102 56 158 q 39 214 39 290 l 39 290 q 39 347 53 397 q 67 446 95 483 q 122 520 163 541 q 203 562 258 562 l 258 562 q 294 562 324 551 q 353 540 380 517 l 380 517 l 395 504 q 449 458 480 382 q 511 305 511 208 l 511 208 q 511 130 494 82 q 477 33 445 11 q 413 -12 370 -12 l 370 -12 q 327 -12 296 11 q 264 34 247 83 q 230 132 230 208 l 230 208 q 230 269 243 325 q 256 380 283 427 q 309 473 347 505 l 347 505 l 359 516 q 386 539 419 551 q 451 562 489 562 z"},"ഞ":{"ha":1045,"x_min":41,"x_max":1006,"o":"m 261 562 l 261 562 q 325 562 362 531 q 399 500 418 440 l 418 440 l 426 394 l 436 267 l 436 0 l 383 0 l 383 326 q 383 388 375 425 q 367 462 345 485 l 345 485 q 331 499 311 507 q 291 515 262 515 l 262 515 q 211 515 173 481 q 134 446 113 385 q 92 324 92 244 l 92 244 l 92 222 q 92 153 103 112 q 113 70 132 53 q 151 35 178 35 l 178 35 q 197 35 212 46 q 227 57 236 83 q 245 109 245 154 l 245 154 q 245 212 227 240 q 208 268 171 268 l 171 268 q 141 268 118 253 q 95 238 72 208 l 72 208 l 57 246 q 84 278 115 296 q 146 314 180 314 l 180 314 q 215 314 242 298 q 268 281 283 246 q 297 210 297 156 l 297 156 q 297 96 282 59 q 267 22 241 5 q 214 -12 178 -12 l 178 -12 q 140 -12 109 11 q 78 33 60 87 q 41 140 41 233 l 41 233 q 41 343 70 416 q 99 489 149 526 q 198 562 261 562 z m 559 562 l 559 562 q 595 562 626 551 q 656 540 683 517 l 683 517 l 698 504 q 752 458 783 382 q 814 305 814 208 l 814 208 q 814 130 797 82 q 780 33 748 11 q 716 -12 673 -12 l 673 -12 q 630 -12 599 11 q 567 34 550 83 q 533 132 533 208 l 533 208 q 533 269 547 325 q 560 380 587 426 q 613 472 651 504 l 651 504 l 664 516 q 691 539 724 551 q 756 562 794 562 l 794 562 q 847 562 887 542 q 926 521 953 484 q 979 446 993 396 q 1006 345 1006 287 l 1006 287 q 1006 214 990 159 q 973 104 947 64 q 921 24 891 -8 l 891 -8 l 853 29 q 877 53 900 88 q 922 122 937 170 q 951 218 951 284 l 951 284 q 951 350 933 403 q 915 455 880 486 q 844 517 791 517 l 791 517 q 764 517 743 510 q 722 502 703 489 l 703 489 l 689 477 q 656 452 633 409 q 610 365 599 313 q 587 261 587 207 l 587 207 q 587 139 599 101 q 610 63 630 49 q 649 34 673 34 l 673 34 q 699 34 719 49 q 738 63 749 101 q 760 139 760 207 l 760 207 q 760 261 749 314 q 737 367 714 411 q 691 455 657 481 l 657 481 l 646 489 q 634 499 621 505 q 608 511 594 514 q 579 517 561 517 l 561 517 q 532 517 512 509 q 491 500 477 485 l 477 485 q 452 461 444 422 q 436 383 436 329 l 436 329 l 436 50 l 389 50 l 390 240 l 398 420 q 408 468 430 500 q 451 531 484 547 q 516 562 559 562 z"},"ട":{"ha":404,"x_min":19,"x_max":379,"o":"m 213 562 l 213 562 q 258 562 297 553 q 336 544 379 525 l 379 525 l 353 482 q 315 499 284 507 q 252 515 214 515 l 214 515 q 165 515 136 500 q 107 484 95 459 q 83 434 83 407 l 83 407 q 83 381 90 363 q 96 344 109 332 l 109 332 q 124 317 147 311 q 170 304 202 304 l 202 304 l 205 304 q 248 303 281 292 q 314 281 337 257 l 337 257 q 354 238 364 213 q 373 187 373 151 l 373 151 q 373 103 353 67 q 333 30 292 9 q 251 -12 188 -12 l 188 -12 q 150 -12 105 -2 q 59 7 19 27 l 19 27 l 45 69 q 69 58 91 51 q 113 43 137 39 q 160 35 188 35 l 188 35 q 239 35 268 51 q 296 67 308 93 q 320 119 320 149 l 320 149 q 320 175 314 195 q 307 214 294 226 l 294 226 q 279 242 258 249 q 236 256 207 256 l 207 256 l 203 256 q 158 257 125 268 q 91 278 70 298 l 70 298 q 50 318 40 345 q 30 371 30 406 l 30 406 q 30 448 51 484 q 71 519 112 541 q 153 562 213 562 z"},"ഠ":{"ha":486,"x_min":39,"x_max":447,"o":"m 245 562 l 245 562 q 308 562 354 529 q 399 496 423 433 q 447 369 447 275 l 447 275 q 447 184 423 120 q 398 55 352 22 q 306 -12 241 -12 l 241 -12 q 174 -12 129 24 q 84 59 62 124 q 39 188 39 276 l 39 276 q 39 368 64 432 q 89 496 135 529 q 181 562 245 562 z m 242 35 l 242 35 q 291 35 325 65 q 358 94 375 148 q 392 202 392 276 l 392 276 q 392 354 375 408 q 358 461 325 488 q 292 515 244 515 l 244 515 q 174 515 134 454 q 94 393 94 276 l 94 276 q 94 156 133 96 q 171 35 242 35 z"},"ഡ":{"ha":895,"x_min":39,"x_max":856,"o":"m 443 -12 l 443 -12 q 410 -12 386 -1 q 361 10 345 27 l 345 27 q 329 45 319 67 q 309 88 305 119 q 301 150 301 195 l 301 195 l 301 327 q 301 393 295 430 q 288 467 270 489 l 270 489 q 260 502 246 509 q 231 515 208 515 l 208 515 q 171 515 146 489 q 120 462 107 414 q 94 366 94 302 l 94 302 q 94 236 107 185 q 120 134 142 96 q 163 57 188 25 l 188 25 l 147 -9 q 119 27 95 70 q 70 112 55 169 q 39 226 39 304 l 39 304 q 39 384 59 442 q 79 499 118 531 q 156 562 211 562 l 211 562 q 243 562 268 552 q 292 541 308 524 l 308 524 q 328 503 338 478 q 347 453 350 422 q 353 391 353 352 l 353 352 l 353 204 q 353 150 359 116 q 365 82 383 61 l 383 61 q 394 49 410 42 q 425 35 446 35 l 446 35 q 467 35 483 43 q 498 50 508 64 l 508 64 q 525 85 531 121 q 536 157 536 216 l 536 216 l 536 550 l 589 550 l 589 216 q 589 155 598 118 q 606 81 625 61 l 625 61 q 636 48 651 42 q 666 35 686 35 l 686 35 q 722 35 748 64 q 774 92 788 141 q 802 189 802 248 l 802 248 q 802 314 789 365 q 776 415 755 454 q 733 492 707 523 l 707 523 l 749 557 q 776 522 801 480 q 826 437 841 381 q 856 324 856 246 l 856 246 q 856 171 836 113 q 816 54 778 21 q 740 -12 686 -12 l 686 -12 q 639 -12 608 15 q 577 41 558 100 l 558 100 l 568 104 q 555 44 525 16 q 494 -12 443 -12 z"},"ഢ":{"ha":972,"x_min":39,"x_max":931,"o":"m 443 -12 l 443 -12 q 410 -12 386 -1 q 361 10 345 27 l 345 27 q 329 45 319 67 q 309 88 305 119 q 301 150 301 195 l 301 195 l 301 327 q 301 393 295 430 q 288 467 270 489 l 270 489 q 260 502 246 509 q 231 515 208 515 l 208 515 q 171 515 146 489 q 120 462 107 414 q 94 366 94 302 l 94 302 q 94 236 107 185 q 120 134 142 96 q 163 57 188 25 l 188 25 l 147 -9 q 119 27 95 70 q 70 112 55 169 q 39 226 39 304 l 39 304 q 39 384 59 442 q 79 499 118 531 q 156 562 211 562 l 211 562 q 243 562 268 552 q 292 541 308 524 l 308 524 q 328 503 338 478 q 347 453 350 422 q 353 391 353 352 l 353 352 l 353 204 q 353 150 359 116 q 365 82 383 61 l 383 61 q 394 49 410 42 q 425 35 446 35 l 446 35 q 467 35 483 43 q 498 50 508 64 l 508 64 q 525 85 531 121 q 536 157 536 216 l 536 216 l 536 550 l 589 550 l 589 252 l 568 104 q 555 44 525 16 q 494 -12 443 -12 z m 794 562 l 794 562 q 832 562 863 540 q 894 517 913 464 q 931 411 931 317 l 931 317 q 931 209 902 136 q 873 62 824 25 q 774 -12 711 -12 l 711 -12 q 647 -12 611 19 q 575 50 555 107 l 555 107 l 550 233 l 551 519 l 589 519 l 589 225 q 589 163 597 126 q 605 89 627 66 l 627 66 q 641 52 661 44 q 681 35 710 35 l 710 35 q 762 35 800 70 q 838 104 859 166 q 880 227 880 306 l 880 306 l 880 328 q 880 398 870 439 q 859 480 840 498 q 821 516 794 516 l 794 516 q 775 516 760 505 q 745 494 736 468 q 727 442 727 396 l 727 396 q 727 340 746 311 q 764 282 801 282 l 801 282 q 831 282 854 298 q 877 313 900 342 l 900 342 l 915 304 q 888 273 857 255 q 826 236 792 236 l 792 236 q 757 236 731 253 q 704 270 690 305 q 675 340 675 395 l 675 395 q 675 455 690 492 q 705 528 732 545 q 758 562 794 562 z"},"ണ":{"ha":990,"x_min":41,"x_max":951,"o":"m 261 562 l 261 562 q 325 562 361 532 q 397 501 417 442 l 417 442 l 401 443 q 418 506 451 534 q 484 562 533 562 l 533 562 q 585 562 617 535 q 649 507 663 447 l 663 447 l 653 451 q 671 510 702 536 q 733 562 781 562 l 781 562 q 834 562 872 529 q 910 496 931 438 q 951 380 951 304 l 951 304 q 951 226 936 170 q 920 113 896 71 q 871 29 843 -7 l 843 -7 l 802 27 q 827 59 849 98 q 870 136 883 186 q 896 236 896 302 l 896 302 q 896 362 882 411 q 868 459 843 487 q 817 515 781 515 l 781 515 q 760 515 746 509 q 731 503 719 490 l 719 490 q 700 469 692 433 q 683 396 683 334 l 683 334 l 683 0 l 631 0 l 631 332 q 631 396 625 431 q 618 466 600 487 l 600 487 q 589 500 573 508 q 557 515 533 515 l 533 515 q 510 515 495 508 q 479 500 468 487 l 468 487 q 448 464 442 428 q 436 392 436 331 l 436 331 l 436 0 l 383 0 l 383 326 q 383 388 375 425 q 367 462 345 485 l 345 485 q 331 499 311 507 q 291 515 262 515 l 262 515 q 211 515 173 481 q 134 447 113 386 q 92 325 92 244 l 92 244 l 92 222 q 92 153 103 112 q 113 70 132 53 q 151 35 178 35 l 178 35 q 197 35 212 46 q 227 57 236 83 q 245 109 245 154 l 245 154 q 245 212 227 240 q 208 268 171 268 l 171 268 q 141 268 118 253 q 95 238 72 208 l 72 208 l 57 246 q 84 278 115 296 q 146 314 180 314 l 180 314 q 215 314 242 298 q 268 281 283 246 q 297 210 297 156 l 297 156 q 297 96 282 59 q 267 22 241 5 q 214 -12 178 -12 l 178 -12 q 140 -12 109 11 q 78 33 60 87 q 41 140 41 233 l 41 233 q 41 343 70 416 q 99 489 149 526 q 198 562 261 562 z"},"ത":{"ha":742,"x_min":39,"x_max":703,"o":"m 370 -12 l 370 -12 q 327 -12 296 11 q 264 34 247 83 q 230 132 230 208 l 230 208 q 230 269 244 325 q 257 380 284 426 q 310 472 348 504 l 348 504 l 361 516 q 388 539 421 551 q 453 562 491 562 l 491 562 q 544 562 584 542 q 623 521 650 484 q 676 446 690 396 q 703 345 703 287 l 703 287 q 703 214 687 159 q 670 104 644 64 q 618 24 588 -8 l 588 -8 l 550 29 q 574 53 597 88 q 619 122 634 170 q 648 218 648 284 l 648 284 q 648 350 630 403 q 612 455 577 486 q 541 517 488 517 l 488 517 q 461 517 440 510 q 419 502 400 489 l 400 489 l 386 477 q 353 452 330 409 q 307 365 296 313 q 284 261 284 207 l 284 207 q 284 139 296 101 q 307 63 327 49 q 346 34 370 34 l 370 34 q 396 34 416 49 q 435 63 446 101 q 457 139 457 207 l 457 207 q 457 261 446 314 q 434 367 411 411 q 388 455 354 481 l 354 481 l 343 489 q 325 504 305 511 q 285 517 262 517 l 262 517 q 207 517 169 487 q 131 456 113 404 q 94 352 94 286 l 94 286 q 94 223 107 176 q 119 128 142 93 q 164 58 191 30 l 191 30 l 153 -7 q 125 22 99 62 q 73 102 56 158 q 39 214 39 290 l 39 290 q 39 347 53 397 q 67 446 95 483 q 122 520 163 541 q 203 562 258 562 l 258 562 q 294 562 324 551 q 353 540 380 517 l 380 517 l 395 504 q 449 458 480 382 q 511 305 511 208 l 511 208 q 511 130 494 82 q 477 33 445 11 q 413 -12 370 -12 z"},"ഥ":{"ha":662,"x_min":62,"x_max":605,"o":"m 62 550 l 115 550 l 115 46 l 286 46 l 286 0 l 62 0 l 62 550 z m 435 562 l 435 562 q 474 562 502 552 q 529 541 548 523 l 548 523 q 584 490 595 443 q 605 396 605 332 l 605 332 l 605 0 l 262 0 l 262 336 q 262 376 267 410 q 272 444 284 472 q 296 500 319 522 l 319 522 q 338 540 367 551 q 396 562 435 562 z m 435 515 l 435 515 q 407 515 387 507 q 366 498 352 484 l 352 484 q 329 458 322 418 q 315 377 315 322 l 315 322 l 315 46 l 552 46 l 552 323 q 552 378 545 419 q 538 460 514 485 l 514 485 q 501 499 482 507 q 462 515 435 515 z"},"ദ":{"ha":472,"x_min":45,"x_max":437,"o":"m 281 562 l 281 562 q 328 562 362 544 q 395 525 413 491 q 431 457 431 413 l 431 413 q 431 358 406 322 q 381 286 324 272 l 324 272 l 323 277 q 374 269 406 232 q 437 194 437 136 l 437 136 q 437 67 401 29 q 365 -10 298 -10 l 298 -10 q 276 -10 256 -7 q 235 -4 220 0 l 220 0 l 231 45 q 246 41 261 39 q 276 36 292 36 l 292 36 q 337 36 360 60 q 383 83 383 135 l 383 135 q 383 164 375 185 q 367 206 351 221 l 351 221 q 335 236 312 244 q 288 251 247 251 l 247 251 l 236 251 l 236 297 l 247 297 q 286 297 309 304 q 332 310 348 325 l 348 325 q 362 338 370 359 q 377 379 377 409 l 377 409 q 377 462 350 489 q 323 515 279 515 l 279 515 q 223 515 183 479 q 142 443 121 378 q 99 313 99 227 l 99 227 q 99 166 106 110 q 113 54 123 5 l 123 5 l 72 -5 q 61 47 53 107 q 45 166 45 224 l 45 224 q 45 328 74 404 q 102 479 155 521 q 208 562 281 562 z"},"ധ":{"ha":666,"x_min":39,"x_max":627,"o":"m 454 -12 l 454 -12 q 421 -12 396 2 q 371 15 355 41 q 338 66 328 101 l 328 101 l 337 100 q 319 41 288 15 q 257 -12 209 -12 l 209 -12 q 156 -12 118 22 q 80 55 60 113 q 39 171 39 247 l 39 247 q 39 325 55 381 q 70 437 95 480 q 119 522 147 557 l 147 557 l 188 523 q 163 492 142 454 q 120 415 107 365 q 94 315 94 248 l 94 248 q 94 189 108 141 q 122 92 148 64 q 174 35 210 35 l 210 35 q 230 35 245 42 q 260 48 271 61 l 271 61 q 290 81 299 118 q 307 155 307 216 l 307 216 l 307 550 l 359 550 l 359 220 q 359 156 367 120 q 375 83 394 61 l 394 61 q 405 49 420 42 q 434 35 453 35 l 453 35 q 490 35 517 63 q 543 90 558 139 q 572 188 572 250 l 572 250 q 572 316 559 366 q 546 416 525 454 q 504 492 478 523 l 478 523 l 520 557 q 547 522 572 480 q 596 438 612 382 q 627 326 627 249 l 627 249 q 627 171 606 113 q 585 54 547 21 q 508 -12 454 -12 z"},"ന":{"ha":666,"x_min":39,"x_max":627,"o":"m 212 562 l 212 562 q 246 562 271 549 q 295 536 312 511 q 329 486 338 450 l 338 450 l 329 451 q 347 510 378 536 q 409 562 457 562 l 457 562 q 510 562 548 529 q 586 496 607 438 q 627 380 627 304 l 627 304 q 627 226 612 170 q 596 113 572 71 q 547 29 519 -7 l 519 -7 l 478 27 q 503 59 525 97 q 546 135 559 186 q 572 236 572 302 l 572 302 q 572 362 558 411 q 544 459 518 487 q 492 515 456 515 l 456 515 q 436 515 422 509 q 407 503 395 490 l 395 490 q 376 469 368 433 q 359 396 359 334 l 359 334 l 359 0 l 307 0 l 307 331 q 307 395 299 432 q 291 468 272 489 l 272 489 q 261 502 247 509 q 232 515 213 515 l 213 515 q 177 515 150 488 q 123 460 109 412 q 94 363 94 300 l 94 300 q 94 235 107 185 q 120 135 142 97 q 163 59 188 27 l 188 27 l 146 -7 q 119 29 95 71 q 70 113 55 169 q 39 225 39 302 l 39 302 q 39 379 60 438 q 81 497 120 530 q 159 562 212 562 z"},"ഩ":{"ha":742,"x_min":41,"x_max":703,"o":"m 261 562 l 261 562 q 325 562 362 532 q 398 501 417 443 l 417 443 l 404 451 q 422 510 454 536 q 486 562 533 562 l 533 562 q 587 562 625 529 q 663 496 683 438 q 703 380 703 304 l 703 304 q 703 227 688 171 q 673 114 648 72 q 623 29 596 -7 l 596 -7 l 554 27 q 580 59 602 97 q 623 135 636 186 q 649 236 649 302 l 649 302 q 649 362 635 411 q 621 459 595 487 q 569 515 533 515 l 533 515 q 513 515 498 509 q 483 503 472 490 l 472 490 q 453 469 445 433 q 436 396 436 334 l 436 334 l 436 0 l 383 0 l 383 326 q 383 388 375 425 q 367 462 345 485 l 345 485 q 331 499 311 507 q 291 515 262 515 l 262 515 q 211 515 173 481 q 134 446 113 385 q 92 324 92 244 l 92 244 l 92 222 q 92 153 103 112 q 113 70 132 53 q 151 35 178 35 l 178 35 q 197 35 212 46 q 227 57 236 83 q 245 109 245 154 l 245 154 q 245 212 227 240 q 208 268 171 268 l 171 268 q 141 268 118 253 q 95 238 72 208 l 72 208 l 57 246 q 84 278 115 296 q 146 314 180 314 l 180 314 q 215 314 242 298 q 268 281 283 246 q 297 210 297 156 l 297 156 q 297 96 282 59 q 267 22 241 5 q 214 -12 178 -12 l 178 -12 q 140 -12 109 11 q 78 33 60 87 q 41 140 41 233 l 41 233 q 41 343 70 416 q 99 489 149 526 q 198 562 261 562 z"},"പ":{"ha":654,"x_min":33,"x_max":592,"o":"m 171 337 l 171 337 q 216 337 247 316 q 278 295 294 259 q 310 222 310 175 l 310 175 q 310 129 295 93 q 280 56 261 34 l 261 34 l 257 46 l 540 46 l 540 550 l 592 550 l 592 0 l 235 0 l 212 36 q 232 62 245 96 q 258 129 258 170 l 258 170 q 258 230 235 261 q 212 291 172 291 l 172 291 q 145 291 125 277 q 105 262 95 236 q 85 209 85 173 l 85 173 q 85 125 101 90 q 117 54 140 23 l 140 23 l 102 -7 q 74 28 54 72 q 33 116 33 173 l 33 173 q 33 224 51 261 q 68 297 99 317 q 130 337 171 337 z"},"ഫ":{"ha":828,"x_min":33,"x_max":771,"o":"m 171 337 l 171 337 q 216 337 247 316 q 278 295 294 259 q 310 222 310 175 l 310 175 q 310 129 295 93 q 280 56 261 34 l 261 34 l 257 46 l 458 46 l 458 0 l 235 0 l 212 36 q 232 62 245 96 q 258 129 258 170 l 258 170 q 258 230 235 261 q 212 291 172 291 l 172 291 q 145 291 125 277 q 105 262 95 236 q 85 209 85 173 l 85 173 q 85 125 101 90 q 117 54 140 23 l 140 23 l 102 -7 q 74 28 54 72 q 33 116 33 173 l 33 173 q 33 224 51 261 q 68 297 99 317 q 130 337 171 337 z m 601 562 l 601 562 q 640 562 668 552 q 695 541 714 523 l 714 523 q 750 490 761 443 q 771 396 771 332 l 771 332 l 771 0 l 428 0 l 428 336 q 428 376 433 410 q 437 444 450 472 q 462 500 485 522 l 485 522 q 504 540 533 551 q 562 562 601 562 z m 601 515 l 601 515 q 573 515 553 507 q 532 498 518 484 l 518 484 q 495 458 488 418 q 481 377 481 322 l 481 322 l 481 46 l 718 46 l 718 323 q 718 378 711 419 q 704 460 680 485 l 680 485 q 667 499 648 507 q 628 515 601 515 z"},"ബ":{"ha":954,"x_min":41,"x_max":892,"o":"m 261 562 l 261 562 q 325 562 362 532 q 398 501 417 443 l 417 443 l 427 393 l 436 267 l 436 0 l 383 0 l 383 326 q 383 388 375 425 q 367 462 345 485 l 345 485 q 331 499 311 507 q 291 515 262 515 l 262 515 q 211 515 173 481 q 134 446 113 385 q 92 324 92 244 l 92 244 l 92 222 q 92 153 103 112 q 113 70 132 53 q 151 35 178 35 l 178 35 q 197 35 212 46 q 227 57 236 83 q 245 109 245 154 l 245 154 q 245 212 227 240 q 208 268 171 268 l 171 268 q 141 268 118 253 q 95 238 72 208 l 72 208 l 57 246 q 84 278 115 296 q 146 314 180 314 l 180 314 q 215 314 242 298 q 268 281 283 246 q 297 210 297 156 l 297 156 q 297 96 282 59 q 267 22 241 5 q 214 -12 178 -12 l 178 -12 q 140 -12 109 11 q 78 33 60 87 q 41 140 41 233 l 41 233 q 41 343 70 416 q 99 489 149 526 q 198 562 261 562 z m 839 550 l 892 550 l 892 0 l 587 0 l 563 33 q 585 65 605 102 q 624 139 637 188 q 649 236 649 302 l 649 302 q 649 362 635 411 q 621 459 595 487 q 569 515 533 515 l 533 515 q 513 515 498 509 q 483 503 472 490 l 472 490 q 453 469 445 433 q 436 396 436 335 l 436 335 l 436 10 l 389 10 l 389 263 l 406 390 l 404 450 q 422 510 454 536 q 486 562 533 562 l 533 562 q 587 562 625 529 q 663 496 683 438 q 703 380 703 304 l 703 304 q 703 236 691 186 q 679 135 660 99 q 641 62 620 33 l 620 33 l 618 46 l 839 46 l 839 550 z"},"ഭ":{"ha":482,"x_min":45,"x_max":453,"o":"m 299 562 l 299 562 q 345 562 380 546 q 414 530 434 500 q 453 470 453 427 l 453 427 q 453 401 445 381 q 437 360 423 347 l 423 347 q 408 334 386 328 q 364 322 332 321 l 332 321 l 330 321 q 313 321 299 318 q 285 315 275 308 l 275 308 q 266 302 261 293 q 255 283 255 269 l 255 269 q 255 240 274 228 q 293 215 330 215 l 330 215 l 332 215 q 362 215 387 206 q 411 197 427 179 l 427 179 q 439 166 446 149 q 453 131 453 108 l 453 108 q 453 73 439 46 q 425 19 394 4 q 362 -12 308 -12 l 308 -12 q 295 -12 275 -10 q 255 -8 233 -3 q 211 1 192 8 l 192 8 l 211 53 q 238 43 263 40 q 287 36 311 36 l 311 36 q 364 36 383 55 q 402 74 402 107 l 402 107 q 402 135 384 152 q 366 169 324 169 l 324 169 l 322 169 q 291 170 269 177 q 247 184 234 197 l 234 197 q 220 210 213 228 q 205 246 205 268 l 205 268 q 205 291 214 311 q 222 330 240 343 l 240 343 q 256 354 277 360 q 297 366 331 367 l 331 367 l 332 367 q 370 368 386 383 q 401 397 401 428 l 401 428 q 401 469 374 492 q 347 515 298 515 l 298 515 q 231 515 187 479 q 143 443 121 378 q 99 313 99 227 l 99 227 q 99 166 106 110 q 113 54 123 5 l 123 5 l 72 -5 q 61 47 53 107 q 45 166 45 224 l 45 224 q 45 327 74 403 q 103 479 160 521 q 216 562 299 562 z"},"മ":{"ha":532,"x_min":54,"x_max":478,"o":"m 264 562 l 264 562 q 317 562 356 546 q 395 530 420 500 l 420 500 q 441 476 454 444 q 467 412 473 372 q 478 332 478 279 l 478 279 l 478 0 l 54 0 l 54 279 q 54 332 60 373 q 66 414 79 446 q 92 477 112 501 l 112 501 q 138 530 175 546 q 212 562 264 562 z m 227 513 l 227 513 q 201 513 180 499 q 159 484 144 456 l 144 456 q 126 427 116 383 q 106 338 106 263 l 106 263 l 106 43 l 110 44 q 162 100 203 161 q 244 222 268 285 q 292 348 292 408 l 292 408 q 292 438 286 462 q 280 486 266 500 q 252 513 227 513 z m 346 403 l 346 403 q 346 338 322 275 q 298 212 256 151 q 214 90 160 28 l 160 28 l 155 43 q 177 45 208 46 q 239 46 261 46 l 261 46 l 426 46 l 426 274 q 426 350 413 402 q 399 453 370 482 q 341 511 292 517 l 292 517 l 291 521 q 320 504 333 474 q 346 443 346 403 z"},"യ":{"ha":766,"x_min":39,"x_max":724,"o":"m 495 -12 l 495 -12 q 461 -12 431 -3 q 401 6 375 24 l 375 24 q 371 27 367 32 q 363 36 359 39 l 359 39 q 319 74 294 124 q 269 173 257 231 q 245 289 245 348 l 245 348 q 245 389 253 427 q 261 464 276 493 l 276 493 l 286 506 q 298 524 314 537 q 329 549 349 556 q 368 562 392 562 l 392 562 q 459 562 498 508 q 536 453 536 344 l 536 344 q 536 244 507 164 q 478 83 418 36 l 418 36 q 416 33 411 30 q 406 27 403 24 l 403 24 q 376 6 345 -3 q 313 -12 275 -12 l 275 -12 q 219 -12 175 12 q 131 36 101 81 q 70 125 55 188 q 39 250 39 327 l 39 327 q 39 404 60 457 q 80 509 117 536 q 153 562 199 562 l 199 562 q 240 562 268 545 q 295 528 321 500 l 321 500 l 283 468 q 266 492 247 504 q 227 516 203 516 l 203 516 q 173 516 148 497 q 123 477 108 436 q 93 394 93 326 l 93 326 q 93 236 115 171 q 136 105 177 70 q 218 34 275 34 l 275 34 q 303 34 325 39 q 346 43 364 53 l 364 53 q 368 56 373 59 q 377 61 381 63 l 381 63 q 417 90 440 135 q 462 179 472 234 q 482 288 482 343 l 482 343 q 482 407 471 445 q 459 482 439 499 q 419 516 392 516 l 392 516 q 363 516 342 498 q 321 480 310 442 q 299 404 299 345 l 299 345 q 299 299 309 245 q 318 191 340 143 q 362 95 398 66 l 398 66 q 401 63 405 61 q 409 58 413 56 l 413 56 q 430 45 450 40 q 470 34 494 34 l 494 34 q 557 34 596 66 q 634 97 652 156 q 670 214 670 294 l 670 294 q 670 359 653 422 q 636 485 604 538 l 604 538 l 652 562 q 686 505 705 438 q 724 371 724 299 l 724 299 q 724 228 711 171 q 697 113 670 72 q 642 31 599 10 q 555 -12 495 -12 z"},"ര":{"ha":540,"x_min":39,"x_max":501,"o":"m 265 562 l 265 562 q 324 562 368 539 q 412 516 442 473 q 471 430 486 371 q 501 312 501 239 l 501 239 q 501 143 483 88 q 464 33 432 11 q 399 -12 357 -12 l 357 -12 q 309 -12 279 14 q 249 40 235 87 q 220 133 220 194 l 220 194 q 220 293 256 342 q 292 391 353 391 l 353 391 q 386 391 410 378 q 433 364 451 340 q 469 315 483 281 l 483 281 l 467 260 q 458 280 444 300 q 430 319 411 333 q 391 346 363 346 l 363 346 q 316 346 294 307 q 272 267 272 193 l 272 193 q 272 143 281 108 q 289 72 308 53 q 327 34 358 34 l 358 34 q 386 34 407 54 q 427 73 439 119 q 450 165 450 242 l 450 242 q 450 252 449 273 q 448 294 446 308 l 446 308 q 446 312 447 317 q 447 321 445 325 l 445 325 q 438 374 417 418 q 396 461 360 488 q 323 515 268 515 l 268 515 q 211 515 172 485 q 133 455 114 404 q 94 352 94 286 l 94 286 q 94 224 107 177 q 119 129 142 94 q 164 58 191 30 l 191 30 l 153 -7 q 125 22 99 63 q 73 103 56 159 q 39 215 39 290 l 39 290 q 39 346 54 396 q 68 445 96 483 q 124 520 167 541 q 209 562 265 562 z"},"റ":{"ha":495,"x_min":39,"x_max":456,"o":"m 250 562 l 250 562 q 302 562 341 542 q 379 521 405 485 q 431 448 444 399 q 456 349 456 291 l 456 291 q 456 215 440 160 q 424 104 398 64 q 372 24 341 -8 l 341 -8 l 304 29 q 327 53 350 88 q 372 122 387 171 q 402 219 402 286 l 402 286 q 402 357 384 408 q 366 459 332 487 q 298 515 249 515 l 249 515 q 200 515 165 486 q 130 456 112 405 q 94 353 94 287 l 94 287 q 94 225 107 178 q 119 130 142 94 q 164 58 191 30 l 191 30 l 153 -7 q 125 21 99 62 q 73 102 56 159 q 39 215 39 290 l 39 290 q 39 348 53 398 q 66 447 93 484 q 120 521 160 542 q 199 562 250 562 z"},"ല":{"ha":631,"x_min":58,"x_max":569,"o":"m 516 550 l 569 550 l 569 0 l 58 0 l 58 337 q 58 401 69 443 q 80 484 103 511 l 103 511 q 125 537 156 550 q 186 562 226 562 l 226 562 q 266 562 296 550 q 325 537 346 512 l 346 512 q 369 485 380 444 q 390 403 390 343 l 390 343 l 390 230 l 111 230 l 111 46 l 516 46 l 516 550 z m 225 516 l 225 516 q 166 516 139 474 q 111 431 111 335 l 111 335 l 111 276 l 338 276 l 338 335 q 338 431 311 474 q 283 516 225 516 z"},"ള":{"ha":534,"x_min":37,"x_max":499,"o":"m 300 516 l 300 516 q 256 516 221 505 q 186 493 159 471 q 132 449 115 421 q 97 392 88 358 l 88 358 q 87 353 88 349 q 88 344 88 338 l 88 338 q 87 330 86 320 q 85 310 85 301 l 85 301 q 85 228 103 191 q 120 154 160 154 l 160 154 q 191 154 206 183 q 220 211 220 258 l 220 258 q 220 286 214 308 q 208 330 194 343 q 180 356 156 356 l 156 356 q 128 356 107 340 q 85 324 66 301 l 66 301 l 49 333 q 65 352 82 367 q 99 382 120 392 q 140 401 165 401 l 165 401 q 202 401 226 382 q 250 362 262 330 q 273 298 273 258 l 273 258 q 273 212 260 179 q 247 145 222 127 q 197 109 160 109 l 160 109 q 123 109 95 130 q 67 150 52 193 q 37 235 37 300 l 37 300 q 37 354 54 402 q 71 449 104 485 q 137 521 187 542 q 237 562 302 562 l 302 562 q 363 562 406 542 q 448 522 471 486 q 493 450 493 402 l 493 402 q 493 371 481 343 q 469 314 442 294 q 415 274 369 267 l 369 267 l 321 278 l 321 297 l 325 297 q 351 297 373 303 q 394 309 409 323 l 409 323 q 423 335 431 354 q 439 373 439 399 l 439 399 q 439 435 423 461 q 406 487 375 502 q 344 516 300 516 z m 499 146 l 499 146 q 499 110 488 82 q 476 53 454 35 l 454 35 q 438 23 420 15 q 402 7 379 4 q 355 0 320 0 l 320 0 l 232 0 q 187 0 163 -4 q 138 -8 122 -21 l 122 -21 q 109 -29 103 -43 q 96 -57 96 -75 l 96 -75 q 96 -94 103 -108 q 110 -122 122 -132 l 122 -132 q 138 -143 164 -148 q 189 -154 231 -154 l 231 -154 l 474 -154 l 474 -201 l 226 -201 q 179 -201 147 -194 q 114 -187 89 -170 l 89 -170 q 67 -155 55 -132 q 43 -109 43 -77 l 43 -77 q 43 -48 53 -25 q 63 -3 82 12 l 82 12 q 96 24 115 32 q 133 39 160 43 q 186 46 224 46 l 224 46 l 315 46 q 355 46 378 52 q 401 57 416 70 l 416 70 q 431 83 438 102 q 445 121 445 147 l 445 147 q 445 173 437 193 q 428 212 412 225 l 412 225 q 396 238 375 245 q 354 251 324 251 l 324 251 l 321 251 l 321 282 l 370 282 q 427 275 463 240 q 499 204 499 146 z"},"ഴ":{"ha":491,"x_min":37,"x_max":454,"o":"m 202 420 l 202 420 q 202 483 237 523 q 271 562 327 562 l 327 562 q 371 562 399 540 q 427 517 441 481 q 454 444 454 400 l 454 400 q 454 330 431 276 q 408 222 365 192 q 322 161 263 161 l 263 161 l 253 161 q 186 161 138 189 q 89 216 63 268 q 37 320 37 393 l 37 393 q 37 438 49 480 q 60 521 83 561 l 83 561 l 126 537 q 107 499 99 465 q 90 431 90 393 l 90 393 q 90 329 111 288 q 132 246 169 226 q 205 206 252 206 l 252 206 l 263 206 q 308 206 339 231 q 369 255 385 299 q 401 342 401 399 l 401 399 q 401 449 384 483 q 366 517 328 517 l 328 517 q 305 517 288 504 q 271 490 263 468 q 254 446 254 417 l 254 417 q 254 375 265 338 q 275 300 289 265 q 303 229 314 193 q 324 157 324 119 l 324 119 q 324 84 312 55 q 300 25 273 7 q 245 -12 199 -12 l 199 -12 q 170 -12 140 -6 q 110 0 84 13 l 84 13 l 103 56 q 125 46 149 41 q 172 35 196 35 l 196 35 q 239 35 256 59 q 273 82 273 122 l 273 122 q 273 158 263 193 q 252 228 238 264 q 223 300 213 339 q 202 377 202 420 z"},"വ":{"ha":707,"x_min":39,"x_max":645,"o":"m 250 562 l 250 562 q 302 562 341 542 q 379 521 405 485 q 431 448 444 399 q 456 349 456 291 l 456 291 q 456 225 443 175 q 429 125 409 91 q 388 56 367 32 l 367 32 l 367 46 l 592 46 l 592 550 l 645 550 l 645 0 l 338 0 l 313 38 q 333 59 354 93 q 374 126 388 174 q 402 222 402 286 l 402 286 q 402 357 384 408 q 366 459 332 487 q 298 515 249 515 l 249 515 q 200 515 165 486 q 130 456 112 405 q 94 353 94 287 l 94 287 q 94 225 107 178 q 119 130 142 94 q 164 58 191 30 l 191 30 l 153 -7 q 125 21 99 62 q 73 102 56 159 q 39 215 39 290 l 39 290 q 39 348 53 398 q 66 447 93 484 q 120 521 160 542 q 199 562 250 562 z"},"ശ":{"ha":754,"x_min":39,"x_max":715,"o":"m 487 562 l 487 562 q 544 562 587 539 q 629 516 658 473 q 687 430 701 371 q 715 312 715 239 l 715 239 q 715 143 697 88 q 678 33 646 11 q 614 -12 571 -12 l 571 -12 q 524 -12 494 14 q 463 40 449 87 q 434 133 434 194 l 434 194 q 434 293 471 342 q 507 391 568 391 l 568 391 q 601 391 624 378 q 647 364 665 340 q 683 315 698 281 l 698 281 l 682 260 q 672 280 659 300 q 645 319 625 333 q 605 346 578 346 l 578 346 q 531 346 509 307 q 487 267 487 193 l 487 193 q 487 143 496 108 q 504 72 523 53 q 542 34 572 34 l 572 34 q 601 34 622 54 q 642 73 653 119 q 664 165 664 242 l 664 242 q 664 252 663 273 q 662 294 660 308 l 660 308 q 660 312 661 317 q 661 321 660 325 l 660 325 q 652 376 632 420 q 611 463 576 489 q 540 515 486 515 l 486 515 q 460 515 439 508 q 418 501 402 486 l 402 486 q 374 461 364 418 q 353 374 353 293 l 353 293 l 353 198 q 353 141 345 99 q 336 57 309 28 l 309 28 q 291 10 267 -1 q 242 -12 208 -12 l 208 -12 q 155 -12 117 19 q 79 50 59 108 q 39 166 39 247 l 39 247 q 39 325 55 382 q 70 438 95 481 q 119 524 147 560 l 147 560 l 188 525 q 163 494 142 455 q 120 416 107 366 q 94 315 94 248 l 94 248 q 94 185 107 137 q 120 89 146 62 q 171 35 208 35 l 208 35 q 229 35 244 42 q 258 49 269 61 l 269 61 q 287 83 293 121 q 299 158 299 224 l 299 224 l 299 320 q 299 390 312 436 q 325 482 359 516 l 359 516 q 380 537 414 550 q 447 562 487 562 z"},"ഷ":{"ha":837,"x_min":33,"x_max":775,"o":"m 171 337 l 171 337 q 216 337 247 316 q 277 295 294 259 q 310 222 310 175 l 310 175 q 310 129 295 93 q 280 56 261 34 l 261 34 l 256 46 l 502 46 l 509 0 l 235 0 l 213 36 q 232 62 245 96 q 258 129 258 169 l 258 169 q 258 230 235 261 q 212 291 172 291 l 172 291 q 145 291 125 277 q 105 262 95 236 q 85 209 85 173 l 85 173 q 85 125 101 90 q 117 54 140 23 l 140 23 l 102 -7 q 74 28 54 72 q 33 116 33 174 l 33 174 q 33 224 51 261 q 68 297 99 317 q 130 337 171 337 z m 775 0 l 484 0 l 484 406 q 484 445 480 468 q 475 491 465 503 l 465 503 q 459 509 452 513 q 444 516 434 516 l 434 516 q 406 516 390 489 q 373 462 373 413 l 373 413 q 373 375 384 347 q 394 319 418 305 q 442 291 481 291 l 481 291 l 508 291 q 547 291 578 308 q 609 325 635 358 q 660 391 683 440 q 705 488 726 550 l 726 550 l 775 550 l 775 0 z m 435 562 l 435 562 q 458 562 475 555 q 492 548 504 535 l 504 535 q 524 515 530 485 q 536 454 536 408 l 536 408 l 536 46 l 723 46 l 723 350 q 723 373 724 395 q 724 417 726 436 q 727 455 728 468 l 728 468 l 731 464 q 707 387 674 339 q 640 290 599 268 q 557 245 508 245 l 508 245 l 487 245 q 431 245 394 266 q 357 286 339 324 q 321 362 321 415 l 321 415 q 321 452 334 486 q 346 520 372 541 q 397 562 435 562 z"},"സ":{"ha":895,"x_min":39,"x_max":856,"o":"m 455 562 l 455 562 q 485 562 510 552 q 534 541 551 524 l 551 524 q 568 506 577 485 q 586 463 591 433 q 595 402 595 355 l 595 355 l 595 224 q 595 158 601 121 q 607 83 625 61 l 625 61 q 636 49 651 42 q 665 35 687 35 l 687 35 q 725 35 751 62 q 776 89 789 137 q 802 185 802 248 l 802 248 q 802 315 789 366 q 776 416 755 455 q 733 494 707 525 l 707 525 l 749 560 q 776 524 801 481 q 826 438 841 382 q 856 325 856 247 l 856 247 q 856 166 836 108 q 816 50 778 19 q 740 -12 687 -12 l 687 -12 q 653 -12 628 -1 q 603 10 586 28 l 586 28 q 568 48 559 73 q 549 98 546 130 q 542 161 542 198 l 542 198 l 542 347 q 542 401 536 435 q 530 469 512 490 l 512 490 q 502 502 487 509 q 471 515 450 515 l 450 515 q 429 515 413 508 q 397 501 387 487 l 387 487 q 371 466 365 430 q 359 394 359 335 l 359 335 l 359 0 l 307 0 l 307 334 q 307 396 299 433 q 290 469 271 490 l 271 490 q 260 503 245 509 q 230 515 209 515 l 209 515 q 174 515 148 487 q 122 459 108 411 q 94 362 94 302 l 94 302 q 94 236 107 186 q 120 136 142 98 q 163 59 188 27 l 188 27 l 147 -7 q 119 29 95 72 q 70 114 55 171 q 39 227 39 304 l 39 304 q 39 380 60 438 q 80 496 118 529 q 156 562 209 562 l 209 562 q 257 562 288 536 q 319 510 337 451 l 337 451 l 328 447 q 341 506 372 534 q 403 562 455 562 z"},"ഹ":{"ha":867,"x_min":33,"x_max":828,"o":"m 171 337 l 171 337 q 216 337 247 316 q 277 295 294 259 q 310 222 310 175 l 310 175 q 310 129 295 93 q 280 56 261 34 l 261 34 l 256 46 l 519 46 l 527 0 l 235 0 l 213 36 q 232 62 245 96 q 258 129 258 169 l 258 169 q 258 230 235 261 q 212 291 172 291 l 172 291 q 145 291 125 277 q 105 262 95 236 q 85 209 85 173 l 85 173 q 85 125 101 90 q 117 54 140 23 l 140 23 l 102 -7 q 74 28 54 72 q 33 116 33 174 l 33 174 q 33 224 51 261 q 68 297 99 317 q 130 337 171 337 z m 622 562 l 622 562 q 674 562 713 542 q 751 521 777 485 q 803 448 816 399 q 828 349 828 291 l 828 291 q 828 215 812 160 q 796 104 770 64 q 744 24 713 -8 l 713 -8 l 676 29 q 699 53 722 88 q 744 122 759 171 q 774 219 774 286 l 774 286 q 774 357 756 408 q 737 459 704 487 q 670 515 621 515 l 621 515 q 572 515 537 486 q 502 456 484 405 q 466 353 466 287 l 466 287 q 466 228 478 182 q 490 135 511 100 q 531 65 554 38 l 554 38 l 528 0 l 510 0 l 494 38 q 475 62 456 97 q 437 132 424 180 q 411 227 411 290 l 411 290 q 411 348 425 398 q 438 447 465 484 q 492 521 531 542 q 570 562 622 562 z"},"ഺ":{"ha":560,"x_min":22,"x_max":544,"o":"m 81 46 l 544 46 l 544 0 l 337 0 l 337 -202 l 285 -202 l 285 0 l 54 0 l 22 38 l 219 559 l 269 542 l 81 46 z"},"഻":{"ha":0,"x_min":-302,"x_max":-255,"o":"m -302 583 l -302 864 l -255 864 l -255 583 l -302 583 z"},"഼":{"ha":0,"x_min":-188,"x_max":11,"o":"m -188 723 l -188 723 q -188 784 -160 817 q -132 850 -89 850 l -89 850 q -45 850 -17 818 q 11 785 11 723 l 11 723 q 11 662 -16 629 q -44 596 -89 596 l -89 596 q -133 596 -160 629 q -188 662 -188 723 z m -142 724 l -142 724 q -142 683 -128 661 q -114 639 -89 639 l -89 639 q -63 639 -48 661 q -34 683 -34 724 l -34 724 q -34 764 -48 786 q -63 807 -89 807 l -89 807 q -114 807 -128 786 q -142 764 -142 724 z"},"ഽ":{"ha":343,"x_min":-54,"x_max":397,"o":"m 272 788 l 272 788 q 309 788 335 770 q 360 751 375 719 q 390 687 397 647 l 397 647 l 345 636 q 340 666 331 690 q 322 714 308 728 q 294 742 270 742 l 270 742 q 257 742 247 739 q 236 735 227 727 l 227 727 q 210 711 204 679 q 198 647 198 599 l 198 599 l 198 -55 q 198 -124 187 -160 q 176 -196 151 -217 l 151 -217 q 135 -231 116 -237 q 96 -244 71 -244 l 71 -244 q 34 -244 9 -225 q -16 -207 -31 -175 q -47 -143 -54 -102 l -54 -102 l -2 -91 q 3 -121 12 -145 q 21 -169 36 -183 q 50 -198 73 -198 l 73 -198 q 87 -198 97 -194 q 107 -190 116 -182 l 116 -182 q 133 -166 139 -134 q 145 -103 145 -55 l 145 -55 l 145 600 q 145 669 157 705 q 168 741 192 762 l 192 762 q 208 776 228 782 q 247 788 272 788 z"},"ാ":{"ha":377,"x_min":20,"x_max":336,"o":"m 336 277 l 336 277 q 336 210 328 156 q 319 102 301 65 q 282 28 252 8 q 222 -12 179 -12 l 179 -12 q 141 -12 114 3 q 86 17 68 42 q 49 67 38 99 q 26 131 20 166 l 20 166 l 73 176 q 80 141 92 109 q 103 76 124 55 q 144 34 176 34 l 176 34 q 214 34 237 62 q 260 89 271 143 q 282 197 282 277 l 282 277 q 282 356 271 409 q 260 462 238 489 q 215 516 178 516 l 178 516 q 148 516 128 497 q 107 477 95 446 q 83 414 75 376 l 75 376 l 23 387 q 30 422 42 454 q 54 485 73 510 q 91 534 118 548 q 145 562 182 562 l 182 562 q 224 562 253 543 q 282 523 301 486 q 319 449 328 396 q 336 343 336 277 z"},"ി":{"ha":177,"x_min":-158,"x_max":115,"o":"m -26 843 l -26 843 q 0 843 23 835 q 46 827 63 812 l 63 812 q 82 794 94 769 q 105 744 110 708 q 115 671 115 620 l 115 620 l 115 0 l 62 0 l 62 591 q 62 642 60 678 q 57 714 49 739 q 41 763 26 778 l 26 778 q 17 788 5 793 q -8 797 -25 797 l -25 797 q -46 797 -64 787 q -82 777 -93 755 q -105 732 -105 696 l -105 696 q -105 679 -103 664 q -101 648 -99 637 l -99 637 l -151 629 q -154 642 -156 659 q -158 675 -158 697 l -158 697 q -158 744 -139 777 q -121 809 -91 826 q -61 843 -26 843 z"},"ീ":{"ha":177,"x_min":-214,"x_max":115,"o":"m -76 843 l -76 843 q -38 843 -9 833 q 20 822 41 805 l 41 805 q 83 771 99 718 q 115 664 115 579 l 115 579 l 115 0 l 62 0 l 62 561 q 62 613 59 652 q 55 690 45 719 q 35 747 15 766 l 15 766 q -1 784 -23 793 q -45 801 -81 801 l -81 801 q -102 801 -122 792 q -142 782 -155 762 q -168 742 -168 710 l -168 710 q -168 667 -152 650 q -136 633 -111 633 l -111 633 q -83 633 -69 653 q -56 672 -56 706 l -56 706 q -56 736 -66 762 q -77 788 -96 807 l -96 807 l -47 803 q -34 788 -23 763 q -13 738 -13 706 l -13 706 q -13 673 -23 646 q -33 619 -55 604 q -78 588 -112 588 l -112 588 q -142 588 -165 602 q -188 616 -201 644 q -214 671 -214 711 l -214 711 q -214 752 -196 782 q -178 812 -146 828 q -115 843 -76 843 z"},"ു":{"ha":242,"x_min":-14,"x_max":245,"o":"m 116 -223 l 116 -223 q 55 -223 21 -178 q -14 -134 -14 -54 l -14 -54 q -14 1 2 39 q 18 76 47 96 q 76 115 115 115 l 115 115 q 155 115 184 96 q 213 76 229 39 q 245 1 245 -53 l 245 -53 q 245 -107 229 -145 q 213 -183 184 -203 q 155 -223 116 -223 z m 116 -179 l 116 -179 q 153 -179 174 -147 q 194 -116 194 -53 l 194 -53 q 194 8 174 40 q 154 72 115 72 l 115 72 q 77 72 57 40 q 37 8 37 -54 l 37 -54 q 37 -116 58 -147 q 78 -179 116 -179 z m 78 562 l 78 562 q 121 562 147 542 q 173 521 185 488 q 196 454 196 413 l 196 413 q 196 347 181 262 q 166 177 144 86 l 144 86 l 95 96 q 116 187 129 266 q 142 345 142 408 l 142 408 q 142 460 125 488 q 108 515 69 515 l 69 515 q 57 515 45 514 q 32 512 20 508 l 20 508 l 10 553 q 22 557 40 560 q 57 562 78 562 z"},"ൂ":{"ha":242,"x_min":-14,"x_max":245,"o":"m 116 -223 l 116 -223 q 55 -223 21 -178 q -14 -134 -14 -54 l -14 -54 q -14 1 2 39 q 18 76 47 96 q 76 115 115 115 l 115 115 q 155 115 184 96 q 213 76 229 39 q 245 1 245 -53 l 245 -53 q 245 -107 229 -145 q 213 -183 184 -203 q 155 -223 116 -223 z m 115 74 l 115 74 q 76 74 53 44 q 29 13 29 -54 l 29 -54 q 29 -117 52 -148 q 75 -180 116 -180 l 116 -180 q 156 -180 179 -148 q 202 -117 202 -54 l 202 -54 q 202 13 180 44 q 157 74 115 74 z m 115 -90 l 115 -90 q 68 -90 49 -61 q 29 -33 29 7 l 29 7 q 29 32 39 53 q 49 73 65 94 l 65 94 l 87 76 q 71 61 63 47 q 55 32 55 12 l 55 12 q 55 -3 61 -16 q 67 -30 81 -38 q 94 -46 115 -46 l 115 -46 q 136 -46 149 -38 q 162 -30 169 -17 q 175 -4 175 12 l 175 12 q 175 33 168 48 q 160 62 144 75 l 144 75 l 168 94 q 184 72 193 52 q 201 32 201 9 l 201 9 q 201 -16 194 -39 q 186 -62 168 -76 q 149 -90 115 -90 z m 79 562 l 79 562 q 121 562 147 542 q 173 521 185 488 q 196 454 196 413 l 196 413 q 196 347 181 262 q 166 177 144 86 l 144 86 l 95 96 q 116 187 129 266 q 142 345 142 408 l 142 408 q 142 460 125 488 q 108 515 69 515 l 69 515 q 57 515 45 514 q 32 512 20 508 l 20 508 l 10 553 q 22 557 40 560 q 58 562 79 562 z"},"ൃ":{"ha":187,"x_min":-111,"x_max":180,"o":"m 24 -307 l 24 -307 q -15 -307 -45 -291 q -76 -276 -93 -245 q -111 -215 -111 -169 l -111 -169 q -111 -109 -76 -72 q -42 -36 19 -36 l 19 -36 q 55 -36 91 -51 q 127 -67 159 -101 l 159 -101 l 149 -144 q 116 -113 85 -97 q 54 -82 21 -82 l 21 -82 q -14 -82 -37 -103 q -60 -124 -60 -171 l -60 -171 q -60 -217 -36 -239 q -12 -261 24 -261 l 24 -261 q 54 -261 78 -248 q 102 -235 116 -205 q 129 -175 129 -124 l 129 -124 q 129 -93 124 -64 q 119 -35 109 2 q 99 39 82 92 l 82 92 q 66 145 54 195 q 42 245 42 301 l 42 301 q 42 366 59 428 q 75 489 101 550 l 101 550 l 157 550 q 136 501 122 461 q 108 420 102 383 q 95 345 95 303 l 95 303 q 95 252 105 209 q 115 165 133 106 l 133 106 q 151 48 161 9 q 171 -31 176 -62 q 180 -93 180 -124 l 180 -124 q 180 -189 160 -229 q 139 -270 104 -288 q 68 -307 24 -307 z"},"ൄ":{"ha":187,"x_min":-201,"x_max":180,"o":"m -22 -307 l -22 -307 q -76 -307 -116 -288 q -157 -270 -179 -235 q -201 -200 -201 -148 l -201 -148 q -201 -99 -176 -70 q -152 -42 -113 -42 l -113 -42 q -89 -42 -72 -56 q -55 -71 -47 -97 l -47 -97 l -55 -96 q -45 -70 -26 -56 q -8 -42 15 -42 l 15 -42 q 36 -42 51 -50 q 65 -59 74 -73 q 82 -88 86 -106 q 90 -125 90 -146 l 90 -146 l 90 -175 l 48 -175 l 48 -156 q 48 -123 39 -104 q 30 -86 11 -86 l 11 -86 q -11 -86 -20 -104 q -29 -122 -29 -154 l -29 -154 l -29 -175 l -71 -175 l -71 -154 q -71 -121 -80 -103 q -90 -86 -110 -86 l -110 -86 q -128 -86 -141 -101 q -154 -117 -154 -148 l -154 -148 q -154 -204 -118 -232 q -83 -261 -21 -261 l -21 -261 q 48 -261 88 -228 q 128 -195 128 -123 l 128 -123 q 128 -92 124 -63 q 119 -35 109 2 q 99 38 82 91 l 82 91 q 66 144 54 194 q 42 243 42 300 l 42 300 q 42 366 57 427 q 72 488 97 550 l 97 550 l 152 550 q 132 501 119 461 q 106 420 101 382 q 95 344 95 302 l 95 302 q 95 245 106 202 q 117 158 133 106 l 133 106 q 151 48 161 9 q 171 -31 176 -62 q 180 -93 180 -125 l 180 -125 q 180 -188 154 -228 q 127 -268 82 -287 q 36 -307 -22 -307 z"},"െ":{"ha":524,"x_min":39,"x_max":485,"o":"m 176 -12 l 176 -12 q 138 -12 107 10 q 76 32 58 86 q 39 139 39 232 l 39 232 q 39 313 57 375 q 74 436 106 478 q 137 520 180 541 q 222 562 273 562 l 273 562 q 326 562 366 542 q 406 522 433 485 q 459 448 472 399 q 485 349 485 291 l 485 291 q 485 215 469 160 q 452 104 426 64 q 400 24 370 -8 l 370 -8 l 332 29 q 356 53 379 88 q 401 122 416 171 q 430 219 430 285 l 430 285 q 430 356 412 408 q 394 459 359 487 q 323 515 272 515 l 272 515 q 219 515 178 481 q 136 447 113 384 q 90 320 90 230 l 90 230 q 90 157 101 114 q 111 71 130 53 q 149 35 176 35 l 176 35 q 195 35 210 46 q 225 57 234 83 q 243 109 243 154 l 243 154 q 243 212 225 240 q 206 268 169 268 l 169 268 q 139 268 116 253 q 93 238 70 208 l 70 208 l 55 246 q 82 278 113 296 q 144 314 178 314 l 178 314 q 213 314 240 298 q 266 281 281 246 q 295 210 295 156 l 295 156 q 295 96 280 59 q 265 22 239 5 q 212 -12 176 -12 z"},"േ":{"ha":437,"x_min":39,"x_max":405,"o":"m 261 -12 l 261 -12 q 216 -12 176 6 q 136 23 105 59 q 74 94 57 149 q 39 204 39 280 l 39 280 q 39 353 59 407 q 78 460 111 495 q 143 529 184 546 q 225 562 269 562 l 269 562 q 316 562 347 544 q 377 526 391 495 q 405 464 405 427 l 405 427 q 405 387 392 360 q 379 333 357 320 q 334 306 305 306 l 305 306 q 269 306 246 321 q 223 336 212 363 q 200 390 200 424 l 200 424 q 200 454 211 481 q 221 508 235 526 l 235 526 l 284 530 q 269 513 258 484 q 247 455 247 426 l 247 426 q 247 393 260 372 q 272 351 303 351 l 303 351 q 330 351 343 370 q 356 388 356 426 l 356 426 q 356 471 335 495 q 313 519 276 519 l 276 519 q 269 519 260 519 q 251 519 244 519 l 244 519 q 198 513 164 481 q 130 448 112 396 q 93 344 93 279 l 93 279 q 93 206 111 153 q 129 100 162 70 q 194 40 235 32 l 235 32 q 244 32 254 32 q 264 31 269 31 l 269 31 q 296 31 314 43 q 332 54 342 75 q 351 96 351 125 l 351 125 q 351 161 338 181 q 325 200 298 200 l 298 200 q 268 200 255 179 q 242 158 242 125 l 242 125 q 242 95 253 67 q 264 38 279 21 l 279 21 l 231 23 q 217 43 206 70 q 195 97 195 129 l 195 129 q 195 162 207 188 q 218 214 241 230 q 263 245 298 245 l 298 245 q 327 245 351 232 q 374 219 387 193 q 400 166 400 124 l 400 124 q 400 86 386 55 q 371 24 341 6 q 310 -12 261 -12 z"},"ൈ":{"ha":1046,"x_min":39,"x_max":1007,"o":"m 176 -12 l 176 -12 q 138 -12 107 10 q 76 32 58 86 q 39 139 39 232 l 39 232 q 39 313 57 375 q 74 436 106 478 q 137 520 180 541 q 222 562 273 562 l 273 562 q 326 562 366 542 q 406 522 433 485 q 459 448 472 399 q 485 349 485 291 l 485 291 q 485 215 469 160 q 452 104 426 64 q 400 24 370 -8 l 370 -8 l 332 29 q 356 53 379 88 q 401 122 416 171 q 430 219 430 285 l 430 285 q 430 356 412 408 q 394 459 359 487 q 323 515 272 515 l 272 515 q 219 515 178 481 q 136 447 113 384 q 90 320 90 230 l 90 230 q 90 157 101 114 q 111 71 130 53 q 149 35 176 35 l 176 35 q 195 35 210 46 q 225 57 234 83 q 243 109 243 154 l 243 154 q 243 212 225 240 q 206 268 169 268 l 169 268 q 139 268 116 253 q 93 238 70 208 l 70 208 l 55 246 q 82 278 113 296 q 144 314 178 314 l 178 314 q 213 314 240 298 q 266 281 281 246 q 295 210 295 156 l 295 156 q 295 96 280 59 q 265 22 239 5 q 212 -12 176 -12 z m 699 -12 l 699 -12 q 661 -12 630 10 q 599 32 581 86 q 562 139 562 232 l 562 232 q 562 313 580 375 q 597 436 629 478 q 660 520 703 541 q 745 562 796 562 l 796 562 q 849 562 889 542 q 929 522 956 485 q 982 448 995 399 q 1008 349 1008 291 l 1008 291 q 1008 215 992 160 q 975 104 949 64 q 923 24 893 -8 l 893 -8 l 855 29 q 879 53 902 88 q 924 122 939 171 q 953 219 953 285 l 953 285 q 953 356 935 408 q 917 459 882 487 q 846 515 795 515 l 795 515 q 742 515 701 481 q 659 447 636 384 q 613 320 613 230 l 613 230 q 613 157 624 114 q 634 71 653 53 q 672 35 699 35 l 699 35 q 718 35 733 46 q 748 57 757 83 q 766 109 766 154 l 766 154 q 766 212 748 240 q 729 268 692 268 l 692 268 q 662 268 639 253 q 616 238 593 208 l 593 208 l 578 246 q 605 278 636 296 q 667 314 701 314 l 701 314 q 736 314 763 298 q 789 281 804 246 q 818 210 818 156 l 818 156 q 818 96 803 59 q 788 22 762 5 q 735 -12 699 -12 z"},"ൊ":{"ha":1009,"x_min":39,"x_max":968,"o":"m 176 -12 l 176 -12 q 138 -12 107 10 q 76 32 58 86 q 39 139 39 232 l 39 232 q 39 313 57 375 q 74 436 106 478 q 137 520 180 541 q 222 562 273 562 l 273 562 q 326 562 366 542 q 406 522 433 485 q 459 448 472 399 q 485 349 485 291 l 485 291 q 485 215 469 160 q 452 104 426 64 q 400 24 370 -8 l 370 -8 l 332 29 q 356 53 379 88 q 401 122 416 171 q 430 219 430 285 l 430 285 q 430 356 412 408 q 394 459 359 487 q 323 515 272 515 l 272 515 q 219 515 178 481 q 136 447 113 384 q 90 320 90 230 l 90 230 q 90 157 101 114 q 111 71 130 53 q 149 35 176 35 l 176 35 q 195 35 210 46 q 225 57 234 83 q 243 109 243 154 l 243 154 q 243 212 225 240 q 206 268 169 268 l 169 268 q 139 268 116 253 q 93 238 70 208 l 70 208 l 55 246 q 82 278 113 296 q 144 314 178 314 l 178 314 q 213 314 240 298 q 266 281 281 246 q 295 210 295 156 l 295 156 q 295 96 280 59 q 265 22 239 5 q 212 -12 176 -12 z m 584 252 l 584 252 q 564 252 555 265 q 545 278 545 300 l 545 300 q 545 322 555 335 q 564 347 584 347 l 584 347 q 606 347 616 335 q 625 323 625 300 l 625 300 q 625 277 615 265 q 605 252 584 252 z m 968 277 l 968 277 q 968 210 960 156 q 951 102 933 65 q 914 28 884 8 q 854 -12 811 -12 l 811 -12 q 773 -12 746 3 q 718 17 700 42 q 681 67 670 99 q 658 131 652 166 l 652 166 l 705 176 q 712 141 724 109 q 735 76 756 55 q 776 34 808 34 l 808 34 q 846 34 869 62 q 892 89 903 143 q 914 197 914 277 l 914 277 q 914 356 903 409 q 892 462 870 489 q 847 516 810 516 l 810 516 q 780 516 760 497 q 739 477 727 446 q 715 414 707 376 l 707 376 l 655 387 q 662 422 674 454 q 686 485 705 510 q 723 534 750 548 q 777 562 814 562 l 814 562 q 856 562 885 543 q 914 523 933 486 q 951 449 960 396 q 968 343 968 277 z"},"ോ":{"ha":911,"x_min":39,"x_max":869,"o":"m 261 -12 l 261 -12 q 216 -12 176 6 q 136 23 105 59 q 74 94 57 149 q 39 204 39 280 l 39 280 q 39 353 59 407 q 78 460 111 495 q 143 529 184 546 q 225 562 269 562 l 269 562 q 316 562 347 544 q 377 526 391 495 q 405 464 405 427 l 405 427 q 405 387 392 360 q 379 333 357 320 q 334 306 305 306 l 305 306 q 269 306 246 321 q 223 336 212 363 q 200 390 200 424 l 200 424 q 200 454 211 481 q 221 508 235 526 l 235 526 l 284 530 q 269 513 258 484 q 247 455 247 426 l 247 426 q 247 393 260 372 q 272 351 303 351 l 303 351 q 330 351 343 370 q 356 388 356 426 l 356 426 q 356 471 335 495 q 313 519 276 519 l 276 519 q 269 519 260 519 q 251 519 244 519 l 244 519 q 198 513 164 481 q 130 448 112 396 q 93 344 93 279 l 93 279 q 93 206 111 153 q 129 100 162 70 q 194 40 235 32 l 235 32 q 244 32 254 32 q 264 31 269 31 l 269 31 q 296 31 314 43 q 332 54 342 75 q 351 96 351 125 l 351 125 q 351 161 338 181 q 325 200 298 200 l 298 200 q 268 200 255 179 q 242 158 242 125 l 242 125 q 242 95 253 67 q 264 38 279 21 l 279 21 l 231 23 q 217 43 206 70 q 195 97 195 129 l 195 129 q 195 162 207 188 q 218 214 241 230 q 263 245 298 245 l 298 245 q 327 245 351 232 q 374 219 387 193 q 400 166 400 124 l 400 124 q 400 86 386 55 q 371 24 341 6 q 310 -12 261 -12 z m 486 252 l 486 252 q 466 252 457 265 q 447 278 447 300 l 447 300 q 447 322 457 335 q 466 347 486 347 l 486 347 q 508 347 518 335 q 527 323 527 300 l 527 300 q 527 277 517 265 q 507 252 486 252 z m 870 277 l 870 277 q 870 210 862 156 q 853 102 835 65 q 816 28 786 8 q 756 -12 713 -12 l 713 -12 q 675 -12 648 3 q 620 17 602 42 q 583 67 572 99 q 560 131 554 166 l 554 166 l 607 176 q 614 141 626 109 q 637 76 658 55 q 678 34 710 34 l 710 34 q 748 34 771 62 q 794 89 805 143 q 816 197 816 277 l 816 277 q 816 356 805 409 q 794 462 772 489 q 749 516 712 516 l 712 516 q 682 516 662 497 q 641 477 629 446 q 617 414 609 376 l 609 376 l 557 387 q 564 422 576 454 q 588 485 607 510 q 625 534 652 548 q 679 562 716 562 l 716 562 q 758 562 787 543 q 816 523 835 486 q 853 449 862 396 q 870 343 870 277 z"},"ൌ":{"ha":1203,"x_min":39,"x_max":1162,"o":"m 176 -12 l 176 -12 q 138 -12 107 10 q 76 32 58 86 q 39 139 39 232 l 39 232 q 39 313 57 375 q 74 436 106 478 q 137 520 180 541 q 222 562 273 562 l 273 562 q 326 562 366 542 q 406 522 433 485 q 459 448 472 399 q 485 349 485 291 l 485 291 q 485 215 469 160 q 452 104 426 64 q 400 24 370 -8 l 370 -8 l 332 29 q 356 53 379 88 q 401 122 416 171 q 430 219 430 285 l 430 285 q 430 356 412 408 q 394 459 359 487 q 323 515 272 515 l 272 515 q 219 515 178 481 q 136 447 113 384 q 90 320 90 230 l 90 230 q 90 157 101 114 q 111 71 130 53 q 149 35 176 35 l 176 35 q 195 35 210 46 q 225 57 234 83 q 243 109 243 154 l 243 154 q 243 212 225 240 q 206 268 169 268 l 169 268 q 139 268 116 253 q 93 238 70 208 l 70 208 l 55 246 q 82 278 113 296 q 144 314 178 314 l 178 314 q 213 314 240 298 q 266 281 281 246 q 295 210 295 156 l 295 156 q 295 96 280 59 q 265 22 239 5 q 212 -12 176 -12 z m 584 252 l 584 252 q 564 252 555 265 q 545 278 545 300 l 545 300 q 545 322 555 335 q 564 347 584 347 l 584 347 q 606 347 616 335 q 625 323 625 300 l 625 300 q 625 277 615 265 q 605 252 584 252 z m 1019 562 l 1019 562 q 1064 562 1096 534 q 1128 505 1145 448 q 1162 390 1162 304 l 1162 304 q 1162 195 1139 125 q 1116 55 1068 22 q 1019 -12 943 -12 l 943 -12 q 909 -12 871 -4 q 832 3 794 23 l 794 23 l 819 67 q 848 53 877 45 q 906 37 941 37 l 941 37 q 1005 37 1041 66 q 1077 95 1092 154 q 1107 213 1107 304 l 1107 304 q 1107 409 1083 462 q 1058 515 1015 515 l 1015 515 q 998 515 987 509 q 976 502 967 490 l 967 490 q 952 468 947 436 q 942 403 942 353 l 942 353 l 942 258 l 890 258 l 890 356 q 890 406 885 437 q 880 467 867 486 l 867 486 q 859 500 846 508 q 832 515 814 515 l 814 515 q 774 515 754 481 q 733 446 733 393 l 733 393 q 733 359 737 327 q 741 295 748 266 l 748 266 l 699 255 q 691 287 685 322 q 679 356 679 396 l 679 396 q 679 443 694 480 q 709 517 738 540 q 767 562 810 562 l 810 562 q 850 562 878 539 q 906 516 919 465 l 919 465 l 910 465 q 925 517 953 540 q 980 562 1019 562 z"},"്":{"ha":0,"x_min":-212,"x_max":40,"o":"m -86 596 l -86 596 q -126 596 -154 613 q -183 630 -197 663 q -212 696 -212 744 l -212 744 q -212 764 -209 782 q -207 799 -203 812 l -203 812 l -157 804 q -160 791 -162 776 q -164 761 -164 744 l -164 744 q -164 705 -154 683 q -144 660 -126 651 q -109 641 -86 641 l -86 641 q -62 641 -44 651 q -27 661 -17 684 q -8 706 -8 745 l -8 745 q -8 761 -10 777 q -12 792 -15 804 l -15 804 l 31 812 q 35 800 38 782 q 40 764 40 745 l 40 745 q 40 697 26 664 q 11 630 -17 613 q -46 596 -86 596 z"},"ൎ":{"ha":0,"x_min":-310,"x_max":-247,"o":"m -310 803 l -247 803 l -253 626 l -304 626 l -310 803 z"},"൏":{"ha":924,"x_min":47,"x_max":880,"o":"m 439 562 l 439 562 q 503 562 539 532 q 575 501 595 443 l 595 443 l 581 451 q 600 510 632 536 q 663 562 710 562 l 710 562 q 763 562 801 528 q 839 493 860 421 q 880 348 880 233 l 880 233 q 880 87 838 -16 q 796 -119 706 -172 q 615 -226 470 -226 l 470 -226 q 374 -226 303 -202 q 231 -178 183 -134 q 134 -91 104 -33 q 74 24 61 91 q 47 157 47 227 l 47 227 q 47 306 62 380 q 76 454 104 534 l 104 534 l 153 517 q 127 447 114 375 q 100 302 100 228 l 100 228 q 100 168 110 110 q 120 51 144 -1 q 168 -53 210 -92 q 252 -132 316 -154 q 380 -177 470 -177 l 470 -177 q 567 -177 635 -150 q 703 -124 745 -72 q 787 -20 807 58 q 826 135 826 236 l 826 236 q 826 328 813 391 q 799 453 773 484 q 747 515 709 515 l 709 515 q 690 515 676 509 q 661 503 649 490 l 649 490 q 630 469 622 433 q 613 396 613 334 l 613 334 l 613 0 l 561 0 l 561 326 q 561 388 553 425 q 545 462 522 485 l 522 485 q 509 499 489 507 q 468 515 440 515 l 440 515 q 388 515 350 481 q 312 446 291 385 q 269 324 269 244 l 269 244 l 269 222 q 269 153 280 112 q 290 70 310 53 q 329 35 355 35 l 355 35 q 374 35 389 46 q 404 57 413 83 q 422 109 422 154 l 422 154 q 422 212 404 240 q 385 268 349 268 l 349 268 q 319 268 296 253 q 273 238 250 208 l 250 208 l 235 246 q 262 278 293 296 q 323 314 358 314 l 358 314 q 393 314 419 298 q 445 281 460 246 q 475 210 475 156 l 475 156 q 475 96 460 59 q 445 22 419 5 q 392 -12 356 -12 l 356 -12 q 317 -12 286 11 q 255 33 237 87 q 219 140 219 233 l 219 233 q 219 343 248 416 q 276 489 326 526 q 376 562 439 562 z"},"ൔ":{"ha":466,"x_min":34,"x_max":458,"o":"m 112 792 l 112 792 q 136 792 156 786 q 175 779 188 768 l 188 768 q 210 749 219 722 q 227 694 227 647 l 227 647 l 227 522 q 227 467 233 423 q 239 379 255 339 q 271 298 300 251 l 300 251 l 312 236 q 340 197 375 151 q 410 104 458 44 l 458 44 l 436 0 l 54 0 l 54 281 q 54 332 60 371 q 65 409 77 440 q 88 470 106 495 l 106 495 q 131 526 164 544 q 196 561 239 561 l 239 561 q 283 561 314 539 q 344 516 360 478 q 376 439 376 388 l 376 388 q 376 338 360 294 q 343 249 316 208 l 316 208 l 306 195 q 285 164 261 135 q 236 106 211 80 q 185 54 161 29 l 161 29 l 158 43 q 179 45 201 46 q 222 46 244 46 l 244 46 l 340 46 q 353 46 367 46 q 380 46 394 46 q 408 45 419 44 l 419 44 l 400 42 q 364 88 335 126 q 306 163 283 197 l 283 197 l 269 214 q 232 269 212 315 q 191 361 184 411 q 176 461 176 528 l 176 528 l 176 639 q 176 675 170 697 q 164 718 149 730 l 149 730 q 141 736 131 740 q 120 743 104 743 l 104 743 q 90 743 74 741 q 58 738 45 733 l 45 733 l 34 780 q 48 785 70 789 q 91 792 112 792 z m 107 263 l 107 43 l 110 44 q 137 69 167 100 q 196 130 224 165 q 252 200 274 237 l 274 237 l 285 255 q 303 287 313 321 q 322 355 322 389 l 322 389 q 322 427 312 456 q 301 484 280 500 q 259 515 227 515 l 227 515 q 199 515 177 499 q 155 483 140 454 l 140 454 q 128 432 121 405 q 113 377 110 342 q 107 307 107 263 l 107 263 z"},"ൕ":{"ha":758,"x_min":39,"x_max":720,"o":"m 505 -12 l 505 -12 q 478 -12 455 -8 q 432 -4 413 4 q 394 12 377 24 l 377 24 q 372 27 368 32 q 364 36 360 39 l 360 39 q 321 74 296 124 q 270 173 258 231 q 245 289 245 348 l 245 348 q 245 389 253 427 q 261 464 276 493 l 276 493 l 286 506 q 299 524 315 537 q 330 549 349 556 q 368 562 392 562 l 392 562 q 459 562 498 508 q 536 453 536 344 l 536 344 q 536 278 524 220 q 511 161 485 115 q 458 68 418 36 l 418 36 q 416 33 411 30 q 406 27 403 24 l 403 24 q 376 6 345 -3 q 313 -12 275 -12 l 275 -12 q 219 -12 175 12 q 131 36 101 81 q 70 125 55 188 q 39 250 39 327 l 39 327 q 39 404 60 457 q 80 509 117 536 q 153 562 199 562 l 199 562 q 240 562 268 545 q 295 528 321 500 l 321 500 l 283 468 q 266 492 247 504 q 227 516 203 516 l 203 516 q 173 516 148 497 q 123 477 108 436 q 93 394 93 326 l 93 326 q 93 236 115 171 q 136 105 177 70 q 218 34 275 34 l 275 34 q 303 34 325 39 q 346 43 364 53 l 364 53 q 368 56 373 59 q 377 61 381 63 l 381 63 q 417 90 440 135 q 462 179 472 234 q 482 288 482 343 l 482 343 q 482 407 471 445 q 459 482 439 499 q 419 516 392 516 l 392 516 q 363 516 342 498 q 321 480 310 442 q 299 404 299 345 l 299 345 q 299 299 309 245 q 319 191 341 143 q 363 95 399 66 l 399 66 q 403 63 407 61 q 411 58 414 56 l 414 56 q 431 45 452 40 q 473 34 504 34 l 504 34 q 561 34 597 57 q 632 80 649 121 q 666 162 666 217 l 666 217 q 666 257 659 294 q 652 330 638 369 q 623 407 599 454 l 599 454 q 575 503 559 539 q 543 575 535 606 q 527 636 527 666 l 527 666 q 527 698 540 727 q 552 756 579 774 q 605 792 648 792 l 648 792 q 667 792 686 789 q 705 786 719 781 l 719 781 l 708 734 q 695 739 683 741 q 670 743 653 743 l 653 743 q 613 743 597 719 q 580 695 580 665 l 580 665 q 580 641 586 618 q 591 594 606 562 q 620 529 645 477 l 645 477 q 669 430 686 387 q 702 343 711 302 q 720 261 720 220 l 720 220 q 720 180 712 145 q 703 109 687 81 q 670 52 645 31 q 619 10 584 -1 q 549 -12 505 -12 z"},"ൖ":{"ha":535,"x_min":37,"x_max":499,"o":"m 150 149 l 150 149 q 150 118 158 92 q 166 65 187 50 q 207 35 243 35 l 243 35 q 284 35 301 58 q 317 81 317 122 l 317 122 q 317 158 307 193 q 297 228 283 264 q 269 299 259 338 q 249 376 249 420 l 249 420 q 249 461 264 493 q 279 525 307 544 q 334 562 372 562 l 372 562 q 415 562 443 540 q 471 517 485 481 q 499 444 499 400 l 499 400 q 499 330 475 276 q 450 222 403 192 q 356 161 286 161 l 286 161 l 276 161 q 234 161 199 170 q 164 178 133 197 l 133 197 l 118 205 q 92 224 74 252 q 55 280 46 315 q 37 350 37 393 l 37 393 q 37 438 49 480 q 60 522 83 562 l 83 562 l 126 537 q 107 499 99 465 q 90 431 90 393 l 90 393 q 90 346 101 313 q 111 279 131 254 l 131 254 l 145 244 q 168 224 201 215 q 234 206 274 206 l 274 206 l 288 206 q 343 206 378 231 q 412 256 429 300 q 446 343 446 399 l 446 399 q 446 449 428 483 q 410 517 373 517 l 373 517 q 349 517 333 504 q 316 490 308 468 q 299 446 299 417 l 299 417 q 299 375 310 338 q 320 300 334 264 q 348 228 359 193 q 369 157 369 119 l 369 119 q 369 93 362 70 q 355 46 340 28 q 325 9 301 -1 q 277 -12 242 -12 l 242 -12 q 197 -12 165 7 q 133 25 117 62 q 100 98 100 153 l 100 153 q 100 187 108 225 q 116 262 134 314 q 152 366 182 442 l 182 442 q 204 497 217 537 q 230 577 236 608 q 242 638 242 665 l 242 665 q 242 700 226 722 q 209 743 173 743 l 173 743 q 157 743 142 741 q 126 738 113 733 l 113 733 l 102 780 q 118 785 139 789 q 159 792 180 792 l 180 792 q 224 792 249 774 q 274 756 285 729 q 295 702 295 676 l 295 676 q 295 652 292 628 q 288 603 280 575 q 272 546 260 511 q 247 475 229 427 l 229 427 q 205 363 189 320 q 173 277 165 248 q 156 218 153 196 q 150 173 150 149 z"},"ൗ":{"ha":560,"x_min":36,"x_max":519,"o":"m 376 562 l 376 562 q 421 562 453 534 q 485 505 502 448 q 519 390 519 304 l 519 304 q 519 195 496 125 q 473 55 425 22 q 376 -12 300 -12 l 300 -12 q 266 -12 228 -4 q 189 3 151 23 l 151 23 l 176 67 q 205 53 234 45 q 263 37 298 37 l 298 37 q 362 37 398 66 q 434 95 449 154 q 464 213 464 304 l 464 304 q 464 409 440 462 q 415 515 372 515 l 372 515 q 355 515 344 509 q 333 502 324 490 l 324 490 q 309 468 304 436 q 299 403 299 353 l 299 353 l 299 258 l 247 258 l 247 356 q 247 406 242 437 q 237 467 224 486 l 224 486 q 216 500 203 508 q 189 515 171 515 l 171 515 q 131 515 111 481 q 90 446 90 393 l 90 393 q 90 359 94 327 q 98 295 105 266 l 105 266 l 56 255 q 48 287 42 322 q 36 356 36 396 l 36 396 q 36 443 51 480 q 66 517 95 540 q 124 562 167 562 l 167 562 q 207 562 235 539 q 263 516 276 465 l 276 465 l 267 465 q 282 517 310 540 q 337 562 376 562 z"},"൘":{"ha":885,"x_min":39,"x_max":840,"o":"m 440 -12 l 440 -12 q 394 -12 363 15 q 331 41 316 103 l 316 103 l 327 99 q 312 44 282 16 q 252 -12 203 -12 l 203 -12 q 152 -12 115 21 q 78 54 59 113 q 39 172 39 248 l 39 248 q 39 326 54 382 q 69 437 94 480 q 118 522 146 557 l 146 557 l 187 523 q 162 492 141 454 q 119 416 106 366 q 93 316 93 250 l 93 250 q 93 188 107 140 q 121 91 146 63 q 171 35 206 35 l 206 35 q 225 35 239 43 q 253 50 263 62 l 263 62 q 282 86 289 123 q 295 159 295 217 l 295 217 l 295 550 l 348 550 l 348 217 q 348 159 355 123 q 361 87 379 64 l 379 64 q 389 50 405 43 q 420 35 441 35 l 441 35 q 463 35 479 43 q 494 50 504 64 l 504 64 q 522 85 528 121 q 533 156 533 215 l 533 215 l 533 550 l 586 550 l 586 240 l 565 103 q 551 43 520 16 q 489 -12 440 -12 z m 679 -12 l 679 -12 q 634 -12 603 15 q 571 41 555 100 l 555 100 l 541 220 l 541 540 l 586 540 l 586 218 q 586 160 593 124 q 600 87 618 63 l 618 63 q 629 50 643 43 q 657 35 676 35 l 676 35 q 712 35 737 65 q 761 94 774 156 q 786 218 786 315 l 786 315 q 786 415 772 493 q 758 570 732 628 q 705 685 665 722 q 625 759 574 778 q 522 796 459 796 l 459 796 q 417 796 374 791 q 331 786 286 774 l 286 774 l 278 822 q 307 829 336 834 q 364 839 395 841 q 426 843 460 843 l 460 843 q 537 843 598 822 q 659 800 705 757 q 750 714 780 650 q 810 586 825 503 q 840 419 840 315 l 840 315 q 840 198 821 126 q 802 53 766 21 q 730 -12 679 -12 z"},"൙":{"ha":807,"x_min":39,"x_max":786,"o":"m 265 562 l 265 562 q 324 562 368 539 q 412 515 442 472 q 471 429 486 368 q 501 307 501 231 l 501 231 q 501 136 483 83 q 464 30 432 9 q 399 -12 357 -12 l 357 -12 q 311 -12 283 9 q 254 30 241 63 q 227 96 227 134 l 227 134 q 227 182 243 215 q 259 248 285 269 l 285 269 q 306 286 333 296 q 359 306 394 311 q 428 315 472 315 l 472 315 l 518 315 l 518 269 l 471 269 q 417 269 382 262 q 347 254 322 234 l 322 234 q 302 219 291 195 q 280 170 280 136 l 280 136 q 280 89 300 62 q 319 34 356 34 l 356 34 q 387 34 407 53 q 427 72 438 115 q 449 158 449 231 l 449 231 q 449 250 449 266 q 448 281 446 295 l 446 295 l 445 308 q 438 371 416 418 q 394 464 357 490 q 320 515 268 515 l 268 515 q 211 515 172 485 q 133 455 114 404 q 94 352 94 286 l 94 286 q 94 224 107 177 q 119 129 142 94 q 164 58 191 30 l 191 30 l 153 -7 q 125 22 99 63 q 73 103 56 159 q 39 215 39 290 l 39 290 q 39 346 54 395 q 68 444 96 482 q 124 520 167 541 q 209 562 265 562 z m 672 550 l 672 550 q 710 550 736 533 q 761 515 774 486 q 786 456 786 419 l 786 419 q 786 383 775 353 q 763 322 740 304 l 740 304 q 725 291 707 284 q 688 276 664 273 q 639 269 606 269 l 606 269 l 491 269 l 494 315 l 614 315 q 655 315 676 322 q 696 329 710 342 l 710 342 q 723 355 729 375 q 735 395 735 419 l 735 419 q 735 458 719 482 q 703 505 672 505 l 672 505 q 640 505 622 481 q 603 456 603 411 l 603 411 q 603 374 615 344 q 626 314 641 288 l 641 288 l 592 283 q 576 309 565 344 q 553 378 553 418 l 553 418 q 553 460 569 490 q 584 519 611 535 q 638 550 672 550 z"},"൚":{"ha":783,"x_min":39,"x_max":729,"o":"m 515 562 l 515 562 q 568 562 607 546 q 646 530 671 500 l 671 500 q 692 476 705 444 q 718 412 724 372 q 729 332 729 279 l 729 279 l 729 0 l 362 0 l 362 45 q 413 100 454 161 q 495 222 519 285 q 543 348 543 408 l 543 408 q 543 438 537 462 q 531 486 517 500 q 503 513 478 513 l 478 513 q 452 513 431 498 q 410 483 395 456 l 395 456 q 376 425 368 381 q 359 337 359 268 l 359 268 l 359 230 l 307 230 l 307 331 q 307 395 299 432 q 291 468 272 489 l 272 489 q 261 502 247 509 q 232 515 213 515 l 213 515 q 177 515 150 488 q 123 460 109 412 q 94 363 94 300 l 94 300 q 94 235 107 185 q 120 135 142 97 q 163 59 188 27 l 188 27 l 146 -7 q 119 29 95 71 q 70 113 55 170 q 39 226 39 302 l 39 302 q 39 380 60 439 q 81 497 120 530 q 159 562 212 562 l 212 562 q 251 562 277 546 q 303 529 320 497 q 337 465 349 418 l 349 418 l 325 413 q 338 462 363 495 q 388 528 426 545 q 464 562 515 562 z m 597 403 l 597 403 q 597 338 573 275 q 549 212 507 151 q 465 90 411 28 l 411 28 l 406 43 q 427 45 459 46 q 490 46 512 46 l 512 46 l 677 46 l 677 274 q 677 350 664 402 q 650 453 621 482 q 592 511 543 517 l 543 517 l 542 521 q 571 504 584 474 q 597 443 597 403 z"},"൛":{"ha":707,"x_min":62,"x_max":668,"o":"m 457 -12 l 457 -12 q 405 -12 367 9 q 328 29 302 66 q 276 103 264 153 q 251 202 251 260 l 251 260 q 251 326 265 376 q 278 425 299 461 q 319 496 340 518 l 340 518 l 340 504 l 115 504 l 115 0 l 62 0 l 62 550 l 369 550 l 394 512 q 375 492 354 459 q 333 425 319 377 q 305 329 305 264 l 305 264 q 305 194 324 143 q 342 91 376 63 q 410 35 458 35 l 458 35 q 507 35 542 65 q 577 94 595 146 q 613 198 613 264 l 613 264 q 613 326 601 374 q 588 421 566 457 q 544 493 516 521 l 516 521 l 554 557 q 583 530 609 489 q 634 448 651 392 q 668 336 668 261 l 668 261 q 668 203 655 154 q 641 104 614 67 q 587 30 548 9 q 509 -12 457 -12 z"},"൜":{"ha":1111,"x_min":39,"x_max":1072,"o":"m 670 562 l 670 562 q 702 562 727 552 q 751 541 768 523 l 768 523 q 785 506 794 483 q 803 460 807 429 q 810 398 810 356 l 810 356 l 810 224 q 810 158 817 121 q 823 83 841 61 l 841 61 q 851 49 866 42 q 881 35 903 35 l 903 35 q 941 35 966 62 q 991 89 1004 137 q 1017 185 1017 248 l 1017 248 q 1017 315 1004 366 q 991 416 970 455 q 948 494 923 525 l 923 525 l 964 560 q 992 524 1017 481 q 1041 438 1057 382 q 1072 325 1072 247 l 1072 247 q 1072 166 1052 108 q 1031 50 994 19 q 956 -12 903 -12 l 903 -12 q 869 -12 844 -1 q 819 10 801 28 l 801 28 q 783 47 774 73 q 764 98 761 130 q 758 162 758 198 l 758 198 l 758 353 q 758 402 753 436 q 748 469 730 490 l 730 490 q 720 502 705 509 q 689 515 670 515 l 670 515 q 651 515 635 509 q 619 502 609 490 l 609 490 q 592 469 587 436 q 582 402 582 353 l 582 353 l 582 195 q 582 155 578 124 q 574 92 565 69 q 556 45 540 27 l 540 27 q 523 9 499 -1 q 474 -12 441 -12 l 441 -12 q 408 -12 384 -1 q 360 9 343 27 l 343 27 q 327 45 318 69 q 308 92 305 124 q 301 155 301 194 l 301 194 l 301 327 q 301 393 295 430 q 288 467 270 489 l 270 489 q 260 502 246 509 q 231 515 208 515 l 208 515 q 171 515 146 489 q 120 462 107 414 q 94 366 94 302 l 94 302 q 94 236 107 185 q 120 134 142 96 q 163 57 188 25 l 188 25 l 147 -9 q 119 27 95 70 q 70 112 55 169 q 39 226 39 304 l 39 304 q 39 384 59 442 q 79 499 118 531 q 156 562 211 562 l 211 562 q 243 562 268 552 q 292 541 308 524 l 308 524 q 328 503 338 477 q 347 450 350 418 q 353 385 353 345 l 353 345 l 353 198 q 353 149 358 116 q 363 82 381 61 l 381 61 q 391 49 407 42 q 422 35 441 35 l 441 35 q 460 35 476 42 q 492 49 502 61 l 502 61 q 519 82 524 116 q 529 149 529 198 l 529 198 l 529 353 q 529 395 533 427 q 537 459 546 483 q 555 506 571 523 l 571 523 q 588 541 613 552 q 637 562 670 562 z"},"൝":{"ha":1491,"x_min":10,"x_max":1452,"o":"m 594 562 l 594 562 q 625 562 650 552 q 675 541 692 523 l 692 523 q 708 506 717 483 q 726 460 730 429 q 734 398 734 356 l 734 356 l 734 198 q 734 149 739 116 q 744 82 761 61 l 761 61 q 771 49 787 42 q 803 35 822 35 l 822 35 q 841 35 857 42 q 872 49 882 61 l 882 61 q 900 82 905 116 q 910 149 910 198 l 910 198 l 910 353 q 910 395 914 427 q 917 459 927 483 q 936 506 952 523 l 952 523 q 969 541 993 552 q 1017 562 1051 562 l 1051 562 q 1082 562 1107 552 q 1132 541 1149 523 l 1149 523 q 1165 506 1174 483 q 1183 460 1187 429 q 1191 398 1191 356 l 1191 356 l 1191 224 q 1191 158 1197 121 q 1203 83 1221 61 l 1221 61 q 1232 49 1247 42 q 1261 35 1283 35 l 1283 35 q 1321 35 1347 62 q 1372 89 1385 137 q 1398 185 1398 248 l 1398 248 q 1398 315 1385 366 q 1372 416 1351 455 q 1329 494 1303 525 l 1303 525 l 1345 560 q 1372 524 1397 481 q 1422 438 1437 382 q 1452 325 1452 247 l 1452 247 q 1452 166 1432 108 q 1412 50 1374 19 q 1336 -12 1284 -12 l 1284 -12 q 1250 -12 1225 -1 q 1199 10 1182 28 l 1182 28 q 1164 47 1155 73 q 1145 98 1142 130 q 1138 162 1138 198 l 1138 198 l 1138 353 q 1138 402 1133 436 q 1128 469 1111 490 l 1111 490 q 1101 502 1085 509 q 1069 515 1050 515 l 1050 515 q 1031 515 1016 509 q 1000 502 990 490 l 990 490 q 972 469 967 436 q 962 402 962 353 l 962 353 l 962 195 q 962 155 959 124 q 955 92 946 69 q 937 45 920 27 l 920 27 q 903 9 879 -1 q 855 -12 821 -12 l 821 -12 q 789 -12 765 -1 q 740 9 723 27 l 723 27 q 707 45 698 69 q 689 92 685 124 q 681 155 681 194 l 681 194 l 681 353 q 681 402 676 436 q 671 469 654 490 l 654 490 q 644 502 628 509 q 612 515 593 515 l 593 515 q 574 515 559 509 q 543 502 533 490 l 533 490 q 515 469 510 436 q 505 402 505 353 l 505 353 l 505 195 q 505 126 496 90 q 486 53 461 27 l 461 27 q 445 9 421 -1 q 396 -12 365 -12 l 365 -12 q 313 -12 282 16 q 251 44 238 104 l 238 104 l 247 100 q 236 63 219 38 q 202 13 177 1 q 152 -12 116 -12 l 116 -12 q 87 -12 60 -5 q 33 1 10 13 l 10 13 l 30 57 q 48 47 70 42 q 92 36 116 36 l 116 36 q 139 36 155 42 q 170 48 181 61 l 181 61 q 200 81 209 118 q 217 155 217 216 l 217 216 l 217 550 l 270 550 l 270 216 q 270 157 276 121 q 281 85 298 64 l 298 64 q 308 50 324 43 q 339 35 360 35 l 360 35 q 381 35 397 42 q 412 49 423 61 l 423 61 q 441 82 447 116 q 453 150 453 204 l 453 204 l 453 353 q 453 395 457 427 q 460 459 470 483 q 479 506 495 523 l 495 523 q 512 541 536 552 q 560 562 594 562 z"},"൞":{"ha":993,"x_min":39,"x_max":963,"o":"m 265 562 l 265 562 q 324 562 368 539 q 412 515 442 472 q 471 429 486 368 q 501 307 501 231 l 501 231 q 501 136 483 83 q 464 30 432 9 q 399 -12 357 -12 l 357 -12 q 311 -12 283 9 q 254 30 241 63 q 227 96 227 134 l 227 134 q 227 182 243 215 q 259 248 285 269 l 285 269 q 306 286 333 296 q 359 306 394 311 q 428 315 472 315 l 472 315 l 480 315 l 480 269 l 471 269 q 417 269 382 262 q 347 254 322 234 l 322 234 q 302 219 291 195 q 280 170 280 136 l 280 136 q 280 89 300 62 q 319 34 356 34 l 356 34 q 387 34 407 53 q 427 72 438 115 q 449 158 449 231 l 449 231 q 449 250 449 266 q 448 281 446 295 l 446 295 l 445 308 q 438 371 416 418 q 394 464 357 490 q 320 515 268 515 l 268 515 q 211 515 172 485 q 133 455 114 404 q 94 352 94 286 l 94 286 q 94 224 107 177 q 119 129 142 94 q 164 58 191 30 l 191 30 l 153 -7 q 125 22 99 63 q 73 103 56 159 q 39 215 39 290 l 39 290 q 39 346 54 395 q 68 444 96 482 q 124 520 167 541 q 209 562 265 562 z m 825 214 l 825 214 q 781 214 750 235 q 719 256 703 293 q 686 329 686 376 l 686 376 q 686 421 701 458 q 716 495 735 517 l 735 517 l 740 504 l 568 504 l 589 514 q 606 492 617 464 q 628 436 628 402 l 628 402 q 628 350 607 321 q 586 291 552 280 q 518 269 479 269 l 479 269 l 470 269 l 470 315 l 478 315 q 504 315 527 322 q 549 328 563 347 q 577 365 577 401 l 577 401 q 577 434 566 459 q 554 484 540 505 l 540 505 l 556 550 l 761 550 l 783 515 q 764 488 751 455 q 738 422 738 381 l 738 381 q 738 321 762 291 q 785 260 824 260 l 824 260 q 852 260 872 275 q 891 289 901 316 q 911 342 911 377 l 911 377 q 911 425 895 461 q 879 497 856 527 l 856 527 l 894 558 q 922 523 943 479 q 963 435 963 377 l 963 377 q 963 327 946 291 q 928 254 897 234 q 866 214 825 214 z"},"ൟ":{"ha":989,"x_min":25,"x_max":964,"o":"m 25 266 l 25 266 q 25 327 53 360 q 81 393 124 393 l 124 393 q 168 393 196 361 q 224 328 224 266 l 224 266 q 224 205 197 172 q 169 139 124 139 l 124 139 q 80 139 53 172 q 25 205 25 266 z m 71 267 l 71 267 q 71 226 85 204 q 99 182 124 182 l 124 182 q 150 182 165 204 q 179 226 179 267 l 179 267 q 179 307 165 329 q 150 350 124 350 l 124 350 q 99 350 85 329 q 71 307 71 267 z m 765 266 l 765 266 q 765 327 793 360 q 820 393 864 393 l 864 393 q 908 393 936 361 q 964 328 964 266 l 964 266 q 964 205 936 172 q 908 139 864 139 l 864 139 q 820 139 793 172 q 765 205 765 266 z m 810 267 l 810 267 q 810 226 824 204 q 838 182 864 182 l 864 182 q 890 182 904 204 q 918 226 918 267 l 918 267 q 918 307 904 329 q 889 350 864 350 l 864 350 q 839 350 825 329 q 810 307 810 267 z m 489 562 l 489 562 q 548 562 592 539 q 636 516 666 473 q 695 430 710 371 q 725 312 725 239 l 725 239 q 725 143 707 88 q 688 33 656 11 q 623 -12 581 -12 l 581 -12 q 533 -12 503 14 q 473 40 459 87 q 444 133 444 194 l 444 194 q 444 293 480 342 q 516 391 577 391 l 577 391 q 610 391 634 378 q 657 364 675 340 q 693 315 707 281 l 707 281 l 691 260 q 682 280 668 300 q 654 319 635 333 q 615 346 587 346 l 587 346 q 540 346 518 307 q 496 267 496 193 l 496 193 q 496 143 505 108 q 513 72 532 53 q 551 34 582 34 l 582 34 q 610 34 631 54 q 651 73 663 119 q 674 165 674 242 l 674 242 q 674 252 673 273 q 672 294 670 308 l 670 308 q 670 312 671 317 q 671 321 669 325 l 669 325 q 662 374 641 418 q 620 461 584 488 q 547 515 492 515 l 492 515 q 435 515 396 485 q 357 455 338 404 q 318 352 318 286 l 318 286 q 318 224 331 177 q 343 129 366 94 q 388 58 415 30 l 415 30 l 377 -7 q 349 22 323 63 q 297 103 280 159 q 263 215 263 290 l 263 290 q 263 346 278 396 q 292 445 320 483 q 348 520 391 541 q 433 562 489 562 z"},"ൠ":{"ha":650,"x_min":37,"x_max":613,"o":"m 484 562 l 484 562 q 545 562 579 511 q 613 459 613 364 l 613 364 q 613 308 601 265 q 589 221 564 188 l 564 188 q 536 151 494 130 q 451 109 394 105 l 394 105 l 342 103 l 310 103 l 263 104 q 203 108 159 129 q 115 150 87 188 l 87 188 q 62 221 50 264 q 37 307 37 361 l 37 361 q 37 423 53 468 q 69 513 100 538 q 131 562 174 562 l 174 562 q 213 562 238 543 q 263 523 276 490 q 288 457 288 414 l 288 414 q 288 367 275 334 q 262 300 236 283 q 209 265 169 265 l 169 265 q 146 265 126 273 q 106 280 88 294 q 70 308 53 325 l 53 325 l 69 363 q 83 347 97 335 q 110 322 126 316 q 141 310 160 310 l 160 310 q 200 310 219 337 q 237 363 237 415 l 237 415 q 237 461 221 489 q 204 516 172 516 l 172 516 q 143 516 124 498 q 105 479 96 445 q 86 410 86 363 l 86 363 q 86 352 87 340 q 88 328 90 316 l 90 316 l 90 301 q 97 258 117 228 q 137 197 167 178 q 196 158 234 149 q 271 139 314 139 l 314 139 l 336 139 q 379 139 417 149 q 454 158 484 178 q 514 197 534 228 q 553 259 561 302 l 561 302 l 560 317 q 562 327 563 340 q 564 353 564 365 l 564 365 q 564 413 556 447 q 547 481 530 499 q 512 516 484 516 l 484 516 q 449 516 432 487 q 414 457 414 409 l 414 409 q 414 361 432 336 q 449 310 487 310 l 487 310 q 507 310 523 316 q 539 322 553 334 q 567 346 581 362 l 581 362 l 597 324 q 581 308 563 294 q 545 280 524 273 q 503 265 479 265 l 479 265 q 440 265 414 283 q 388 301 375 334 q 362 366 362 410 l 362 410 q 362 454 376 488 q 389 522 417 542 q 444 562 484 562 z m 325 -208 l 325 -208 q 238 -208 180 -188 q 121 -169 92 -130 q 62 -92 62 -36 l 62 -36 q 62 7 80 37 q 97 67 128 87 q 158 106 198 115 q 238 124 284 124 l 284 124 l 366 124 q 412 124 452 115 q 492 106 523 87 q 553 68 571 38 q 588 7 588 -35 l 588 -35 q 588 -91 560 -129 q 531 -168 473 -188 q 414 -208 325 -208 z m 326 -162 l 326 -162 q 399 -162 445 -147 q 490 -132 512 -103 q 534 -75 534 -34 l 534 -34 q 534 0 521 24 q 507 47 481 63 q 455 79 418 86 q 380 93 332 93 l 332 93 l 319 93 q 255 93 210 80 q 165 66 141 38 q 116 10 116 -34 l 116 -34 q 116 -76 138 -104 q 159 -133 206 -147 q 252 -162 326 -162 z m 385 40 l 385 40 q 407 40 422 31 q 436 22 444 7 q 452 -8 455 -26 q 458 -45 458 -64 l 458 -64 l 458 -98 l 417 -98 l 417 -73 q 417 -37 409 -20 q 401 -4 381 -4 l 381 -4 q 362 -4 354 -22 q 345 -40 345 -72 l 345 -72 l 345 -98 l 304 -98 l 304 -72 q 304 -40 296 -22 q 288 -4 269 -4 l 269 -4 q 249 -4 241 -21 q 233 -38 233 -73 l 233 -73 l 233 -98 l 192 -98 l 192 -63 q 192 -45 195 -26 q 198 -8 206 7 q 214 21 229 31 q 243 40 266 40 l 266 40 q 287 40 302 29 q 316 17 325 -3 l 325 -3 q 335 18 350 29 q 365 40 385 40 z"},"ൡ":{"ha":948,"x_min":41,"x_max":923,"o":"m 261 562 l 261 562 q 325 562 362 532 q 398 501 417 443 l 417 443 l 426 394 l 436 280 l 436 0 l 383 0 l 383 326 q 383 388 375 425 q 367 462 345 485 l 345 485 q 331 499 311 507 q 291 515 262 515 l 262 515 q 211 515 173 481 q 134 446 113 385 q 92 324 92 244 l 92 244 l 92 222 q 92 153 103 112 q 113 70 132 53 q 151 35 178 35 l 178 35 q 197 35 212 46 q 227 57 236 83 q 245 109 245 154 l 245 154 q 245 212 227 240 q 208 268 171 268 l 171 268 q 141 268 118 253 q 95 238 72 208 l 72 208 l 57 246 q 84 278 115 296 q 146 314 180 314 l 180 314 q 215 314 242 298 q 268 281 283 246 q 297 210 297 156 l 297 156 q 297 96 282 59 q 267 22 241 5 q 214 -12 178 -12 l 178 -12 q 140 -12 109 11 q 78 33 60 87 q 41 140 41 233 l 41 233 q 41 343 70 416 q 99 489 149 526 q 198 562 261 562 z m 565 562 l 565 562 q 636 562 681 531 q 725 499 750 447 q 775 395 784 334 l 784 334 q 788 308 790 280 q 792 252 792 226 l 792 226 q 792 137 774 85 q 755 33 723 11 q 691 -12 647 -12 l 647 -12 q 601 -12 572 12 q 543 36 530 76 q 516 116 516 164 l 516 164 q 516 265 569 317 q 622 369 707 369 l 707 369 q 717 369 728 368 q 739 367 748 365 l 748 365 l 762 364 q 815 350 851 311 q 887 271 905 213 q 923 155 923 86 l 923 86 q 923 19 909 -34 q 894 -88 864 -125 q 834 -162 789 -181 q 744 -201 684 -201 l 684 -201 q 657 -201 633 -197 q 609 -193 583 -185 l 583 -185 l 598 -140 q 619 -147 640 -150 q 661 -153 685 -153 l 685 -153 q 736 -153 772 -135 q 808 -117 830 -85 q 852 -53 862 -8 q 871 37 871 90 l 871 90 q 871 139 861 184 q 851 228 830 262 q 808 295 774 311 l 774 311 l 756 315 q 744 319 733 321 q 721 323 711 323 l 711 323 q 669 323 637 307 q 605 291 587 257 q 569 222 569 166 l 569 166 q 569 130 576 100 q 583 70 601 52 q 618 34 648 34 l 648 34 q 694 34 717 80 q 740 125 740 230 l 740 230 q 740 255 739 283 q 737 311 732 339 l 732 339 l 729 356 q 720 398 701 435 q 682 471 650 493 q 617 515 567 515 l 567 515 q 540 515 519 508 q 497 500 480 485 l 480 485 q 465 471 455 450 q 445 428 441 398 q 436 368 436 325 l 436 325 l 436 235 l 400 423 q 410 468 432 499 q 454 530 488 546 q 521 562 565 562 z"},"ൢ":{"ha":0,"x_min":-581,"x_max":-35,"o":"m -424 9 l -424 9 q -377 9 -348 -13 q -319 -36 -303 -82 l -303 -82 l -288 -154 l -288 -332 l -334 -332 l -334 -164 q -334 -128 -340 -99 q -346 -70 -362 -53 l -362 -53 q -372 -42 -386 -36 q -401 -31 -421 -31 l -421 -31 q -449 -31 -472 -43 q -496 -56 -511 -81 q -527 -106 -535 -145 l -535 -145 q -536 -153 -536 -162 q -537 -172 -537 -180 l -537 -180 q -537 -243 -522 -269 q -508 -296 -484 -296 l -484 -296 q -458 -296 -446 -276 q -434 -256 -434 -220 l -434 -220 q -434 -180 -447 -162 q -461 -145 -483 -145 l -483 -145 q -504 -145 -519 -154 q -535 -164 -553 -183 l -553 -183 l -563 -149 q -541 -128 -520 -116 q -500 -105 -476 -105 l -476 -105 q -436 -105 -413 -134 q -390 -163 -390 -220 l -390 -220 q -390 -274 -414 -305 q -438 -337 -483 -337 l -483 -337 q -530 -337 -555 -295 q -581 -253 -581 -181 l -581 -181 q -581 -122 -560 -79 q -540 -37 -504 -14 q -469 9 -424 9 z m -189 9 l -189 9 q -137 9 -103 -15 q -69 -40 -52 -83 q -35 -126 -35 -183 l -35 -183 q -35 -267 -63 -302 q -92 -337 -134 -337 l -134 -337 q -167 -337 -188 -320 q -210 -304 -220 -277 q -231 -250 -231 -217 l -231 -217 q -231 -176 -219 -148 q -207 -121 -185 -107 q -164 -93 -136 -93 l -136 -93 q -113 -93 -97 -102 q -81 -112 -68 -129 q -56 -147 -46 -171 l -46 -171 l -60 -186 q -75 -159 -90 -146 q -105 -134 -126 -134 l -126 -134 q -157 -134 -172 -156 q -187 -179 -187 -218 l -187 -218 q -187 -252 -174 -274 q -162 -296 -134 -296 l -134 -296 q -107 -296 -93 -268 q -80 -240 -80 -186 l -80 -186 q -80 -172 -80 -159 q -81 -147 -82 -139 l -82 -139 l -84 -126 q -87 -103 -99 -81 q -112 -59 -133 -45 q -155 -31 -188 -31 l -188 -31 q -211 -31 -228 -38 q -245 -45 -256 -57 l -256 -57 q -273 -76 -280 -102 q -288 -129 -288 -175 l -288 -175 l -324 -119 q -319 -80 -301 -51 q -284 -23 -255 -7 q -227 9 -189 9 z"},"ൣ":{"ha":0,"x_min":-581,"x_max":52,"o":"m -424 9 l -424 9 q -377 9 -348 -13 q -319 -36 -303 -82 l -303 -82 l -288 -154 l -288 -332 l -334 -332 l -334 -164 q -334 -128 -340 -99 q -346 -70 -362 -53 l -362 -53 q -372 -42 -386 -36 q -401 -31 -421 -31 l -421 -31 q -449 -31 -472 -43 q -496 -56 -511 -81 q -527 -106 -535 -145 l -535 -145 q -536 -153 -536 -162 q -537 -172 -537 -180 l -537 -180 q -537 -243 -522 -269 q -508 -296 -484 -296 l -484 -296 q -458 -296 -446 -276 q -434 -256 -434 -220 l -434 -220 q -434 -180 -447 -162 q -461 -145 -483 -145 l -483 -145 q -504 -145 -519 -154 q -535 -164 -553 -183 l -553 -183 l -563 -149 q -541 -128 -520 -116 q -500 -105 -476 -105 l -476 -105 q -436 -105 -413 -134 q -390 -163 -390 -220 l -390 -220 q -390 -274 -414 -305 q -438 -337 -483 -337 l -483 -337 q -530 -337 -555 -295 q -581 -253 -581 -181 l -581 -181 q -581 -122 -560 -79 q -540 -37 -504 -14 q -469 9 -424 9 z m -189 9 l -189 9 q -141 9 -107 -15 q -74 -39 -56 -81 q -39 -124 -39 -180 l -39 -180 q -39 -238 -51 -272 q -63 -307 -85 -322 q -107 -337 -137 -337 l -137 -337 q -167 -337 -188 -322 q -209 -307 -220 -282 q -231 -257 -231 -227 l -231 -227 q -231 -163 -196 -127 q -161 -92 -100 -92 l -100 -92 q -92 -92 -82 -93 q -73 -94 -64 -96 l -64 -96 q -26 -104 0 -127 q 26 -150 39 -183 q 52 -217 52 -258 l 52 -258 q 52 -290 47 -316 q 41 -343 30 -364 l 30 -364 l -11 -348 q -2 -328 3 -306 q 8 -285 8 -261 l 8 -261 q 8 -214 -7 -184 q -22 -154 -55 -139 l -55 -139 l -70 -135 q -77 -133 -85 -132 q -94 -131 -100 -131 l -100 -131 q -144 -131 -165 -156 q -187 -182 -187 -228 l -187 -228 q -187 -256 -175 -276 q -163 -296 -137 -296 l -137 -296 q -109 -296 -96 -268 q -83 -241 -83 -181 l -83 -181 q -83 -164 -84 -147 q -86 -131 -91 -116 l -91 -116 l -93 -104 q -100 -83 -113 -66 q -126 -50 -144 -40 q -163 -31 -188 -31 l -188 -31 q -211 -31 -228 -38 q -245 -45 -256 -57 l -256 -57 q -273 -76 -280 -102 q -288 -129 -288 -175 l -288 -175 l -324 -119 q -320 -90 -309 -66 q -299 -43 -281 -26 q -264 -10 -241 0 q -218 9 -189 9 z"},"൦":{"ha":430,"x_min":41,"x_max":389,"o":"m 215 46 l 215 46 q 162 46 123 73 q 84 100 63 153 q 41 205 41 283 l 41 283 q 41 360 63 412 q 85 464 124 491 q 163 518 214 518 l 214 518 q 268 518 307 491 q 346 464 368 412 q 389 360 389 283 l 389 283 q 389 205 368 153 q 346 100 307 73 q 267 46 215 46 z m 215 93 l 215 93 q 250 93 277 113 q 304 132 320 174 q 335 216 335 283 l 335 283 q 335 382 301 427 q 267 471 214 471 l 214 471 q 162 471 129 427 q 95 382 95 281 l 95 281 q 95 183 129 138 q 163 93 215 93 z"},"൧":{"ha":662,"x_min":12,"x_max":605,"o":"m 289 -154 l 289 -201 l 195 -201 q 148 -201 116 -194 q 83 -187 59 -170 l 59 -170 q 37 -155 25 -132 q 12 -109 12 -77 l 12 -77 q 12 -48 22 -25 q 32 -3 52 12 l 52 12 q 66 24 84 32 q 102 39 129 43 q 155 46 193 46 l 193 46 l 309 46 l 310 0 l 201 0 q 156 0 132 -4 q 107 -8 91 -21 l 91 -21 q 79 -29 73 -43 q 66 -57 66 -75 l 66 -75 q 66 -112 92 -132 l 92 -132 q 107 -143 133 -148 q 159 -154 201 -154 l 201 -154 l 289 -154 z m 435 562 l 435 562 q 474 562 502 552 q 529 541 548 523 l 548 523 q 584 490 595 443 q 605 396 605 332 l 605 332 l 605 0 l 262 0 l 262 336 q 262 376 267 410 q 272 444 284 472 q 296 500 319 522 l 319 522 q 338 540 367 551 q 396 562 435 562 z m 435 515 l 435 515 q 407 515 387 507 q 366 498 352 484 l 352 484 q 329 458 322 418 q 315 377 315 322 l 315 322 l 315 46 l 552 46 l 552 323 q 552 378 545 419 q 538 460 514 485 l 514 485 q 501 499 482 507 q 462 515 435 515 z"},"൨":{"ha":630,"x_min":39,"x_max":614,"o":"m 250 562 l 250 562 q 302 562 341 542 q 379 521 405 485 q 431 448 444 399 q 456 349 456 291 l 456 291 q 456 225 443 175 q 429 125 409 91 q 388 56 367 32 l 367 32 l 367 46 l 614 46 l 614 0 l 338 0 l 313 38 q 333 59 354 93 q 374 126 388 174 q 402 222 402 286 l 402 286 q 402 357 384 408 q 366 459 332 487 q 298 515 249 515 l 249 515 q 200 515 165 486 q 130 456 112 405 q 94 353 94 287 l 94 287 q 94 225 107 178 q 119 130 142 94 q 164 58 191 30 l 191 30 l 153 -7 q 125 21 99 62 q 73 102 56 159 q 39 215 39 290 l 39 290 q 39 348 53 398 q 66 447 93 484 q 120 521 160 542 q 199 562 250 562 z"},"൩":{"ha":793,"x_min":39,"x_max":777,"o":"m 212 562 l 212 562 q 246 562 271 549 q 295 536 312 511 q 329 486 338 450 l 338 450 l 329 451 q 347 510 378 536 q 409 562 457 562 l 457 562 q 510 562 548 529 q 586 496 607 438 q 627 380 627 304 l 627 304 q 627 236 615 186 q 602 135 583 99 q 564 62 544 33 l 544 33 l 537 0 l 511 0 l 487 33 q 509 65 529 102 q 548 139 560 188 q 572 236 572 302 l 572 302 q 572 362 558 411 q 544 459 518 487 q 492 515 456 515 l 456 515 q 436 515 422 509 q 407 503 395 490 l 395 490 q 376 469 368 433 q 359 396 359 334 l 359 334 l 359 0 l 307 0 l 307 331 q 307 395 299 432 q 291 468 272 489 l 272 489 q 261 502 247 509 q 232 515 213 515 l 213 515 q 177 515 150 488 q 123 460 109 412 q 94 363 94 300 l 94 300 q 94 235 107 185 q 120 135 142 97 q 163 59 188 27 l 188 27 l 146 -7 q 119 29 95 71 q 70 113 55 169 q 39 225 39 302 l 39 302 q 39 379 60 438 q 81 497 120 530 q 159 562 212 562 z m 523 0 l 545 46 l 777 46 l 777 0 l 523 0 z"},"൪":{"ha":574,"x_min":39,"x_max":570,"o":"m 266 562 l 266 562 q 325 562 366 537 q 407 512 438 472 l 438 472 q 476 422 495 355 q 514 287 514 214 l 514 214 q 514 132 496 82 q 477 32 444 10 q 410 -12 365 -12 l 365 -12 q 316 -12 285 12 q 253 35 238 77 q 222 118 222 169 l 222 169 q 222 227 240 276 q 258 325 298 372 q 338 419 402 468 l 402 468 q 448 503 473 526 q 497 549 507 571 q 516 592 516 619 l 516 619 q 516 644 508 663 q 500 682 489 700 l 489 700 l 537 723 q 552 702 561 678 q 570 653 570 623 l 570 623 q 570 582 556 553 q 541 523 510 495 q 479 467 429 430 l 429 430 q 377 390 343 350 q 309 309 292 266 q 275 222 275 170 l 275 170 q 275 104 298 69 q 321 34 365 34 l 365 34 q 394 34 416 51 q 437 67 449 106 q 460 145 460 211 l 460 211 q 460 273 446 335 q 431 396 399 442 l 399 442 q 377 475 345 495 q 312 515 268 515 l 268 515 q 211 515 172 486 q 133 456 114 405 q 94 353 94 286 l 94 286 q 94 224 107 177 q 119 129 142 94 q 164 58 191 30 l 191 30 l 153 -7 q 125 22 99 63 q 73 103 56 159 q 39 215 39 290 l 39 290 q 39 346 54 396 q 68 445 97 483 q 125 520 168 541 q 210 562 266 562 z"},"൫":{"ha":723,"x_min":45,"x_max":678,"o":"m 370 723 l 370 723 q 448 723 506 691 q 563 658 602 600 q 640 541 659 463 q 678 385 678 294 l 678 294 q 678 213 665 138 q 652 62 624 -10 l 624 -10 l 574 8 q 592 52 603 100 q 613 147 619 197 q 624 246 624 296 l 624 296 q 624 375 609 444 q 594 513 563 565 q 532 617 485 646 q 437 675 371 675 l 371 675 q 291 675 230 628 q 168 581 134 488 q 99 394 99 255 l 99 255 q 99 173 112 103 q 124 32 150 -20 q 176 -72 218 -101 q 259 -130 317 -130 l 317 -130 q 394 -130 435 -83 q 475 -37 475 56 l 475 56 q 475 107 461 146 q 446 185 417 208 q 388 230 345 230 l 345 230 l 338 230 l 338 276 l 344 276 q 376 276 398 283 q 420 289 436 303 l 436 303 q 451 317 459 337 q 466 357 466 386 l 466 386 q 466 440 441 468 q 415 496 375 496 l 375 496 q 333 496 305 469 q 276 441 262 393 q 247 345 247 281 l 247 281 q 247 214 264 147 q 281 79 315 14 l 315 14 l 266 -8 q 232 64 213 133 q 194 201 194 282 l 194 282 q 194 359 216 418 q 238 476 279 510 q 319 543 376 543 l 376 543 q 421 543 453 524 q 485 504 502 470 q 519 436 519 392 l 519 392 q 519 356 508 327 q 497 297 473 278 q 449 258 409 248 l 409 248 l 409 255 q 465 239 497 186 q 528 132 528 56 l 528 56 q 528 -22 503 -74 q 477 -126 430 -152 q 383 -178 318 -178 l 318 -178 q 234 -178 173 -128 q 112 -79 79 17 q 45 113 45 254 l 45 254 q 45 375 71 463 q 97 551 142 609 q 187 667 246 695 q 304 723 370 723 z"},"൬":{"ha":886,"x_min":39,"x_max":841,"o":"m 440 562 l 440 562 q 489 562 520 535 q 551 508 565 448 l 565 448 l 586 311 l 586 0 l 533 0 l 533 335 q 533 394 528 430 q 522 466 504 487 l 504 487 q 494 500 479 508 q 463 515 441 515 l 441 515 q 420 515 405 508 q 389 500 379 487 l 379 487 q 361 464 355 428 q 348 391 348 334 l 348 334 l 348 0 l 295 0 l 295 334 q 295 392 289 429 q 282 465 263 488 l 263 488 q 253 501 239 508 q 225 515 206 515 l 206 515 q 171 515 146 488 q 121 460 107 412 q 93 363 93 300 l 93 300 q 93 235 106 185 q 119 135 141 97 q 162 59 187 27 l 187 27 l 146 -7 q 118 29 94 71 q 69 113 54 170 q 39 226 39 302 l 39 302 q 39 379 59 438 q 78 496 115 529 q 152 562 203 562 l 203 562 q 252 562 282 535 q 312 507 327 451 l 327 451 l 316 447 q 331 510 363 536 q 394 562 440 562 z m 679 562 l 679 562 q 757 562 799 482 q 841 401 841 226 l 841 226 q 841 83 815 -12 q 788 -107 730 -154 q 672 -201 577 -201 l 577 -201 q 560 -201 540 -199 q 520 -198 504 -194 l 504 -194 l 508 -147 q 525 -151 542 -152 q 559 -153 575 -153 l 575 -153 q 638 -153 679 -128 q 720 -103 744 -54 q 767 -5 777 65 q 787 135 787 226 l 787 226 q 787 323 775 387 q 762 451 737 483 q 712 515 676 515 l 676 515 q 657 515 643 508 q 629 501 618 487 l 618 487 q 600 464 593 428 q 586 391 586 332 l 586 332 l 586 10 l 541 10 l 541 330 l 555 451 q 571 510 603 536 q 634 562 679 562 z"},"൭":{"ha":548,"x_min":40,"x_max":504,"o":"m 275 562 l 275 562 q 333 562 376 538 q 419 514 448 468 q 476 421 490 355 q 504 289 504 204 l 504 204 q 504 110 490 35 q 475 -40 443 -92 q 411 -145 361 -173 q 310 -201 237 -201 l 237 -201 q 217 -201 196 -199 q 174 -198 152 -194 l 152 -194 l 157 -147 q 176 -150 195 -151 q 214 -153 236 -153 l 236 -153 q 298 -153 339 -127 q 380 -102 405 -54 q 429 -6 440 60 q 450 125 450 205 l 450 205 q 450 355 406 435 q 362 515 274 515 l 274 515 q 219 515 178 481 q 136 446 113 384 q 90 322 90 239 l 90 239 l 90 221 q 90 152 101 111 q 111 70 131 53 q 150 35 176 35 l 176 35 q 195 35 211 46 q 226 57 235 83 q 243 109 243 154 l 243 154 q 243 212 225 240 q 206 268 170 268 l 170 268 q 140 268 117 253 q 94 238 71 208 l 71 208 l 56 246 q 83 278 114 296 q 144 314 179 314 l 179 314 q 214 314 240 298 q 266 281 281 246 q 296 210 296 156 l 296 156 q 296 96 281 59 q 266 22 240 5 q 213 -12 177 -12 l 177 -12 q 139 -12 108 10 q 76 32 58 86 q 40 140 40 233 l 40 233 q 40 342 71 415 q 101 488 155 525 q 208 562 275 562 z"},"൮":{"ha":707,"x_min":39,"x_max":645,"o":"m 250 562 l 250 562 q 302 562 341 542 q 379 521 405 485 q 431 448 444 399 q 456 349 456 291 l 456 291 q 456 225 443 175 q 429 125 409 91 q 388 56 367 32 l 367 32 l 367 46 l 592 46 l 592 550 l 645 550 l 645 107 l 606 0 l 338 0 l 313 38 q 333 59 354 93 q 374 126 388 174 q 402 222 402 286 l 402 286 q 402 357 384 408 q 366 459 332 487 q 298 515 249 515 l 249 515 q 200 515 165 486 q 130 456 112 405 q 94 353 94 287 l 94 287 q 94 225 107 178 q 119 130 142 94 q 164 58 191 30 l 191 30 l 153 -7 q 125 21 99 62 q 73 102 56 159 q 39 215 39 290 l 39 290 q 39 348 53 398 q 66 447 93 484 q 120 521 160 542 q 199 562 250 562 z m 409 -201 l 409 -201 q 385 -201 362 -198 q 339 -196 319 -191 l 319 -191 l 325 -144 q 341 -148 364 -150 q 386 -153 408 -153 l 408 -153 q 464 -153 499 -139 q 534 -126 554 -101 q 573 -77 582 -42 q 590 -8 592 33 l 592 33 l 645 146 l 645 75 q 645 17 638 -26 q 631 -69 616 -100 q 601 -131 575 -153 l 575 -153 q 547 -176 506 -188 q 464 -201 409 -201 z"},"൯":{"ha":803,"x_min":39,"x_max":799,"o":"m 212 562 l 212 562 q 246 562 272 549 q 297 536 315 511 q 332 486 341 450 l 341 450 l 359 266 l 359 0 l 307 0 l 307 331 q 307 395 299 432 q 291 468 272 489 l 272 489 q 261 502 247 509 q 232 515 213 515 l 213 515 q 177 515 150 488 q 123 460 109 412 q 94 363 94 300 l 94 300 q 94 235 107 185 q 120 135 142 97 q 163 59 188 27 l 188 27 l 146 -7 q 119 29 95 71 q 70 113 55 169 q 39 225 39 302 l 39 302 q 39 379 60 438 q 81 496 120 529 q 159 562 212 562 z m 487 562 l 487 562 q 546 562 591 537 q 635 512 666 471 l 666 471 q 704 420 724 353 q 743 285 743 214 l 743 214 q 743 132 725 82 q 706 32 673 10 q 639 -12 594 -12 l 594 -12 q 545 -12 514 12 q 482 35 467 77 q 451 118 451 169 l 451 169 q 451 227 470 276 q 488 325 528 372 q 567 419 631 468 l 631 468 q 677 503 702 526 q 726 549 736 571 q 745 592 745 619 l 745 619 q 745 644 737 663 q 729 682 718 700 l 718 700 l 766 723 q 781 702 790 678 q 799 653 799 623 l 799 623 q 799 582 785 553 q 770 523 739 495 q 708 467 658 430 l 658 430 q 606 390 572 350 q 538 309 521 266 q 504 222 504 170 l 504 170 q 504 104 527 69 q 550 34 594 34 l 594 34 q 623 34 645 51 q 666 67 678 106 q 689 145 689 211 l 689 211 q 689 274 674 335 q 659 395 627 440 l 627 440 q 604 474 569 495 q 533 515 488 515 l 488 515 q 457 515 435 507 q 413 498 398 481 l 398 481 q 385 467 376 447 q 367 426 363 398 q 359 369 359 329 l 359 329 l 359 123 l 315 123 l 315 289 l 321 417 q 332 467 354 499 q 375 531 408 547 q 441 562 487 562 z"},"൰":{"ha":787,"x_min":-21,"x_max":748,"o":"m 180 550 l 233 550 l 233 129 l 230 85 q 230 9 224 -45 q 217 -99 187 -137 l 187 -137 q 166 -166 131 -183 q 95 -201 42 -201 l 42 -201 q 28 -201 12 -199 q -4 -198 -21 -194 l -21 -194 l -17 -147 q -5 -150 9 -151 q 22 -153 37 -153 l 37 -153 q 76 -153 101 -141 q 126 -130 142 -111 l 142 -111 q 166 -82 173 -37 q 180 7 180 80 l 180 80 l 180 550 z m 576 -12 l 576 -12 q 530 -12 499 15 q 468 41 450 100 l 450 100 l 459 104 q 445 43 413 16 q 380 -12 330 -12 l 330 -12 q 296 -12 271 1 q 246 14 230 41 q 213 68 203 110 l 203 110 l 195 235 l 195 533 l 233 533 l 233 218 q 233 154 240 120 q 246 85 264 63 l 264 63 q 274 50 291 43 q 307 35 330 35 l 330 35 q 354 35 369 43 q 384 51 395 63 l 395 63 q 415 87 422 123 q 428 159 428 219 l 428 219 l 428 550 l 480 550 l 480 216 q 480 155 489 118 q 497 81 516 61 l 516 61 q 527 48 542 42 q 557 35 576 35 l 576 35 q 613 35 639 64 q 665 92 679 141 q 693 189 693 248 l 693 248 q 693 314 680 365 q 667 415 646 454 q 624 492 599 523 l 599 523 l 640 557 q 668 522 693 480 q 717 437 733 381 q 748 325 748 246 l 748 246 q 748 171 728 113 q 707 54 669 21 q 630 -12 576 -12 z"},"൱":{"ha":667,"x_min":39,"x_max":622,"o":"m 212 562 l 212 562 q 246 562 271 549 q 295 536 312 511 q 329 486 338 450 l 338 450 l 359 266 l 359 0 l 307 0 l 307 331 q 307 395 299 432 q 291 468 272 489 l 272 489 q 261 502 247 509 q 232 515 213 515 l 213 515 q 177 515 150 488 q 123 460 109 412 q 94 363 94 300 l 94 300 q 94 235 107 185 q 120 135 142 97 q 163 59 188 27 l 188 27 l 146 -7 q 119 29 95 71 q 70 113 55 169 q 39 225 39 302 l 39 302 q 39 379 60 438 q 81 497 120 530 q 159 562 212 562 z m 455 562 l 455 562 q 508 562 546 528 q 583 493 603 419 q 622 344 622 226 l 622 226 q 622 82 596 -12 q 569 -107 511 -154 q 452 -201 357 -201 l 357 -201 q 338 -201 318 -199 q 298 -198 278 -194 l 278 -194 l 283 -147 q 300 -150 319 -151 q 337 -153 356 -153 l 356 -153 q 419 -153 460 -128 q 500 -103 524 -54 q 548 -5 558 66 q 568 136 568 226 l 568 226 q 568 325 555 389 q 541 453 516 484 q 491 515 454 515 l 454 515 q 435 515 420 509 q 405 502 393 488 l 393 488 q 375 467 367 432 q 359 396 359 334 l 359 334 l 359 10 l 314 10 l 314 319 l 329 451 q 345 509 377 536 q 409 562 455 562 z"},"൲":{"ha":1012,"x_min":39,"x_max":991,"o":"m 877 550 l 877 550 q 915 550 941 533 q 966 515 979 486 q 991 456 991 419 l 991 419 q 991 383 980 353 q 968 322 945 304 l 945 304 q 930 291 912 284 q 893 276 869 273 q 844 269 811 269 l 811 269 l 695 269 l 698 315 l 819 315 q 860 315 881 322 q 901 329 915 342 l 915 342 q 928 355 934 375 q 940 395 940 419 l 940 419 q 940 458 924 482 q 908 505 877 505 l 877 505 q 845 505 827 481 q 808 456 808 411 l 808 411 q 808 374 820 344 q 831 314 846 288 l 846 288 l 797 283 q 781 309 770 344 q 758 378 758 418 l 758 418 q 758 460 774 490 q 789 519 816 535 q 843 550 877 550 z m 212 562 l 212 562 q 246 562 271 549 q 296 536 314 511 q 331 485 343 447 l 343 447 l 359 266 l 359 0 l 307 0 l 307 331 q 307 395 299 432 q 291 468 272 489 l 272 489 q 261 502 247 509 q 232 515 213 515 l 213 515 q 177 515 150 488 q 123 460 109 412 q 94 363 94 300 l 94 300 q 94 235 107 185 q 120 135 142 97 q 163 59 188 27 l 188 27 l 146 -7 q 119 29 95 71 q 70 113 55 169 q 39 225 39 302 l 39 302 q 39 379 60 438 q 81 497 120 530 q 159 562 212 562 z m 485 562 l 485 562 q 534 562 575 542 q 615 521 645 480 q 674 439 690 377 q 706 315 706 231 l 706 231 q 706 136 688 83 q 669 30 637 9 q 604 -12 562 -12 l 562 -12 q 516 -12 488 9 q 459 30 446 63 q 432 96 432 134 l 432 134 q 432 182 448 215 q 464 248 490 269 l 490 269 q 511 286 538 296 q 564 306 599 311 q 633 315 677 315 l 677 315 l 818 315 l 818 269 l 676 269 q 622 269 587 262 q 552 254 527 234 l 527 234 q 507 219 496 195 q 485 170 485 136 l 485 136 q 485 89 505 62 q 524 34 561 34 l 561 34 q 592 34 612 53 q 632 72 643 115 q 654 158 654 231 l 654 231 q 654 248 654 263 q 653 277 652 290 l 652 290 l 651 303 q 645 364 625 412 q 604 460 569 488 q 534 515 485 515 l 485 515 q 461 515 440 508 q 419 501 403 486 l 403 486 q 388 472 378 451 q 368 430 364 401 q 359 372 359 332 l 359 332 l 359 202 l 326 207 l 321 422 q 332 472 355 503 q 378 534 411 548 q 444 562 485 562 z"},"൳":{"ha":571,"x_min":39,"x_max":549,"o":"m 175 -12 l 175 -12 q 137 -12 106 10 q 75 32 57 82 q 39 132 39 217 l 39 217 q 39 292 59 349 q 79 406 123 444 l 123 444 q 152 468 187 484 q 222 499 273 507 q 323 515 396 515 l 396 515 l 549 515 l 549 467 l 404 467 q 336 467 291 461 q 245 455 215 443 q 184 430 161 411 l 161 411 q 127 383 112 343 q 96 303 90 251 l 90 251 l 90 239 q 89 233 89 226 q 89 219 89 210 l 89 210 q 89 147 100 109 q 110 70 130 53 q 149 35 175 35 l 175 35 q 194 35 210 46 q 225 56 234 83 q 242 109 242 154 l 242 154 q 242 212 224 240 q 205 268 169 268 l 169 268 q 139 268 116 253 q 93 238 70 208 l 70 208 l 55 246 q 82 278 113 296 q 143 314 178 314 l 178 314 q 213 314 239 298 q 265 281 280 246 q 295 210 295 155 l 295 155 q 295 96 280 59 q 265 22 239 5 q 212 -12 175 -12 z"},"൴":{"ha":675,"x_min":39,"x_max":636,"o":"m 366 792 l 418 792 l 418 179 q 418 152 420 129 q 422 106 427 89 q 432 71 441 58 l 441 58 q 450 46 464 40 q 477 34 496 34 l 496 34 q 525 34 545 53 q 564 72 573 112 q 582 151 582 211 l 582 211 q 582 266 572 316 q 561 365 539 406 q 517 447 483 475 q 448 502 400 512 l 400 512 l 380 513 q 372 515 363 516 q 354 516 345 516 l 345 516 q 283 516 236 494 q 188 472 156 434 q 123 395 107 344 q 90 292 90 233 l 90 233 l 90 216 q 90 150 100 110 q 110 70 130 53 q 149 35 176 35 l 176 35 q 195 35 210 46 q 225 56 234 83 q 243 109 243 154 l 243 154 q 243 212 225 240 q 206 268 169 268 l 169 268 q 139 268 116 253 q 93 238 70 208 l 70 208 l 55 246 q 82 278 113 296 q 144 314 178 314 l 178 314 q 213 314 240 298 q 266 281 281 246 q 295 210 295 155 l 295 155 q 295 96 280 59 q 265 22 239 5 q 212 -12 176 -12 l 176 -12 q 138 -12 107 10 q 76 32 58 84 q 39 135 39 223 l 39 223 q 39 296 59 358 q 78 420 117 466 q 156 512 214 537 q 271 562 347 562 l 347 562 q 356 562 365 562 q 373 562 381 560 l 381 560 l 404 559 q 458 549 501 520 q 544 491 574 446 q 604 400 620 341 q 636 281 636 210 l 636 210 q 636 138 620 89 q 604 39 573 14 q 542 -12 497 -12 l 497 -12 q 464 -12 441 -1 q 418 9 403 27 l 403 27 q 387 45 379 69 q 371 92 369 123 q 366 153 366 194 l 366 194 l 366 792 z"},"൵":{"ha":880,"x_min":41,"x_max":875,"o":"m 261 562 l 261 562 q 325 562 362 531 q 399 500 418 440 l 418 440 l 426 394 l 436 280 l 436 0 l 383 0 l 383 326 q 383 388 375 425 q 367 462 345 485 l 345 485 q 331 499 311 507 q 291 515 262 515 l 262 515 q 211 515 173 481 q 134 446 113 385 q 92 324 92 244 l 92 244 l 92 222 q 92 153 103 112 q 113 70 132 53 q 151 35 178 35 l 178 35 q 197 35 212 46 q 227 57 236 83 q 245 109 245 154 l 245 154 q 245 212 227 240 q 208 268 171 268 l 171 268 q 141 268 118 253 q 95 238 72 208 l 72 208 l 57 246 q 84 278 115 296 q 146 314 180 314 l 180 314 q 215 314 242 298 q 268 281 283 246 q 297 210 297 156 l 297 156 q 297 96 282 59 q 267 22 241 5 q 214 -12 178 -12 l 178 -12 q 140 -12 109 11 q 78 33 60 87 q 41 140 41 233 l 41 233 q 41 343 70 416 q 99 489 149 526 q 198 562 261 562 z m 563 562 l 563 562 q 623 562 667 537 q 711 512 742 471 l 742 471 q 781 420 801 353 q 820 285 820 214 l 820 214 q 820 132 802 82 q 783 32 750 10 q 716 -12 670 -12 l 670 -12 q 622 -12 590 12 q 558 35 543 77 q 527 118 527 169 l 527 169 q 527 227 546 276 q 564 325 604 372 q 643 419 707 468 l 707 468 q 753 503 778 526 q 803 549 812 571 q 821 592 821 619 l 821 619 q 821 644 814 663 q 806 682 794 700 l 794 700 l 843 723 q 857 702 866 678 q 875 653 875 623 l 875 623 q 875 582 861 553 q 846 523 815 495 q 784 467 735 430 l 735 430 q 683 390 649 350 q 614 309 598 266 q 581 222 581 170 l 581 170 q 581 104 604 69 q 627 34 670 34 l 670 34 q 700 34 721 51 q 742 67 754 106 q 765 145 765 211 l 765 211 q 765 274 751 335 q 736 395 704 440 l 704 440 q 680 474 645 495 q 609 515 564 515 l 564 515 q 533 515 512 507 q 490 498 474 481 l 474 481 q 461 467 453 447 q 444 426 440 398 q 436 369 436 329 l 436 329 l 436 123 l 391 123 l 391 289 l 397 417 q 408 467 430 499 q 451 531 485 547 q 518 562 563 562 z"},"൶":{"ha":991,"x_min":33,"x_max":937,"o":"m 171 337 l 171 337 q 216 337 247 316 q 278 295 294 259 q 310 222 310 175 l 310 175 q 310 129 295 93 q 280 56 261 34 l 261 34 l 257 46 l 536 46 l 537 0 l 235 0 l 212 36 q 232 62 245 96 q 258 129 258 170 l 258 170 q 258 230 235 261 q 212 291 172 291 l 172 291 q 145 291 125 277 q 105 262 95 236 q 85 209 85 173 l 85 173 q 85 125 101 90 q 117 54 140 23 l 140 23 l 102 -7 q 74 28 54 72 q 33 116 33 173 l 33 173 q 33 224 51 261 q 68 297 99 317 q 130 337 171 337 z m 723 562 l 723 562 q 776 562 815 546 q 854 530 879 500 l 879 500 q 900 476 913 444 q 926 412 932 372 q 937 332 937 279 l 937 279 l 937 0 l 513 0 l 513 279 q 513 332 519 373 q 525 414 538 446 q 551 477 571 501 l 571 501 q 597 530 634 546 q 671 562 723 562 z m 686 513 l 686 513 q 660 513 639 499 q 618 484 603 456 l 603 456 q 585 427 575 383 q 565 338 565 263 l 565 263 l 565 43 l 569 44 q 621 100 662 161 q 703 222 727 285 q 751 348 751 408 l 751 408 q 751 438 745 462 q 739 486 725 500 q 711 513 686 513 z m 805 403 l 805 403 q 805 338 781 275 q 757 212 715 151 q 673 90 619 28 l 619 28 l 614 43 q 636 45 667 46 q 698 46 720 46 l 720 46 l 885 46 l 885 274 q 885 350 872 402 q 858 453 829 482 q 800 511 751 517 l 751 517 l 750 521 q 779 504 792 474 q 805 443 805 403 z"},"൷":{"ha":1258,"x_min":33,"x_max":1238,"o":"m 171 337 l 171 337 q 216 337 247 316 q 277 295 294 259 q 310 222 310 175 l 310 175 q 310 129 295 93 q 280 56 261 34 l 261 34 l 256 46 l 513 46 l 521 0 l 235 0 l 213 36 q 232 62 245 96 q 258 129 258 169 l 258 169 q 258 230 235 261 q 212 291 172 291 l 172 291 q 145 291 125 277 q 105 262 95 236 q 85 209 85 173 l 85 173 q 85 125 101 90 q 117 54 140 23 l 140 23 l 102 -7 q 74 28 54 72 q 33 116 33 174 l 33 174 q 33 224 51 261 q 68 297 99 317 q 130 337 171 337 z m 586 562 l 586 562 q 620 562 645 549 q 670 536 688 511 q 705 485 716 447 l 716 447 l 733 303 l 733 230 l 680 230 l 680 331 q 680 395 672 432 q 664 468 645 489 l 645 489 q 634 502 620 509 q 606 515 586 515 l 586 515 q 550 515 524 488 q 497 461 482 414 q 467 366 467 304 l 467 304 q 467 212 492 148 q 517 84 554 33 l 554 33 l 530 0 l 500 0 l 496 34 q 472 69 453 108 q 434 146 424 195 q 413 243 413 307 l 413 307 q 413 382 434 440 q 454 497 493 530 q 532 562 586 562 z m 858 562 l 858 562 q 907 562 948 542 q 988 521 1018 480 q 1047 438 1063 376 q 1079 314 1079 231 l 1079 231 q 1079 136 1061 83 q 1042 30 1010 9 q 977 -12 935 -12 l 935 -12 q 890 -12 861 9 q 832 30 819 63 q 806 96 806 134 l 806 134 q 806 182 822 215 q 837 248 864 269 l 864 269 q 885 286 911 296 q 937 306 971 311 q 1005 315 1048 315 l 1048 315 l 1063 315 l 1063 269 l 1050 269 q 995 269 960 262 q 925 254 900 234 l 900 234 q 881 219 870 195 q 858 170 858 136 l 858 136 q 858 89 878 62 q 897 34 935 34 l 935 34 q 965 34 986 53 q 1006 72 1017 115 q 1027 158 1027 231 l 1027 231 q 1027 248 1027 263 q 1027 277 1025 290 l 1025 290 l 1024 303 q 1019 364 998 412 q 977 460 943 488 q 908 515 859 515 l 859 515 q 834 515 814 508 q 793 501 776 486 l 776 486 q 761 472 752 451 q 742 430 738 401 q 733 372 733 332 l 733 332 l 733 246 l 700 250 l 695 422 q 706 472 729 503 q 752 534 785 548 q 818 562 858 562 z m 1178 450 l 1230 461 q 1234 448 1236 434 q 1238 419 1238 403 l 1238 403 q 1238 370 1228 345 q 1217 320 1198 304 l 1198 304 q 1174 285 1143 277 q 1111 269 1065 269 l 1065 269 l 1053 269 l 1053 315 l 1061 315 q 1097 315 1120 320 q 1143 324 1158 336 l 1158 336 q 1172 346 1179 363 q 1185 379 1185 403 l 1185 403 q 1185 414 1183 428 q 1181 441 1178 450 l 1178 450 z"},"൸":{"ha":1614,"x_min":10,"x_max":1561,"o":"m 1049 562 l 1049 562 q 1076 562 1098 553 q 1119 544 1135 528 q 1151 511 1161 489 q 1171 466 1176 439 l 1176 439 l 1157 413 q 1170 462 1195 495 q 1220 528 1258 545 q 1295 562 1347 562 l 1347 562 q 1400 562 1439 546 q 1478 530 1503 500 l 1503 500 q 1524 476 1537 444 q 1550 412 1556 372 q 1561 332 1561 279 l 1561 279 l 1561 0 l 1194 0 l 1194 45 q 1244 100 1285 161 q 1326 222 1351 285 q 1375 348 1375 408 l 1375 408 q 1375 438 1369 462 q 1363 486 1349 500 q 1334 513 1309 513 l 1309 513 q 1284 513 1263 498 q 1241 483 1226 456 l 1226 456 q 1208 425 1200 381 q 1191 337 1191 268 l 1191 268 l 1191 230 l 1138 230 l 1138 353 q 1138 402 1133 436 q 1128 469 1111 490 l 1111 490 q 1101 502 1085 509 q 1069 515 1050 515 l 1050 515 q 1031 515 1016 509 q 1000 502 990 490 l 990 490 q 972 469 967 436 q 962 402 962 353 l 962 353 l 962 195 q 962 155 959 124 q 955 92 946 69 q 937 45 920 27 l 920 27 q 903 9 879 -1 q 855 -12 821 -12 l 821 -12 q 789 -12 765 -1 q 740 9 723 27 l 723 27 q 707 45 698 69 q 689 92 685 124 q 681 155 681 194 l 681 194 l 681 353 q 681 402 676 436 q 671 469 654 490 l 654 490 q 644 502 628 509 q 612 515 593 515 l 593 515 q 574 515 559 509 q 543 502 533 490 l 533 490 q 515 469 510 436 q 505 402 505 353 l 505 353 l 505 195 q 505 126 496 90 q 486 53 461 27 l 461 27 q 445 9 421 -1 q 396 -12 365 -12 l 365 -12 q 313 -12 282 16 q 251 44 238 104 l 238 104 l 247 100 q 236 63 219 38 q 202 13 177 1 q 152 -12 116 -12 l 116 -12 q 87 -12 60 -5 q 33 1 10 13 l 10 13 l 30 57 q 48 47 70 42 q 92 36 116 36 l 116 36 q 139 36 155 42 q 170 48 181 61 l 181 61 q 200 81 209 118 q 217 155 217 216 l 217 216 l 217 550 l 270 550 l 270 216 q 270 157 276 121 q 281 85 298 64 l 298 64 q 308 50 324 43 q 339 35 360 35 l 360 35 q 381 35 397 42 q 412 49 423 61 l 423 61 q 441 82 447 116 q 453 150 453 204 l 453 204 l 453 353 q 453 395 457 427 q 460 459 470 483 q 479 506 495 523 l 495 523 q 512 541 536 552 q 560 562 594 562 l 594 562 q 625 562 650 552 q 675 541 692 523 l 692 523 q 708 506 717 483 q 726 460 730 429 q 734 398 734 356 l 734 356 l 734 198 q 734 149 739 116 q 744 82 761 61 l 761 61 q 771 49 787 42 q 803 35 822 35 l 822 35 q 841 35 857 42 q 872 49 882 61 l 882 61 q 900 82 905 116 q 910 149 910 198 l 910 198 l 910 353 q 910 395 914 427 q 917 459 927 483 q 936 506 952 523 l 952 523 q 969 541 994 552 q 1018 562 1049 562 z m 1428 403 l 1428 403 q 1428 338 1404 275 q 1380 212 1338 151 q 1296 90 1242 28 l 1242 28 l 1238 43 q 1259 45 1291 46 q 1322 46 1344 46 l 1344 46 l 1508 46 l 1508 274 q 1508 350 1495 402 q 1482 453 1453 482 q 1423 511 1374 517 l 1374 517 l 1374 521 q 1402 504 1415 474 q 1428 443 1428 403 z"},"൹":{"ha":840,"x_min":39,"x_max":818,"o":"m 212 562 l 212 562 q 246 562 271 549 q 296 536 314 511 q 331 485 343 447 l 343 447 l 359 266 l 359 0 l 307 0 l 307 331 q 307 395 299 432 q 291 468 272 489 l 272 489 q 261 502 247 509 q 232 515 213 515 l 213 515 q 177 515 150 488 q 123 460 109 412 q 94 363 94 300 l 94 300 q 94 235 107 185 q 120 135 142 97 q 163 59 188 27 l 188 27 l 146 -7 q 119 29 95 71 q 70 113 55 169 q 39 225 39 302 l 39 302 q 39 379 60 438 q 81 497 120 530 q 159 562 212 562 z m 485 562 l 485 562 q 534 562 575 542 q 615 521 645 480 q 674 439 690 377 q 706 315 706 231 l 706 231 q 706 136 688 83 q 669 30 637 9 q 604 -12 562 -12 l 562 -12 q 516 -12 488 9 q 459 30 446 63 q 432 96 432 134 l 432 134 q 432 182 448 215 q 464 248 490 269 l 490 269 q 511 286 538 296 q 564 306 599 311 q 633 315 677 315 l 677 315 l 818 315 l 818 269 l 676 269 q 622 269 587 262 q 552 254 527 234 l 527 234 q 507 219 496 195 q 485 170 485 136 l 485 136 q 485 89 505 62 q 524 34 561 34 l 561 34 q 592 34 612 53 q 632 72 643 115 q 654 158 654 231 l 654 231 q 654 248 654 263 q 653 277 652 290 l 652 290 l 651 303 q 645 364 625 412 q 604 460 569 488 q 534 515 485 515 l 485 515 q 461 515 440 508 q 419 501 403 486 l 403 486 q 388 472 378 451 q 368 430 364 401 q 359 372 359 332 l 359 332 l 359 202 l 326 207 l 321 422 q 332 472 355 503 q 378 534 411 548 q 444 562 485 562 z"},"ൺ":{"ha":1098,"x_min":41,"x_max":1059,"o":"m 261 562 l 261 562 q 325 562 361 532 q 397 501 417 442 l 417 442 l 401 443 q 418 506 451 534 q 484 562 536 562 l 536 562 q 587 562 620 533 q 653 504 667 441 l 667 441 l 666 418 l 683 334 l 683 0 l 631 0 l 631 332 q 631 396 625 431 q 618 466 600 487 l 600 487 q 589 500 573 508 q 557 515 533 515 l 533 515 q 510 515 495 508 q 479 500 468 487 l 468 487 q 448 464 442 428 q 436 392 436 331 l 436 331 l 436 0 l 383 0 l 383 326 q 383 388 375 425 q 367 462 345 485 l 345 485 q 331 499 311 507 q 291 515 262 515 l 262 515 q 211 515 173 481 q 134 447 113 386 q 92 325 92 244 l 92 244 l 92 222 q 92 153 103 112 q 113 70 132 53 q 151 35 178 35 l 178 35 q 197 35 212 46 q 227 57 236 83 q 245 109 245 154 l 245 154 q 245 212 227 240 q 208 268 171 268 l 171 268 q 141 268 118 253 q 95 238 72 208 l 72 208 l 57 246 q 84 278 115 296 q 146 314 180 314 l 180 314 q 215 314 242 298 q 268 281 283 246 q 297 210 297 156 l 297 156 q 297 96 282 59 q 267 22 241 5 q 214 -12 178 -12 l 178 -12 q 140 -12 109 11 q 78 33 60 87 q 41 140 41 233 l 41 233 q 41 343 70 416 q 99 489 149 526 q 198 562 261 562 z m 921 -12 l 921 -12 q 878 -12 847 11 q 815 33 798 80 q 781 127 781 202 l 781 202 q 781 272 797 327 q 813 382 838 428 q 863 474 890 515 l 890 515 l 902 532 q 927 570 943 604 q 959 638 959 671 l 959 671 q 959 702 943 723 q 926 743 890 743 l 890 743 q 874 743 858 740 q 841 737 828 733 l 828 733 l 817 779 q 834 785 855 789 q 876 792 897 792 l 897 792 q 942 792 967 774 q 992 756 1002 730 q 1012 703 1012 677 l 1012 677 q 1012 633 993 592 q 974 551 942 504 l 942 504 l 932 490 q 906 450 884 407 q 862 363 848 313 q 834 263 834 203 l 834 203 q 834 137 846 100 q 857 63 877 49 q 896 34 920 34 l 920 34 q 960 34 982 72 q 1004 110 1004 206 l 1004 206 q 1004 259 994 315 q 983 371 960 418 q 937 465 899 491 l 899 491 q 882 503 861 510 q 839 517 812 517 l 812 517 q 780 517 760 509 q 739 500 724 485 l 724 485 q 708 469 699 447 q 690 424 687 395 q 683 365 683 329 l 683 329 l 683 50 l 638 50 l 639 240 l 645 420 q 655 467 677 499 q 698 531 732 547 q 766 562 811 562 l 811 562 q 844 562 871 555 q 897 547 919 533 l 919 533 q 922 532 925 530 q 927 528 930 526 l 930 526 q 974 496 1003 447 q 1031 397 1045 336 q 1059 275 1059 209 l 1059 209 q 1059 91 1022 40 q 985 -12 921 -12 z"},"ൻ":{"ha":774,"x_min":39,"x_max":735,"o":"m 212 562 l 212 562 q 246 562 271 549 q 295 536 312 511 q 329 486 338 450 l 338 450 l 359 281 l 359 0 l 307 0 l 307 331 q 307 395 299 432 q 291 468 272 489 l 272 489 q 261 502 247 509 q 232 515 213 515 l 213 515 q 177 515 150 488 q 123 460 109 412 q 94 363 94 300 l 94 300 q 94 235 107 185 q 120 135 142 97 q 163 59 188 27 l 188 27 l 146 -7 q 119 29 95 71 q 70 113 55 169 q 39 225 39 302 l 39 302 q 39 379 60 438 q 81 497 120 530 q 159 562 212 562 z m 597 -12 l 597 -12 q 554 -12 523 11 q 491 33 474 80 q 457 127 457 202 l 457 202 q 457 272 473 327 q 489 382 514 428 q 539 474 566 515 l 566 515 l 578 532 q 603 570 619 604 q 635 638 635 671 l 635 671 q 635 702 619 723 q 602 743 566 743 l 566 743 q 550 743 535 740 q 519 737 504 733 l 504 733 l 493 779 q 510 785 531 789 q 552 792 573 792 l 573 792 q 618 792 643 774 q 668 756 678 730 q 688 703 688 677 l 688 677 q 688 633 669 592 q 650 551 618 504 l 618 504 l 608 490 q 582 450 560 407 q 538 363 524 313 q 510 263 510 203 l 510 203 q 510 137 522 100 q 533 63 553 49 q 572 34 596 34 l 596 34 q 636 34 658 72 q 680 110 680 206 l 680 206 q 680 259 670 315 q 659 371 636 418 q 613 465 575 491 l 575 491 q 558 503 537 510 q 515 517 488 517 l 488 517 q 456 517 436 509 q 415 500 400 485 l 400 485 q 384 469 375 447 q 366 424 363 395 q 359 365 359 329 l 359 329 l 359 50 l 314 50 l 315 240 l 321 420 q 331 467 353 499 q 374 531 408 547 q 442 562 487 562 l 487 562 q 520 562 547 555 q 573 547 595 533 l 595 533 q 598 532 601 530 q 603 528 606 526 l 606 526 q 650 496 679 447 q 707 397 721 336 q 735 275 735 209 l 735 209 q 735 91 698 40 q 661 -12 597 -12 z"},"ർ":{"ha":542,"x_min":39,"x_max":503,"o":"m 366 -12 l 366 -12 q 323 -12 292 11 q 260 33 243 80 q 225 127 225 202 l 225 202 q 225 272 241 327 q 257 382 283 428 q 308 474 335 515 l 335 515 l 346 532 q 371 570 388 604 q 404 638 404 671 l 404 671 q 404 702 388 723 q 371 743 334 743 l 334 743 q 319 743 302 740 q 285 737 273 733 l 273 733 l 262 779 q 278 785 299 789 q 320 792 341 792 l 341 792 q 386 792 411 774 q 436 756 447 730 q 457 703 457 677 l 457 677 q 457 633 438 592 q 419 551 387 504 l 387 504 l 376 490 q 351 450 329 407 q 306 363 293 313 q 279 263 279 203 l 279 203 q 279 137 291 100 q 302 63 322 49 q 341 34 364 34 l 364 34 q 405 34 427 72 q 449 110 449 206 l 449 206 q 449 245 443 287 q 437 329 424 369 q 411 409 392 441 q 372 473 344 492 l 344 492 q 327 504 307 510 q 287 516 264 516 l 264 516 q 206 516 169 485 q 131 454 113 402 q 94 350 94 286 l 94 286 q 94 224 107 177 q 119 129 142 94 q 164 58 191 30 l 191 30 l 153 -7 q 125 22 99 63 q 73 103 56 159 q 39 215 39 290 l 39 290 q 39 348 54 398 q 69 447 98 484 q 126 521 168 542 q 210 562 263 562 l 263 562 q 292 562 317 555 q 342 548 363 534 l 363 534 q 366 533 369 531 q 372 529 374 527 l 374 527 q 418 497 447 447 q 475 397 489 336 q 503 275 503 209 l 503 209 q 503 91 466 40 q 429 -12 366 -12 z"},"ൽ":{"ha":875,"x_min":39,"x_max":836,"o":"m 537 562 l 537 562 q 569 562 598 557 q 627 552 653 542 q 679 532 701 517 l 701 517 l 710 511 q 775 466 806 386 q 836 306 836 209 l 836 209 q 836 91 799 40 q 762 -12 699 -12 l 699 -12 q 656 -12 625 11 q 593 33 576 80 q 558 127 558 202 l 558 202 q 558 270 574 325 q 589 379 614 425 q 638 470 665 510 l 665 510 l 673 522 q 701 562 719 600 q 737 638 737 671 l 737 671 q 737 702 721 723 q 704 743 667 743 l 667 743 q 652 743 635 740 q 618 737 606 733 l 606 733 l 595 779 q 611 785 632 789 q 653 792 674 792 l 674 792 q 719 792 744 774 q 769 756 780 730 q 790 703 790 677 l 790 677 q 790 633 771 592 q 751 550 718 501 l 718 501 l 706 485 q 682 448 661 406 q 639 363 626 313 q 612 263 612 203 l 612 203 q 612 137 624 100 q 635 63 655 49 q 674 34 697 34 l 697 34 q 738 34 760 72 q 782 110 782 206 l 782 206 q 782 264 771 316 q 760 367 738 409 q 715 451 678 477 l 678 477 l 662 485 q 636 501 604 508 q 571 515 535 515 l 535 515 q 497 515 464 507 q 430 499 403 482 l 403 482 l 389 475 q 338 437 311 368 q 284 298 284 207 l 284 207 q 284 139 296 101 q 307 63 327 49 q 346 34 370 34 l 370 34 q 396 34 416 49 q 435 63 446 101 q 457 139 457 207 l 457 207 q 457 261 446 314 q 434 367 411 411 q 388 455 354 481 l 354 481 l 344 489 q 326 504 306 511 q 285 517 262 517 l 262 517 q 207 517 169 487 q 131 456 113 404 q 94 352 94 286 l 94 286 q 94 223 107 176 q 119 128 142 93 q 164 58 191 30 l 191 30 l 153 -7 q 125 22 99 62 q 73 102 56 158 q 39 214 39 290 l 39 290 q 39 347 53 397 q 67 446 95 483 q 122 520 163 541 q 203 562 258 562 l 258 562 q 294 562 324 552 q 354 541 381 518 l 381 518 l 396 505 q 451 457 481 381 q 511 305 511 208 l 511 208 q 511 130 494 82 q 477 33 445 11 q 413 -12 370 -12 l 370 -12 q 327 -12 296 11 q 264 34 247 83 q 230 132 230 208 l 230 208 q 230 271 243 325 q 256 379 283 424 q 309 468 349 500 l 349 500 l 360 510 q 393 535 437 549 q 480 562 537 562 z"},"ൾ":{"ha":759,"x_min":39,"x_max":720,"o":"m 558 792 l 558 792 q 603 792 628 774 q 653 756 663 730 q 673 703 673 677 l 673 677 q 673 633 654 592 q 635 551 603 504 l 603 504 l 593 490 q 567 450 545 407 q 523 363 509 313 q 495 263 495 203 l 495 203 q 495 137 507 100 q 518 63 538 49 q 557 34 581 34 l 581 34 q 621 34 643 72 q 665 110 665 206 l 665 206 q 665 245 659 287 q 653 329 641 369 q 628 409 608 441 q 588 473 560 492 l 560 492 q 543 504 525 510 q 506 516 484 516 l 484 516 q 459 516 440 510 q 421 504 407 493 l 407 493 q 375 469 364 427 q 353 385 353 315 l 353 315 l 353 198 q 353 161 350 130 q 346 98 337 73 q 327 48 309 28 l 309 28 q 291 10 267 -1 q 242 -12 208 -12 l 208 -12 q 155 -12 117 19 q 79 50 59 108 q 39 166 39 247 l 39 247 q 39 325 55 382 q 70 438 95 481 q 119 524 147 560 l 147 560 l 188 525 q 163 494 142 455 q 120 416 107 366 q 94 315 94 248 l 94 248 q 94 185 107 137 q 120 89 146 62 q 171 35 208 35 l 208 35 q 229 35 244 42 q 259 49 269 61 l 269 61 q 287 83 294 121 q 300 158 300 224 l 300 224 l 300 325 q 300 397 314 445 q 328 493 366 525 l 366 525 q 387 542 416 552 q 445 562 482 562 l 482 562 q 510 562 534 555 q 558 548 580 534 l 580 534 l 591 527 q 635 497 664 447 q 692 397 706 336 q 720 275 720 209 l 720 209 q 720 91 683 40 q 646 -12 582 -12 l 582 -12 q 539 -12 508 11 q 476 33 459 80 q 442 127 442 202 l 442 202 q 442 272 458 327 q 474 382 499 428 q 524 474 551 515 l 551 515 l 563 532 q 588 570 604 604 q 620 638 620 671 l 620 671 q 620 702 604 723 q 587 743 551 743 l 551 743 q 535 743 519 740 q 502 737 489 733 l 489 733 l 478 779 q 495 785 516 789 q 537 792 558 792 z"},"ൿ":{"ha":870,"x_min":32,"x_max":838,"o":"m 383 562 l 383 562 q 440 562 476 530 q 511 497 529 434 q 546 371 546 278 l 546 278 q 546 172 526 109 q 506 45 469 17 q 432 -12 382 -12 l 382 -12 q 341 -12 313 5 q 285 21 266 50 l 266 50 q 241 89 231 149 q 220 208 220 277 l 220 277 q 220 423 262 493 q 304 562 383 562 z m 383 516 l 383 516 q 328 516 300 460 q 272 404 272 276 l 272 276 q 272 186 285 133 q 297 80 322 57 q 347 34 382 34 l 382 34 q 418 34 443 57 q 468 80 481 134 q 494 187 494 277 l 494 277 q 494 364 481 417 q 468 469 444 493 q 419 516 383 516 z m 171 -12 l 171 -12 q 109 -12 71 29 q 32 70 32 147 l 32 147 q 32 190 47 219 q 62 247 87 266 l 87 266 q 108 284 135 295 q 162 305 198 310 q 234 314 283 314 l 283 314 l 617 314 q 678 314 716 304 q 754 294 782 272 l 782 272 q 807 252 823 219 q 838 185 838 139 l 838 139 q 838 67 807 28 q 776 -12 716 -12 l 716 -12 q 658 -12 626 31 q 593 73 593 146 l 593 146 q 593 179 601 213 q 608 247 621 287 l 621 287 q 622 291 623 295 q 624 299 626 303 l 626 303 q 636 333 649 368 q 662 402 678 442 l 678 442 q 700 497 713 537 q 726 577 732 608 q 738 638 738 665 l 738 665 q 738 700 722 722 q 705 743 669 743 l 669 743 q 653 743 637 740 q 620 737 607 733 l 607 733 l 596 779 q 613 785 634 789 q 655 792 676 792 l 676 792 q 720 792 745 774 q 770 756 781 729 q 791 702 791 676 l 791 676 q 791 652 788 628 q 785 604 777 576 q 769 547 757 512 q 744 476 725 427 l 725 427 q 711 389 698 357 q 685 325 677 300 l 677 300 q 676 295 675 291 q 673 286 671 282 l 671 282 q 657 241 651 210 q 644 178 644 145 l 644 145 q 644 105 654 81 q 664 57 681 47 q 697 36 717 36 l 717 36 q 751 36 768 63 q 785 89 785 138 l 785 138 q 785 170 776 195 q 766 220 748 236 l 748 236 q 729 252 699 260 q 669 268 621 268 l 621 268 l 273 268 q 214 268 178 260 q 141 251 117 229 l 117 229 q 102 215 93 195 q 84 174 84 146 l 84 146 q 84 106 97 82 q 109 57 130 46 q 150 35 176 35 l 176 35 q 204 35 228 45 q 251 54 280 78 l 280 78 l 307 41 q 282 21 261 10 q 239 -2 218 -7 q 196 -12 171 -12 z"},"!":{"ha":220,"x_min":70,"x_max":150,"o":"m 130 188 l 89 188 l 78 714 l 141 714 l 130 188 z m 110 -10 l 110 -10 q 89 -10 80 3 q 70 16 70 38 l 70 38 q 70 60 80 73 q 89 85 110 85 l 110 85 q 131 85 141 73 q 150 61 150 38 l 150 38 q 150 15 140 3 q 130 -10 110 -10 z"},"\"":{"ha":351,"x_min":69,"x_max":282,"o":"m 120 542 l 79 542 l 69 800 l 130 800 l 120 542 z m 272 542 l 231 542 l 221 800 l 282 800 l 272 542 z"},"#":{"ha":499,"x_min":26,"x_max":474,"o":"m 118 0 l 74 0 l 116 220 l 26 220 l 26 265 l 124 265 l 159 453 l 59 453 l 59 498 l 168 498 l 209 714 l 254 714 l 212 498 l 340 498 l 381 714 l 426 714 l 384 498 l 474 498 l 474 453 l 376 453 l 341 265 l 440 265 l 440 220 l 332 220 l 290 0 l 246 0 l 288 220 l 160 220 l 118 0 z m 204 453 l 169 265 l 296 265 l 331 453 l 204 453 z"},"%":{"ha":633,"x_min":48,"x_max":585,"o":"m 219 0 l 173 0 l 413 714 l 460 714 l 219 0 z m 155 276 l 155 276 q 102 276 75 333 q 48 389 48 501 l 48 501 q 48 613 75 669 q 102 724 156 724 l 156 724 q 210 724 237 669 q 263 613 263 501 l 263 501 q 263 389 236 333 q 208 276 155 276 z m 156 320 l 156 320 q 187 320 202 364 q 216 408 216 501 l 216 501 q 216 594 202 638 q 187 682 156 682 l 156 682 q 125 682 110 638 q 95 593 95 501 l 95 501 q 95 408 111 364 q 126 320 156 320 z m 477 -9 l 477 -9 q 424 -9 397 48 q 370 104 370 215 l 370 215 q 370 327 397 383 q 424 439 478 439 l 478 439 q 532 439 559 383 q 585 327 585 216 l 585 216 q 585 103 558 47 q 530 -9 477 -9 z m 477 35 l 477 35 q 508 35 523 79 q 538 123 538 215 l 538 215 q 538 308 523 352 q 508 396 477 396 l 477 396 q 446 396 432 352 q 417 308 417 215 l 417 215 q 417 122 432 79 q 447 35 477 35 z"},"'":{"ha":198,"x_min":69,"x_max":130,"o":"m 120 542 l 79 542 l 69 800 l 130 800 l 120 542 z"},"(":{"ha":290,"x_min":54,"x_max":261,"o":"m 54 275 l 54 275 q 54 377 72 472 q 89 566 123 650 q 157 733 204 800 l 204 800 l 261 800 q 210 727 176 643 q 141 559 124 467 q 107 375 107 276 l 107 276 q 107 178 124 87 q 141 -5 176 -87 q 210 -170 261 -244 l 261 -244 l 204 -244 q 155 -175 122 -91 q 88 -8 71 85 q 54 178 54 275 z"},")":{"ha":290,"x_min":29,"x_max":237,"o":"m 237 282 l 237 282 q 237 180 219 85 q 201 -10 168 -93 q 134 -176 86 -244 l 86 -244 l 29 -244 q 81 -170 115 -86 q 149 -3 166 90 q 183 182 183 281 l 183 281 q 183 380 166 471 q 149 562 115 645 q 81 727 30 800 l 30 800 l 86 800 q 136 732 170 649 q 203 565 220 473 q 237 380 237 282 z"},"*":{"ha":504,"x_min":42,"x_max":462,"o":"m 223 800 l 280 800 l 271 615 l 450 671 l 462 616 l 282 581 l 395 431 l 346 401 l 251 563 l 160 401 l 109 431 l 221 581 l 42 616 l 54 671 l 232 616 l 223 800 z"},"+":{"ha":414,"x_min":31,"x_max":382,"o":"m 231 124 l 184 124 l 184 330 l 31 330 l 31 377 l 184 377 l 184 583 l 231 583 l 231 377 l 382 377 l 382 330 l 231 330 l 231 124 z"},",":{"ha":229,"x_min":42,"x_max":155,"o":"m 93 115 l 148 115 l 155 105 q 147 64 137 24 q 126 -17 113 -56 q 99 -95 84 -130 l 84 -130 l 42 -130 q 54 -92 64 -49 q 74 -6 82 37 q 90 79 93 115 l 93 115 z"},"-":{"ha":306,"x_min":38,"x_max":268,"o":"m 268 246 l 38 246 l 38 294 l 268 294 l 268 246 z"},".":{"ha":229,"x_min":75,"x_max":155,"o":"m 114 -10 l 114 -10 q 94 -10 85 3 q 75 16 75 38 l 75 38 q 75 60 85 73 q 94 85 114 85 l 114 85 q 136 85 146 73 q 155 61 155 38 l 155 38 q 155 15 145 3 q 135 -10 114 -10 z"},"/":{"ha":361,"x_min":23,"x_max":339,"o":"m 76 -244 l 23 -244 l 286 800 l 339 800 l 76 -244 z"},":":{"ha":229,"x_min":75,"x_max":155,"o":"m 114 -10 l 114 -10 q 94 -10 85 3 q 75 16 75 38 l 75 38 q 75 60 84 73 q 93 85 114 85 l 114 85 q 136 85 146 73 q 155 61 155 38 l 155 38 q 155 15 145 3 q 135 -10 114 -10 z m 114 443 l 114 443 q 94 443 85 456 q 75 468 75 491 l 75 491 q 75 513 84 526 q 93 538 114 538 l 114 538 q 136 538 146 526 q 155 513 155 491 l 155 491 q 155 468 145 456 q 135 443 114 443 z"},";":{"ha":229,"x_min":42,"x_max":155,"o":"m 93 115 l 148 115 l 155 105 q 148 64 137 24 q 126 -17 113 -56 q 99 -95 84 -130 l 84 -130 l 42 -130 q 55 -92 65 -49 q 75 -6 83 37 q 90 79 93 115 l 93 115 z m 114 443 l 114 443 q 94 443 85 456 q 75 468 75 491 l 75 491 q 75 513 84 526 q 93 538 114 538 l 114 538 q 136 538 146 526 q 155 513 155 491 l 155 491 q 155 468 145 456 q 135 443 114 443 z"},"<":{"ha":414,"x_min":31,"x_max":384,"o":"m 384 195 l 384 142 l 31 343 l 31 379 l 384 567 l 384 513 l 91 361 l 384 195 z"},"=":{"ha":414,"x_min":32,"x_max":382,"o":"m 382 223 l 32 223 l 32 270 l 382 270 l 382 223 z m 382 435 l 32 435 l 32 482 l 382 482 l 382 435 z"},">":{"ha":414,"x_min":31,"x_max":384,"o":"m 384 343 l 31 142 l 31 195 l 324 360 l 31 513 l 31 567 l 384 379 l 384 343 z"},"?":{"ha":324,"x_min":32,"x_max":289,"o":"m 150 724 l 150 724 q 215 724 252 683 q 289 641 289 565 l 289 565 q 289 521 280 489 q 270 456 253 427 q 235 398 210 363 l 210 363 q 188 333 177 309 q 165 284 161 260 q 157 235 157 205 l 157 205 l 157 186 l 111 186 l 111 210 q 111 248 116 277 q 120 306 133 332 q 145 358 166 387 l 166 387 q 188 417 204 443 q 220 469 228 497 q 236 525 236 560 l 236 560 q 236 617 213 646 q 190 675 145 675 l 145 675 q 120 675 97 668 q 74 660 53 649 l 53 649 l 32 692 q 57 705 87 715 q 116 724 150 724 z m 135 -10 l 135 -10 q 115 -10 105 3 q 95 16 95 38 l 95 38 q 95 60 105 73 q 114 85 135 85 l 135 85 q 156 85 166 73 q 175 61 175 38 l 175 38 q 175 15 166 3 q 156 -10 135 -10 z"},"[":{"ha":317,"x_min":81,"x_max":278,"o":"m 278 -244 l 81 -244 l 81 800 l 278 800 l 278 753 l 133 753 l 133 -197 l 278 -197 l 278 -244 z"},"\\":{"ha":361,"x_min":23,"x_max":339,"o":"m 339 -244 l 286 -244 l 23 800 l 76 800 l 339 -244 z"},"]":{"ha":317,"x_min":40,"x_max":237,"o":"m 237 -244 l 40 -244 l 40 -197 l 184 -197 l 184 753 l 40 753 l 40 800 l 237 800 l 237 -244 z"},"^":{"ha":414,"x_min":17,"x_max":396,"o":"m 70 361 l 17 361 l 189 717 l 225 717 l 396 361 l 342 361 l 207 652 l 70 361 z"},"_":{"ha":357,"x_min":-2,"x_max":359,"o":"m 359 -134 l -2 -134 l -2 -90 l 359 -90 l 359 -134 z"},"{":{"ha":353,"x_min":30,"x_max":314,"o":"m 314 -198 l 314 -244 q 259 -243 222 -228 q 184 -213 166 -181 q 147 -149 147 -98 l 147 -98 l 147 151 q 147 209 119 232 q 91 255 30 255 l 30 255 l 30 301 q 91 301 119 325 q 147 349 147 406 l 147 406 l 147 654 q 147 702 167 735 q 186 767 224 784 q 261 800 314 800 l 314 800 l 314 755 q 254 754 227 730 q 199 705 199 650 l 199 650 l 199 404 q 199 353 179 321 q 158 289 109 280 l 109 280 l 109 276 q 157 266 178 237 q 199 208 199 154 l 199 154 l 199 -95 q 199 -133 210 -155 q 221 -178 247 -188 q 272 -198 314 -198 l 314 -198 z"},"|":{"ha":532,"x_min":241,"x_max":291,"o":"m 291 -244 l 241 -244 l 241 800 l 291 800 l 291 -244 z"},"}":{"ha":353,"x_min":39,"x_max":323,"o":"m 39 755 l 39 800 q 95 800 132 785 q 169 770 188 738 q 207 706 207 654 l 207 654 l 207 405 q 207 347 235 324 q 262 301 323 301 l 323 301 l 323 255 q 262 255 235 232 q 207 208 207 150 l 207 150 l 207 -97 q 207 -145 187 -178 q 166 -211 129 -227 q 91 -244 39 -244 l 39 -244 l 39 -198 q 100 -197 127 -172 q 154 -148 154 -93 l 154 -93 l 154 152 q 154 203 176 235 q 197 267 244 276 l 244 276 l 244 280 q 196 290 175 319 q 154 348 154 402 l 154 402 l 154 652 q 154 690 143 713 q 132 735 107 745 q 82 754 39 755 l 39 755 z"},"~":{"ha":414,"x_min":30,"x_max":386,"o":"m 201 331 l 201 331 q 179 345 161 352 q 142 358 123 358 l 123 358 q 99 358 77 344 q 54 330 30 303 l 30 303 l 30 358 q 49 379 73 393 q 96 406 125 406 l 125 406 q 151 406 172 398 q 193 390 216 377 l 216 377 q 242 362 259 356 q 276 349 298 349 l 298 349 q 321 349 343 363 q 365 377 386 402 l 386 402 l 386 347 q 369 327 346 315 q 323 302 295 302 l 295 302 q 268 302 248 310 q 228 317 201 331 z"}," ":{"ha":221,"x_min":0,"x_max":0,"o":""},"­":{"ha":306,"x_min":38,"x_max":268,"o":"m 268 246 l 38 246 l 38 294 l 268 294 l 268 246 z"},"–":{"ha":500,"x_min":39,"x_max":461,"o":"m 461 246 l 39 246 l 39 294 l 461 294 l 461 246 z"},"—":{"ha":1000,"x_min":39,"x_max":961,"o":"m 961 246 l 39 246 l 39 294 l 961 294 l 961 246 z"},"‘":{"ha":199,"x_min":43,"x_max":156,"o":"m 105 555 l 49 555 l 43 565 q 51 606 62 647 q 72 687 86 726 q 99 765 115 800 l 115 800 l 156 800 q 144 762 134 719 q 123 675 116 633 q 109 591 105 555 l 105 555 z"},"’":{"ha":199,"x_min":43,"x_max":156,"o":"m 94 800 l 150 800 l 156 790 q 149 749 138 709 q 127 668 114 630 q 101 591 85 555 l 85 555 l 43 555 q 53 583 61 615 q 69 647 76 680 q 82 712 87 743 q 92 774 94 800 l 94 800 z"},"“":{"ha":349,"x_min":43,"x_max":306,"o":"m 255 555 l 199 555 l 193 565 q 201 606 212 647 q 222 687 236 726 q 249 765 264 800 l 264 800 l 306 800 q 293 762 283 719 q 273 676 266 634 q 259 592 255 555 l 255 555 z m 105 555 l 49 555 l 43 565 q 51 606 62 647 q 72 687 86 726 q 99 765 115 800 l 115 800 l 156 800 q 144 762 134 719 q 123 675 116 633 q 109 591 105 555 l 105 555 z"},"”":{"ha":349,"x_min":43,"x_max":306,"o":"m 244 800 l 299 800 l 306 790 q 299 749 288 709 q 277 668 264 630 q 250 591 235 555 l 235 555 l 193 555 q 206 594 216 637 q 226 680 234 722 q 241 763 244 800 l 244 800 z m 94 800 l 150 800 l 156 790 q 149 749 138 709 q 127 668 114 630 q 101 591 85 555 l 85 555 l 43 555 q 53 583 61 615 q 69 647 76 680 q 82 712 87 743 q 92 774 94 800 l 94 800 z"},"…":{"ha":656,"x_min":75,"x_max":582,"o":"m 114 -10 l 114 -10 q 94 -10 85 3 q 75 16 75 38 l 75 38 q 75 60 85 73 q 94 85 114 85 l 114 85 q 136 85 146 73 q 155 61 155 38 l 155 38 q 155 15 145 3 q 135 -10 114 -10 z m 327 -10 l 327 -10 q 307 -10 298 3 q 288 16 288 38 l 288 38 q 288 60 298 73 q 307 85 327 85 l 327 85 q 349 85 359 73 q 368 61 368 38 l 368 38 q 368 15 358 3 q 348 -10 327 -10 z m 541 -10 l 541 -10 q 521 -10 512 3 q 502 16 502 38 l 502 38 q 502 60 512 73 q 521 85 541 85 l 541 85 q 563 85 573 73 q 582 61 582 38 l 582 38 q 582 15 572 3 q 562 -10 541 -10 z"},"×":{"ha":414,"x_min":35,"x_max":379,"o":"m 206 386 l 346 526 l 379 494 l 239 353 l 378 214 l 346 182 l 206 321 l 67 181 l 35 214 l 174 353 l 35 492 l 67 525 l 206 386 z"},"÷":{"ha":414,"x_min":32,"x_max":382,"o":"m 382 330 l 32 330 l 32 377 l 382 377 l 382 330 z m 208 126 l 208 126 q 187 126 179 139 q 170 152 170 174 l 170 174 q 170 198 180 211 q 189 224 208 224 l 208 224 q 227 224 236 211 q 245 198 245 175 l 245 175 q 245 152 236 139 q 226 126 208 126 z m 208 482 l 208 482 q 188 482 179 495 q 170 508 170 531 l 170 531 q 170 553 179 566 q 188 579 208 579 l 208 579 q 227 579 236 566 q 245 553 245 530 l 245 530 q 245 507 236 495 q 226 482 208 482 z"},"−":{"ha":414,"x_min":32,"x_max":382,"o":"m 382 330 l 32 330 l 32 377 l 382 377 l 382 330 z"},"₹":{"ha":414,"x_min":53,"x_max":368,"o":"m 278 0 l 216 0 l 55 299 l 61 346 l 73 346 q 115 346 138 356 q 160 365 173 383 l 173 383 q 190 405 196 436 q 201 467 201 506 l 201 506 q 201 554 194 586 q 187 617 166 639 l 166 639 q 152 653 131 661 q 109 669 72 669 l 72 669 l 53 669 l 53 714 l 368 714 l 368 669 l 190 669 q 219 653 237 618 q 254 582 254 507 l 254 507 q 254 442 238 398 q 222 354 187 330 q 152 305 97 299 l 97 299 l 108 308 l 278 0 z m 368 488 l 53 488 l 53 533 l 368 533 l 368 488 z"},"꠰":{"ha":189,"x_min":68,"x_max":121,"o":"m 68 0 l 68 550 l 121 550 l 121 0 l 68 0 z"},"꠱":{"ha":335,"x_min":68,"x_max":267,"o":"m 68 0 l 68 550 l 121 550 l 121 0 l 68 0 z m 214 0 l 214 550 l 267 550 l 267 0 l 214 0 z"},"꠲":{"ha":481,"x_min":68,"x_max":413,"o":"m 68 0 l 68 550 l 121 550 l 121 0 l 68 0 z m 214 0 l 214 550 l 267 550 l 267 0 l 214 0 z m 360 0 l 360 550 l 413 550 l 413 0 l 360 0 z"},"॑":{"ha":0,"x_min":-302,"x_max":-255,"o":"m -302 653 l -302 864 l -255 864 l -255 653 l -302 653 z"},"॒":{"ha":0,"x_min":-458,"x_max":-99,"o":"m -99 -122 l -99 -168 l -458 -168 l -458 -122 l -99 -122 z"},"।":{"ha":264,"x_min":141,"x_max":193,"o":"m 193 -49 l 141 -49 l 141 599 l 193 599 l 193 -49 z"},"॥":{"ha":434,"x_min":141,"x_max":363,"o":"m 363 -49 l 311 -49 l 311 599 l 363 599 l 363 -49 z m 193 -49 l 141 -49 l 141 599 l 193 599 l 193 -49 z"},"᳚":{"ha":0,"x_min":-355,"x_max":-202,"o":"m -355 653 l -355 864 l -310 864 l -310 653 l -355 653 z m -247 653 l -247 864 l -202 864 l -202 653 l -247 653 z"},"̇":{"ha":0,"x_min":-316,"x_max":-241,"o":"m -316 701 l -316 701 q -316 722 -306 734 q -297 745 -279 745 l -279 745 q -258 745 -249 734 q -241 722 -241 701 l -241 701 q -241 681 -250 669 q -259 657 -279 657 l -279 657 q -297 657 -306 669 q -316 681 -316 701 z"},"̣":{"ha":0,"x_min":-316,"x_max":-241,"o":"m -316 -135 l -316 -135 q -316 -114 -306 -102 q -297 -91 -279 -91 l -279 -91 q -258 -91 -249 -102 q -241 -114 -241 -135 l -241 -135 q -241 -155 -250 -167 q -259 -179 -279 -179 l -279 -179 q -297 -179 -306 -167 q -316 -155 -316 -135 z"},"‐":{"ha":306,"x_min":38,"x_max":268,"o":"m 268 246 l 38 246 l 38 294 l 268 294 l 268 246 z"},"​":{"ha":0,"x_min":0,"x_max":0,"o":""},"‌":{"ha":0,"x_min":0,"x_max":0,"o":""},"‍":{"ha":0,"x_min":-161,"x_max":161,"o":"m 29 -244 l -29 -244 l -29 565 l -121 474 l -161 514 l -40 631 l -161 748 l -121 788 l 0 669 l 121 788 l 161 748 l 40 631 l 161 514 l 121 474 l 29 565 l 29 -244 z"},"◌":{"ha":562,"x_min":57,"x_max":504,"o":"m 89 231 l 89 231 q 57 231 57 264 l 57 264 q 57 295 89 295 l 89 295 q 121 295 121 264 l 121 264 q 121 231 89 231 z m 138 95 l 138 95 q 106 95 106 127 l 106 127 q 106 158 138 158 l 138 158 q 169 158 169 127 l 169 127 q 169 95 138 95 z m 281 40 l 281 40 q 249 40 249 72 l 249 72 q 249 104 281 104 l 281 104 q 312 104 312 72 l 312 72 q 312 40 281 40 z m 138 369 l 138 369 q 106 369 106 401 l 106 401 q 106 432 138 432 l 138 432 q 169 432 169 401 l 169 401 q 169 369 138 369 z m 423 95 l 423 95 q 391 95 391 127 l 391 127 q 391 158 423 158 l 423 158 q 455 158 455 127 l 455 127 q 455 95 423 95 z m 281 424 l 281 424 q 249 424 249 456 l 249 456 q 249 487 281 487 l 281 487 q 312 487 312 456 l 312 456 q 312 424 281 424 z m 472 231 l 472 231 q 441 231 441 264 l 441 264 q 441 295 472 295 l 472 295 q 504 295 504 264 l 504 264 q 504 231 472 231 z m 423 369 l 423 369 q 391 369 391 401 l 391 401 q 391 432 423 432 l 423 432 q 455 432 455 401 l 455 401 q 455 369 423 369 z"},"«":{"ha":434,"x_min":38,"x_max":397,"o":"m 38 264 l 38 278 l 180 462 l 217 443 l 103 271 l 218 101 l 180 81 l 38 264 z m 217 264 l 217 278 l 360 462 l 397 443 l 283 271 l 397 101 l 360 81 l 217 264 z"},"»":{"ha":429,"x_min":38,"x_max":392,"o":"m 392 278 l 392 264 l 249 81 l 212 101 l 327 271 l 212 443 l 249 462 l 392 278 z m 218 278 l 218 264 l 75 81 l 38 101 l 152 271 l 38 443 l 75 462 l 218 278 z"},"̈":{"ha":0,"x_min":-110,"x_max":110,"o":"m -109 665 l -109 665 q -109 685 -99 696 q -90 707 -75 707 l -75 707 q -61 707 -51 696 q -42 685 -42 666 l -42 666 q -42 646 -51 635 q -61 624 -75 624 l -75 624 q -90 624 -99 635 q -109 646 -109 665 z m 43 666 l 43 666 q 43 686 53 697 q 62 707 77 707 l 77 707 q 91 707 101 697 q 111 686 111 666 l 111 666 q 111 646 101 635 q 91 624 76 624 l 76 624 q 62 624 53 636 q 43 647 43 666 z"},"̀":{"ha":0,"x_min":-396,"x_max":-230,"o":"m -396 765 l -332 765 q -317 740 -300 714 q -283 687 -265 663 q -247 638 -230 617 l -230 617 l -230 606 l -264 606 q -279 620 -297 639 q -315 657 -333 678 q -352 698 -368 719 q -385 739 -396 757 l -396 757 l -396 765 z"},"́":{"ha":0,"x_min":-263,"x_max":-99,"o":"m -99 765 l -99 757 q -110 740 -126 720 q -142 699 -160 678 q -179 657 -197 639 q -215 620 -230 606 l -230 606 l -263 606 l -263 618 q -242 645 -224 669 q -207 693 -191 717 q -176 741 -163 765 l -163 765 l -99 765 z"},"̋":{"ha":0,"x_min":-95,"x_max":178,"o":"m 178 766 l 178 758 q 171 745 158 725 q 144 704 127 682 q 109 660 92 640 q 75 620 61 606 l 61 606 l 32 606 l 32 616 q 48 637 66 666 q 84 695 99 723 q 114 750 122 766 l 122 766 l 178 766 z m 51 766 l 51 758 q 44 744 31 725 q 17 705 1 683 q -16 661 -33 641 q -51 621 -67 606 l -67 606 l -95 606 l -95 616 q -78 639 -60 668 q -43 696 -28 723 q -14 750 -5 766 l -5 766 l 51 766 z"},"̄":{"ha":0,"x_min":-116,"x_max":107,"o":"m -116 659 l 107 659 l 107 616 l -116 616 l -116 659 z"},"˙":{"ha":153,"x_min":40,"x_max":113,"o":"m 77 732 l 77 732 q 96 732 105 719 q 113 706 113 686 l 113 686 q 113 665 104 653 q 94 640 77 640 l 77 640 q 59 640 50 653 q 40 666 40 686 l 40 686 q 40 706 49 719 q 58 732 77 732 z"},"°":{"ha":362,"x_min":51,"x_max":310,"o":"m 181 467 l 181 467 q 144 467 115 483 q 85 499 68 528 q 51 556 51 596 l 51 596 q 51 636 69 665 q 86 693 115 708 q 144 723 180 723 l 180 723 q 217 723 246 708 q 275 692 293 664 q 310 635 310 595 l 310 595 q 310 556 293 527 q 276 498 247 483 q 217 467 181 467 z m 181 504 l 181 504 q 220 504 245 530 q 269 555 269 596 l 269 596 q 269 636 245 661 q 221 686 180 686 l 180 686 q 139 686 116 661 q 92 635 92 596 l 92 596 q 92 554 118 529 q 143 504 181 504 z"},"A":{"ha":414,"x_min":0,"x_max":414,"o":"m 414 0 l 356 0 l 297 252 l 118 252 l 58 0 l 0 0 l 172 714 l 241 714 l 414 0 z m 286 304 l 224 574 q 221 592 218 607 q 214 622 212 637 q 209 652 206 667 l 206 667 q 204 652 202 638 q 199 623 196 608 q 192 592 188 574 l 188 574 l 128 304 l 286 304 z"},"Á":{"ha":414,"x_min":0,"x_max":414,"o":"m 414 0 l 356 0 l 297 252 l 118 252 l 58 0 l 0 0 l 172 714 l 241 714 l 414 0 z m 286 304 l 224 574 q 221 592 218 607 q 214 622 212 637 q 209 652 206 667 l 206 667 q 204 652 202 638 q 199 623 196 608 q 192 592 188 574 l 188 574 l 128 304 l 286 304 z m 323 947 l 323 939 q 312 922 296 902 q 280 881 262 860 q 243 839 225 821 q 207 802 192 788 l 192 788 l 159 788 l 159 800 q 180 827 198 851 q 215 875 231 899 q 246 923 259 947 l 259 947 l 323 947 z"},"Ă":{"ha":414,"x_min":0,"x_max":414,"o":"m 414 0 l 356 0 l 297 252 l 118 252 l 58 0 l 0 0 l 172 714 l 241 714 l 414 0 z m 286 304 l 224 574 q 221 592 218 607 q 214 622 212 637 q 209 652 206 667 l 206 667 q 204 652 202 638 q 199 623 196 608 q 192 592 188 574 l 188 574 l 128 304 l 286 304 z m 280 910 l 318 910 q 317 874 303 847 q 289 820 264 806 q 239 791 206 791 l 206 791 q 158 791 128 821 q 98 850 96 910 l 96 910 l 134 910 q 136 886 145 869 q 154 852 170 843 q 186 834 207 834 l 207 834 q 229 834 245 843 q 261 852 270 869 q 279 886 280 910 l 280 910 z"},"Â":{"ha":414,"x_min":0,"x_max":414,"o":"m 414 0 l 356 0 l 297 252 l 118 252 l 58 0 l 0 0 l 172 714 l 241 714 l 414 0 z m 286 304 l 224 574 q 221 592 218 607 q 214 622 212 637 q 209 652 206 667 l 206 667 q 204 652 202 638 q 199 623 196 608 q 192 592 188 574 l 188 574 l 128 304 l 286 304 z m 180 947 l 233 947 q 245 924 262 895 q 279 866 296 840 q 313 813 324 797 l 324 797 l 324 788 l 294 788 q 273 811 251 841 q 228 871 207 899 l 207 899 q 186 872 163 841 q 139 809 120 788 l 120 788 l 89 788 l 89 797 q 104 817 121 844 q 137 871 153 898 q 169 925 180 947 l 180 947 z"},"Ä":{"ha":414,"x_min":0,"x_max":414,"o":"m 414 0 l 356 0 l 297 252 l 118 252 l 58 0 l 0 0 l 172 714 l 241 714 l 414 0 z m 286 304 l 224 574 q 221 592 218 607 q 214 622 212 637 q 209 652 206 667 l 206 667 q 204 652 202 638 q 199 623 196 608 q 192 592 188 574 l 188 574 l 128 304 l 286 304 z m 97 847 l 97 847 q 97 867 107 878 q 116 889 131 889 l 131 889 q 145 889 155 878 q 164 867 164 848 l 164 848 q 164 828 155 817 q 145 806 131 806 l 131 806 q 116 806 107 817 q 97 828 97 847 z m 249 848 l 249 848 q 249 868 259 879 q 268 889 283 889 l 283 889 q 297 889 307 879 q 317 868 317 848 l 317 848 q 317 828 307 817 q 297 806 282 806 l 282 806 q 268 806 259 818 q 249 829 249 848 z"},"À":{"ha":414,"x_min":0,"x_max":414,"o":"m 414 0 l 356 0 l 297 252 l 118 252 l 58 0 l 0 0 l 172 714 l 241 714 l 414 0 z m 286 304 l 224 574 q 221 592 218 607 q 214 622 212 637 q 209 652 206 667 l 206 667 q 204 652 202 638 q 199 623 196 608 q 192 592 188 574 l 188 574 l 128 304 l 286 304 z m 114 947 l 178 947 q 193 922 210 896 q 227 869 245 845 q 263 820 280 799 l 280 799 l 280 788 l 246 788 q 231 802 213 821 q 195 839 177 860 q 158 880 142 901 q 125 921 114 939 l 114 939 l 114 947 z"},"Ā":{"ha":414,"x_min":0,"x_max":414,"o":"m 414 0 l 356 0 l 297 252 l 118 252 l 58 0 l 0 0 l 172 714 l 241 714 l 414 0 z m 286 304 l 224 574 q 221 592 218 607 q 214 622 212 637 q 209 652 206 667 l 206 667 q 204 652 202 638 q 199 623 196 608 q 192 592 188 574 l 188 574 l 128 304 l 286 304 z m 95 841 l 318 841 l 318 798 l 95 798 l 95 841 z"},"Ą":{"ha":414,"x_min":0,"x_max":414,"o":"m 414 0 l 356 0 l 297 252 l 118 252 l 58 0 l 0 0 l 172 714 l 241 714 l 414 0 z m 286 304 l 224 574 q 221 592 218 607 q 214 622 212 637 q 209 652 206 667 l 206 667 q 204 652 202 638 q 199 623 196 608 q 192 592 188 574 l 188 574 l 128 304 l 286 304 z m 331 -126 l 331 -126 q 331 -152 343 -165 q 354 -179 376 -179 l 376 -179 q 386 -179 395 -177 q 404 -175 409 -174 l 409 -174 l 409 -213 q 402 -216 392 -218 q 381 -220 368 -220 l 368 -220 q 327 -220 306 -198 q 284 -177 284 -135 l 284 -135 q 284 -109 294 -83 q 304 -58 323 -34 q 341 -10 366 11 l 366 11 l 399 0 q 363 -35 347 -64 q 331 -94 331 -126 z"},"Å":{"ha":414,"x_min":0,"x_max":414,"o":"m 414 0 l 356 0 l 297 252 l 118 252 l 58 0 l 0 0 l 172 714 l 241 714 l 414 0 z m 286 304 l 224 574 q 221 592 218 607 q 214 622 212 637 q 209 652 206 667 l 206 667 q 204 652 202 638 q 199 623 196 608 q 192 592 188 574 l 188 574 l 128 304 l 286 304 z m 208 684 l 208 684 q 165 684 138 709 q 111 734 111 777 l 111 777 q 111 821 138 846 q 164 871 207 871 l 207 871 q 249 871 276 846 q 303 820 303 778 l 303 778 q 303 735 277 710 q 251 684 208 684 z m 208 720 l 208 720 q 234 720 250 736 q 266 751 266 777 l 266 777 q 266 803 251 820 q 235 836 207 836 l 207 836 q 180 836 165 820 q 149 803 149 777 l 149 777 q 149 753 164 737 q 179 720 208 720 z"},"Ã":{"ha":414,"x_min":0,"x_max":414,"o":"m 414 0 l 356 0 l 297 252 l 118 252 l 58 0 l 0 0 l 172 714 l 241 714 l 414 0 z m 286 304 l 224 574 q 221 592 218 607 q 214 622 212 637 q 209 652 206 667 l 206 667 q 204 652 202 638 q 199 623 196 608 q 192 592 188 574 l 188 574 l 128 304 l 286 304 z m 105 793 l 68 793 q 70 817 76 836 q 82 855 92 869 q 101 883 114 891 q 127 898 144 898 l 144 898 q 164 898 180 889 q 196 880 211 868 q 225 856 239 847 q 253 837 268 837 l 268 837 q 286 837 297 854 q 307 871 310 899 l 310 899 l 346 899 q 344 847 323 821 q 301 794 270 794 l 270 794 q 251 794 235 804 q 218 813 203 825 q 188 836 175 846 q 161 855 147 855 l 147 855 q 132 855 120 840 q 108 824 105 793 l 105 793 z"},"Æ":{"ha":593,"x_min":-1,"x_max":546,"o":"m 546 51 l 546 0 l 257 0 l 257 252 l 130 252 l 59 0 l -1 0 l 208 714 l 546 714 l 546 664 l 312 664 l 312 399 l 533 399 l 533 349 l 312 349 l 312 51 l 546 51 z m 245 663 l 143 303 l 257 303 l 257 663 l 245 663 z"},"B":{"ha":454,"x_min":76,"x_max":415,"o":"m 76 714 l 224 714 q 312 714 356 672 q 400 630 400 546 l 400 546 q 400 500 388 465 q 376 430 354 408 q 331 385 298 378 l 298 378 l 298 375 q 338 366 364 343 q 390 320 403 285 q 415 249 415 201 l 415 201 q 415 140 395 95 q 375 50 336 25 q 297 0 240 0 l 240 0 l 76 0 l 76 714 z m 131 398 l 221 398 q 283 398 314 434 q 344 470 344 542 l 344 542 q 344 604 315 635 q 285 666 217 666 l 217 666 l 131 666 l 131 398 z m 225 350 l 131 350 l 131 49 l 232 49 q 292 49 325 88 q 358 126 358 204 l 358 204 q 358 256 342 288 q 325 320 295 335 q 265 350 225 350 l 225 350 z"},"C":{"ha":431,"x_min":52,"x_max":407,"o":"m 289 674 l 289 674 q 240 674 206 648 q 172 622 151 577 q 129 532 119 476 q 109 419 109 357 l 109 357 q 109 261 132 190 q 154 119 196 80 q 237 41 293 41 l 293 41 q 325 41 352 50 q 378 58 397 68 l 397 68 l 397 17 q 376 5 348 -2 q 320 -10 288 -10 l 288 -10 q 216 -10 163 35 q 110 79 81 162 q 52 244 52 358 l 52 358 q 52 432 66 498 q 79 564 108 615 q 137 666 182 696 q 226 725 287 725 l 287 725 q 320 725 350 717 q 379 709 407 693 l 407 693 l 385 646 q 362 660 338 667 q 313 674 289 674 z"},"Ć":{"ha":431,"x_min":52,"x_max":407,"o":"m 289 674 l 289 674 q 240 674 206 648 q 172 622 151 577 q 129 532 119 476 q 109 419 109 357 l 109 357 q 109 261 132 190 q 154 119 196 80 q 237 41 293 41 l 293 41 q 325 41 352 50 q 378 58 397 68 l 397 68 l 397 17 q 376 5 348 -2 q 320 -10 288 -10 l 288 -10 q 216 -10 163 35 q 110 79 81 162 q 52 244 52 358 l 52 358 q 52 432 66 498 q 79 564 108 615 q 137 666 182 696 q 226 725 287 725 l 287 725 q 320 725 350 717 q 379 709 407 693 l 407 693 l 385 646 q 362 660 338 667 q 313 674 289 674 z m 389 947 l 389 939 q 378 922 362 902 q 346 881 328 860 q 309 839 291 821 q 273 802 258 788 l 258 788 l 225 788 l 225 800 q 246 827 264 851 q 281 875 297 899 q 312 923 325 947 l 325 947 l 389 947 z"},"Č":{"ha":431,"x_min":52,"x_max":407,"o":"m 289 674 l 289 674 q 240 674 206 648 q 172 622 151 577 q 129 532 119 476 q 109 419 109 357 l 109 357 q 109 261 132 190 q 154 119 196 80 q 237 41 293 41 l 293 41 q 325 41 352 50 q 378 58 397 68 l 397 68 l 397 17 q 376 5 348 -2 q 320 -10 288 -10 l 288 -10 q 216 -10 163 35 q 110 79 81 162 q 52 244 52 358 l 52 358 q 52 432 66 498 q 79 564 108 615 q 137 666 182 696 q 226 725 287 725 l 287 725 q 320 725 350 717 q 379 709 407 693 l 407 693 l 385 646 q 362 660 338 667 q 313 674 289 674 z m 298 788 l 247 788 q 236 812 220 840 q 204 867 188 893 q 172 919 157 938 l 157 938 l 157 947 l 188 947 q 207 926 230 896 q 253 866 273 837 l 273 837 q 296 868 315 893 q 333 917 358 947 l 358 947 l 389 947 l 389 938 q 374 918 358 892 q 341 865 326 839 q 310 812 298 788 l 298 788 z"},"Ç":{"ha":431,"x_min":52,"x_max":407,"o":"m 289 674 l 289 674 q 240 674 206 648 q 172 622 151 577 q 129 532 119 476 q 109 419 109 357 l 109 357 q 109 261 132 190 q 154 119 196 80 q 237 41 293 41 l 293 41 q 325 41 352 50 q 378 58 397 68 l 397 68 l 397 17 q 376 5 348 -2 q 320 -10 288 -10 l 288 -10 q 216 -10 163 35 q 110 79 81 162 q 52 244 52 358 l 52 358 q 52 432 66 498 q 79 564 108 615 q 137 666 182 696 q 226 725 287 725 l 287 725 q 320 725 350 717 q 379 709 407 693 l 407 693 l 385 646 q 362 660 338 667 q 313 674 289 674 z m 353 -141 l 353 -141 q 353 -187 323 -213 q 293 -240 239 -240 l 239 -240 q 226 -240 213 -238 q 199 -237 188 -234 l 188 -234 l 188 -195 q 199 -198 211 -199 q 222 -201 233 -201 l 233 -201 q 266 -201 287 -185 q 307 -169 307 -141 l 307 -141 q 307 -110 284 -96 q 261 -83 222 -80 l 222 -80 l 256 0 l 294 0 l 270 -56 q 297 -60 316 -71 q 334 -83 344 -100 q 353 -118 353 -141 z"},"Ċ":{"ha":431,"x_min":52,"x_max":407,"o":"m 289 674 l 289 674 q 240 674 206 648 q 172 622 151 577 q 129 532 119 476 q 109 419 109 357 l 109 357 q 109 261 132 190 q 154 119 196 80 q 237 41 293 41 l 293 41 q 325 41 352 50 q 378 58 397 68 l 397 68 l 397 17 q 376 5 348 -2 q 320 -10 288 -10 l 288 -10 q 216 -10 163 35 q 110 79 81 162 q 52 244 52 358 l 52 358 q 52 432 66 498 q 79 564 108 615 q 137 666 182 696 q 226 725 287 725 l 287 725 q 320 725 350 717 q 379 709 407 693 l 407 693 l 385 646 q 362 660 338 667 q 313 674 289 674 z m 274 914 l 274 914 q 293 914 302 901 q 310 888 310 868 l 310 868 q 310 847 301 835 q 291 822 274 822 l 274 822 q 256 822 247 835 q 237 848 237 868 l 237 868 q 237 888 246 901 q 255 914 274 914 z"},"D":{"ha":494,"x_min":76,"x_max":443,"o":"m 443 365 l 443 365 q 443 245 417 164 q 390 83 337 42 q 284 0 203 0 l 203 0 l 76 0 l 76 714 l 207 714 q 287 714 339 675 q 391 636 417 558 q 443 480 443 365 z m 385 362 l 385 362 q 385 460 367 528 q 348 595 309 630 q 269 664 204 664 l 204 664 l 131 664 l 131 50 l 201 50 q 298 50 342 129 q 385 208 385 362 z"},"Ð":{"ha":498,"x_min":26,"x_max":446,"o":"m 79 714 l 210 714 q 290 714 342 675 q 394 636 420 558 q 446 480 446 365 l 446 365 q 446 245 420 164 q 393 83 340 42 q 287 0 206 0 l 206 0 l 79 0 l 79 348 l 26 348 l 26 394 l 79 394 l 79 714 z m 208 664 l 208 664 l 134 664 l 134 394 l 252 394 l 252 348 l 134 348 l 134 50 l 204 50 q 301 50 345 129 q 389 208 389 362 l 389 362 q 389 460 370 528 q 351 595 312 630 q 272 664 208 664 z"},"Ď":{"ha":494,"x_min":76,"x_max":443,"o":"m 443 365 l 443 365 q 443 245 417 164 q 390 83 337 42 q 284 0 203 0 l 203 0 l 76 0 l 76 714 l 207 714 q 287 714 339 675 q 391 636 417 558 q 443 480 443 365 z m 385 362 l 385 362 q 385 460 367 528 q 348 595 309 630 q 269 664 204 664 l 204 664 l 131 664 l 131 50 l 201 50 q 298 50 342 129 q 385 208 385 362 z m 270 788 l 219 788 q 208 812 192 840 q 176 867 160 893 q 144 919 129 938 l 129 938 l 129 947 l 160 947 q 179 926 202 896 q 225 866 245 837 l 245 837 q 268 868 287 893 q 305 917 330 947 l 330 947 l 361 947 l 361 938 q 346 918 330 892 q 313 865 298 839 q 282 812 270 788 l 270 788 z"},"Đ":{"ha":498,"x_min":26,"x_max":446,"o":"m 79 714 l 210 714 q 290 714 342 675 q 394 636 420 558 q 446 480 446 365 l 446 365 q 446 245 420 164 q 393 83 340 42 q 287 0 206 0 l 206 0 l 79 0 l 79 348 l 26 348 l 26 394 l 79 394 l 79 714 z m 208 664 l 208 664 l 134 664 l 134 394 l 252 394 l 252 348 l 134 348 l 134 50 l 204 50 q 301 50 345 129 q 389 208 389 362 l 389 362 q 389 460 370 528 q 351 595 312 630 q 272 664 208 664 z"},"E":{"ha":392,"x_min":76,"x_max":345,"o":"m 345 51 l 345 0 l 76 0 l 76 714 l 345 714 l 345 664 l 131 664 l 131 399 l 333 399 l 333 349 l 131 349 l 131 51 l 345 51 z"},"É":{"ha":392,"x_min":76,"x_max":345,"o":"m 345 51 l 345 0 l 76 0 l 76 714 l 345 714 l 345 664 l 131 664 l 131 399 l 333 399 l 333 349 l 131 349 l 131 51 l 345 51 z m 332 947 l 332 939 q 321 922 305 902 q 289 881 271 860 q 252 839 234 821 q 216 802 201 788 l 201 788 l 168 788 l 168 800 q 189 827 207 851 q 224 875 240 899 q 255 923 268 947 l 268 947 l 332 947 z"},"Ě":{"ha":392,"x_min":76,"x_max":345,"o":"m 345 51 l 345 0 l 76 0 l 76 714 l 345 714 l 345 664 l 131 664 l 131 399 l 333 399 l 333 349 l 131 349 l 131 51 l 345 51 z m 242 788 l 191 788 q 180 812 164 840 q 148 867 132 893 q 116 919 101 938 l 101 938 l 101 947 l 132 947 q 151 926 174 896 q 197 866 217 837 l 217 837 q 240 868 259 893 q 277 917 302 947 l 302 947 l 333 947 l 333 938 q 318 918 302 892 q 285 865 270 839 q 254 812 242 788 l 242 788 z"},"Ê":{"ha":392,"x_min":76,"x_max":345,"o":"m 345 51 l 345 0 l 76 0 l 76 714 l 345 714 l 345 664 l 131 664 l 131 399 l 333 399 l 333 349 l 131 349 l 131 51 l 345 51 z m 190 947 l 243 947 q 255 924 272 895 q 289 866 306 840 q 323 813 334 797 l 334 797 l 334 788 l 304 788 q 283 811 261 841 q 238 871 217 899 l 217 899 q 196 872 173 841 q 149 809 130 788 l 130 788 l 99 788 l 99 797 q 114 817 131 844 q 147 871 163 898 q 179 925 190 947 l 190 947 z"},"Ë":{"ha":392,"x_min":76,"x_max":345,"o":"m 345 51 l 345 0 l 76 0 l 76 714 l 345 714 l 345 664 l 131 664 l 131 399 l 333 399 l 333 349 l 131 349 l 131 51 l 345 51 z m 107 847 l 107 847 q 107 867 117 878 q 126 889 141 889 l 141 889 q 155 889 165 878 q 174 867 174 848 l 174 848 q 174 828 165 817 q 155 806 141 806 l 141 806 q 126 806 117 817 q 107 828 107 847 z m 259 848 l 259 848 q 259 868 269 879 q 278 889 293 889 l 293 889 q 307 889 317 879 q 327 868 327 848 l 327 848 q 327 828 317 817 q 307 806 292 806 l 292 806 q 278 806 269 818 q 259 829 259 848 z"},"Ė":{"ha":392,"x_min":76,"x_max":345,"o":"m 345 51 l 345 0 l 76 0 l 76 714 l 345 714 l 345 664 l 131 664 l 131 399 l 333 399 l 333 349 l 131 349 l 131 51 l 345 51 z m 217 914 l 217 914 q 236 914 245 901 q 253 888 253 868 l 253 868 q 253 847 244 835 q 234 822 217 822 l 217 822 q 199 822 190 835 q 180 848 180 868 l 180 868 q 180 888 189 901 q 198 914 217 914 z"},"È":{"ha":392,"x_min":76,"x_max":345,"o":"m 345 51 l 345 0 l 76 0 l 76 714 l 345 714 l 345 664 l 131 664 l 131 399 l 333 399 l 333 349 l 131 349 l 131 51 l 345 51 z m 124 947 l 188 947 q 203 922 220 896 q 237 869 255 845 q 273 820 290 799 l 290 799 l 290 788 l 256 788 q 241 802 223 821 q 205 839 187 860 q 168 880 152 901 q 135 921 124 939 l 124 939 l 124 947 z"},"Ē":{"ha":392,"x_min":76,"x_max":345,"o":"m 345 51 l 345 0 l 76 0 l 76 714 l 345 714 l 345 664 l 131 664 l 131 399 l 333 399 l 333 349 l 131 349 l 131 51 l 345 51 z m 105 841 l 328 841 l 328 798 l 105 798 l 105 841 z"},"Ę":{"ha":392,"x_min":76,"x_max":345,"o":"m 345 51 l 345 0 l 76 0 l 76 714 l 345 714 l 345 664 l 131 664 l 131 399 l 333 399 l 333 349 l 131 349 l 131 51 l 345 51 z m 245 -126 l 245 -126 q 245 -152 257 -165 q 268 -179 290 -179 l 290 -179 q 300 -179 309 -177 q 318 -175 323 -174 l 323 -174 l 323 -213 q 316 -216 306 -218 q 295 -220 282 -220 l 282 -220 q 241 -220 220 -198 q 198 -177 198 -135 l 198 -135 q 198 -109 208 -83 q 218 -58 237 -34 q 255 -10 280 11 l 280 11 l 313 0 q 277 -35 261 -64 q 245 -94 245 -126 z"},"F":{"ha":366,"x_min":76,"x_max":346,"o":"m 131 317 l 131 0 l 76 0 l 76 714 l 346 714 l 346 664 l 131 664 l 131 368 l 334 368 l 334 317 l 131 317 z"},"G":{"ha":533,"x_min":52,"x_max":478,"o":"m 303 314 l 303 364 l 478 364 l 478 25 q 437 8 393 -1 q 348 -10 306 -10 l 306 -10 q 219 -10 163 38 q 106 86 79 169 q 52 252 52 357 l 52 357 q 52 465 81 548 q 110 631 169 678 q 228 724 317 724 l 317 724 q 358 724 396 714 q 434 703 470 679 l 470 679 l 448 633 q 415 655 383 665 q 350 674 318 674 l 318 674 q 248 674 202 636 q 155 597 132 526 q 109 454 109 356 l 109 356 q 109 265 130 194 q 151 123 196 82 q 240 41 310 41 l 310 41 q 341 41 371 47 q 400 52 424 61 l 424 61 l 424 314 l 303 314 z"},"Ğ":{"ha":533,"x_min":52,"x_max":478,"o":"m 303 314 l 303 364 l 478 364 l 478 25 q 437 8 393 -1 q 348 -10 306 -10 l 306 -10 q 219 -10 163 38 q 106 86 79 169 q 52 252 52 357 l 52 357 q 52 465 81 548 q 110 631 169 678 q 228 724 317 724 l 317 724 q 358 724 396 714 q 434 703 470 679 l 470 679 l 448 633 q 415 655 383 665 q 350 674 318 674 l 318 674 q 248 674 202 636 q 155 597 132 526 q 109 454 109 356 l 109 356 q 109 265 130 194 q 151 123 196 82 q 240 41 310 41 l 310 41 q 341 41 371 47 q 400 52 424 61 l 424 61 l 424 314 l 303 314 z m 373 910 l 411 910 q 410 874 396 847 q 382 820 357 806 q 332 791 299 791 l 299 791 q 251 791 221 821 q 191 850 189 910 l 189 910 l 227 910 q 229 886 238 869 q 247 852 263 843 q 279 834 300 834 l 300 834 q 322 834 338 843 q 354 852 363 869 q 372 886 373 910 l 373 910 z"},"Ģ":{"ha":533,"x_min":52,"x_max":478,"o":"m 303 314 l 303 364 l 478 364 l 478 25 q 437 8 393 -1 q 348 -10 306 -10 l 306 -10 q 219 -10 163 38 q 106 86 79 169 q 52 252 52 357 l 52 357 q 52 465 81 548 q 110 631 169 678 q 228 724 317 724 l 317 724 q 358 724 396 714 q 434 703 470 679 l 470 679 l 448 633 q 415 655 383 665 q 350 674 318 674 l 318 674 q 248 674 202 636 q 155 597 132 526 q 109 454 109 356 l 109 356 q 109 265 130 194 q 151 123 196 82 q 240 41 310 41 l 310 41 q 341 41 371 47 q 400 52 424 61 l 424 61 l 424 314 l 303 314 z m 347 -61 l 347 -71 q 341 -94 331 -121 q 321 -148 309 -173 q 297 -199 283 -221 l 283 -221 l 254 -221 l 254 -210 q 260 -192 268 -164 q 276 -137 283 -109 q 289 -81 291 -61 l 291 -61 l 347 -61 z"},"Ġ":{"ha":533,"x_min":52,"x_max":478,"o":"m 303 314 l 303 364 l 478 364 l 478 25 q 437 8 393 -1 q 348 -10 306 -10 l 306 -10 q 219 -10 163 38 q 106 86 79 169 q 52 252 52 357 l 52 357 q 52 465 81 548 q 110 631 169 678 q 228 724 317 724 l 317 724 q 358 724 396 714 q 434 703 470 679 l 470 679 l 448 633 q 415 655 383 665 q 350 674 318 674 l 318 674 q 248 674 202 636 q 155 597 132 526 q 109 454 109 356 l 109 356 q 109 265 130 194 q 151 123 196 82 q 240 41 310 41 l 310 41 q 341 41 371 47 q 400 52 424 61 l 424 61 l 424 314 l 303 314 z m 300 914 l 300 914 q 319 914 328 901 q 336 888 336 868 l 336 868 q 336 847 327 835 q 317 822 300 822 l 300 822 q 282 822 273 835 q 263 848 263 868 l 263 868 q 263 888 272 901 q 281 914 300 914 z"},"H":{"ha":510,"x_min":76,"x_max":435,"o":"m 435 714 l 435 0 l 380 0 l 380 349 l 131 349 l 131 0 l 76 0 l 76 714 l 131 714 l 131 400 l 380 400 l 380 714 l 435 714 z"},"Ħ":{"ha":512,"x_min":-1,"x_max":512,"o":"m 130 0 l 75 0 l 75 538 l -1 538 l -1 583 l 75 583 l 75 714 l 130 714 l 130 583 l 379 583 l 379 714 l 434 714 l 434 583 l 512 583 l 512 538 l 434 538 l 434 0 l 379 0 l 379 349 l 130 349 l 130 0 z m 131 538 l 131 400 l 380 400 l 380 538 l 131 538 z"},"I":{"ha":251,"x_min":36,"x_max":215,"o":"m 215 34 l 215 0 l 36 0 l 36 34 l 99 44 l 99 670 l 36 681 l 36 714 l 215 714 l 215 681 l 153 670 l 153 44 l 215 34 z"},"Ĳ":{"ha":455,"x_min":36,"x_max":381,"o":"m 215 34 l 215 0 l 36 0 l 36 34 l 99 44 l 99 670 l 36 681 l 36 714 l 215 714 l 215 681 l 153 670 l 153 44 l 215 34 z m 264 -184 l 264 -184 q 247 -184 232 -181 q 216 -178 202 -172 l 202 -172 l 202 -122 q 215 -126 230 -129 q 244 -133 259 -133 l 259 -133 q 285 -133 300 -119 q 314 -106 320 -78 q 326 -50 326 -8 l 326 -8 l 326 714 l 381 714 l 381 -15 q 381 -75 369 -112 q 356 -149 330 -166 q 304 -184 264 -184 z"},"Í":{"ha":251,"x_min":36,"x_max":241,"o":"m 215 34 l 215 0 l 36 0 l 36 34 l 99 44 l 99 670 l 36 681 l 36 714 l 215 714 l 215 681 l 153 670 l 153 44 l 215 34 z m 242 947 l 242 939 q 231 922 215 902 q 199 881 181 860 q 162 839 144 821 q 126 802 111 788 l 111 788 l 78 788 l 78 800 q 99 827 117 851 q 134 875 150 899 q 165 923 178 947 l 178 947 l 242 947 z"},"Î":{"ha":251,"x_min":8,"x_max":243,"o":"m 215 34 l 215 0 l 36 0 l 36 34 l 99 44 l 99 670 l 36 681 l 36 714 l 215 714 l 215 681 l 153 670 l 153 44 l 215 34 z m 99 947 l 152 947 q 164 924 181 895 q 198 866 215 840 q 232 813 243 797 l 243 797 l 243 788 l 213 788 q 192 811 170 841 q 147 871 126 899 l 126 899 q 105 872 82 841 q 58 809 39 788 l 39 788 l 8 788 l 8 797 q 23 817 40 844 q 56 871 72 898 q 88 925 99 947 l 99 947 z"},"Ï":{"ha":251,"x_min":16,"x_max":236,"o":"m 215 34 l 215 0 l 36 0 l 36 34 l 99 44 l 99 670 l 36 681 l 36 714 l 215 714 l 215 681 l 153 670 l 153 44 l 215 34 z m 16 847 l 16 847 q 16 867 26 878 q 35 889 50 889 l 50 889 q 64 889 74 878 q 83 867 83 848 l 83 848 q 83 828 74 817 q 64 806 50 806 l 50 806 q 35 806 26 817 q 16 828 16 847 z m 168 848 l 168 848 q 168 868 178 879 q 187 889 202 889 l 202 889 q 216 889 226 879 q 236 868 236 848 l 236 848 q 236 828 226 817 q 216 806 201 806 l 201 806 q 187 806 178 818 q 168 829 168 848 z"}}}
